<?xml version="1.0" encoding="UTF-8" standalone="no"?>
<!-- Created with Inkscape (http://www.inkscape.org/) -->
<svg xmlns:rdf="http://www.w3.org/1999/02/22-rdf-syntax-ns#" xmlns="http://www.w3.org/2000/svg" xml:space="preserve" version="1.1" xmlns:cc="http://creativecommons.org/ns#" xmlns:dc="http://purl.org/dc/elements/1.1/" viewBox="0 0 200.11 195.86"><metadata><rdf:RDF><cc:Work rdf:about=""><dc:format>image/svg+xml</dc:format><dc:type rdf:resource="http://purl.org/dc/dcmitype/StillImage"/><dc:title/></cc:Work></rdf:RDF></metadata><defs/><g transform="matrix(1.25,0,0,-1.25,-445.2325,925.4625)"><text font-weight="normal" transform="scale(1,-1)" font-style="normal" font-stretch="normal" font-variant="normal" y="-580.91998" x="65.879974" font-family="Arial"><tspan style="writing-mode:lr-tb;" font-weight="normal" fill-rule="nonzero" font-size="9.96263981px" font-style="normal" font-stretch="normal" font-variant="normal" y="-580.91998" x="65.879974" font-family="Arial" fill="#000000"/></text>
<text font-weight="normal" transform="scale(1,-1)" font-style="normal" font-stretch="normal" font-variant="normal" y="-580.91998" x="123.24002" font-family="Arial"><tspan style="writing-mode:lr-tb;" font-weight="normal" fill-rule="nonzero" font-size="9.96263981px" font-style="normal" font-stretch="normal" font-variant="normal" y="-580.91998" x="123.24002" font-family="Arial" fill="#000000"/></text>
<path d="m376.55,691.92,0.518,0,22.25-64.681,0-0.517-0.517,0-22.251,64.681" fill-rule="nonzero" fill="#0ccf61"/><path stroke-linejoin="miter" d="m399.06,627.24,0-0.517" stroke="#0ccf61" stroke-linecap="butt" stroke-miterlimit="10" stroke-dasharray="none" stroke-width="0.51745403" fill="none"/><path stroke-linejoin="miter" d="m462.18,654.14,0-0.517" stroke="#0ccf61" stroke-linecap="butt" stroke-miterlimit="10" stroke-dasharray="none" stroke-width="0.51745403" fill="none"/><path stroke-linejoin="miter" d="m376.8,737.97,0-117.98" stroke="#feffff" stroke-linecap="butt" stroke-miterlimit="10" stroke-dasharray="none" stroke-width="0.51745403" fill="none"/><path stroke-linejoin="miter" d="m376.8,737.97,0-0.517" stroke="#feffff" stroke-linecap="butt" stroke-miterlimit="10" stroke-dasharray="none" stroke-width="0.51745403" fill="none"/><path stroke-linejoin="miter" d="m494.27,620.51,0-0.517" stroke="#feffff" stroke-linecap="butt" stroke-miterlimit="10" stroke-dasharray="none" stroke-width="0.51745403" fill="none"/><path stroke-linejoin="miter" d="m376.55,620.25,117.98,0" stroke="#feffff" stroke-linecap="butt" stroke-miterlimit="10" stroke-dasharray="none" stroke-width="0.51745403" fill="none"/><path stroke-linejoin="miter" d="m376.8,620.51,0-0.517" stroke="#feffff" stroke-linecap="butt" stroke-miterlimit="10" stroke-dasharray="none" stroke-width="0.51745403" fill="none"/><path stroke-linejoin="miter" d="m376.55,620.25,117.98,0" stroke="#2a2f14" stroke-linecap="butt" stroke-miterlimit="10" stroke-dasharray="none" stroke-width="0.51745403" fill="none"/><path stroke-linejoin="miter" d="m376.8,737.97,0-117.98" stroke="#2a2f14" stroke-linecap="butt" stroke-miterlimit="10" stroke-dasharray="none" stroke-width="0.51745403" fill="none"/><path stroke-linejoin="miter" d="m376.8,621.54,0-1.552" stroke="#2a2f14" stroke-linecap="butt" stroke-miterlimit="10" stroke-dasharray="none" stroke-width="0.51745403" fill="none"/><text font-weight="normal" transform="scale(1,-1)" font-style="normal" font-stretch="normal" font-variant="normal" y="-614.29999" x="374.99399" font-family="Arial"><tspan style="writing-mode:lr-tb;" font-weight="normal" fill-rule="nonzero" font-size="5.17449999px" font-style="normal" font-stretch="normal" font-variant="normal" y="-614.29999" x="374.99399" font-family="Arial" fill="#2a2f14">0</tspan></text>
<path stroke-linejoin="miter" d="m395.95,621.54,0-1.552" stroke="#2a2f14" stroke-linecap="butt" stroke-miterlimit="10" stroke-dasharray="none" stroke-width="0.51745403" fill="none"/><text font-weight="normal" transform="scale(1,-1)" font-style="normal" font-stretch="normal" font-variant="normal" y="-614.29999" x="392.07001" font-family="Arial"><tspan style="writing-mode:lr-tb;" font-weight="normal" fill-rule="nonzero" font-size="5.17449999px" font-style="normal" font-stretch="normal" font-variant="normal" y="-614.29999" x="392.07001 394.91595 396.36484" font-family="Arial" fill="#2a2f14">0.1</tspan></text>
<path stroke-linejoin="miter" d="m415.61,621.54,0-1.552" stroke="#2a2f14" stroke-linecap="butt" stroke-miterlimit="10" stroke-dasharray="none" stroke-width="0.51745403" fill="none"/><text font-weight="normal" transform="scale(1,-1)" font-style="normal" font-stretch="normal" font-variant="normal" y="-614.29999" x="411.733" font-family="Arial"><tspan style="writing-mode:lr-tb;" font-weight="normal" fill-rule="nonzero" font-size="5.17449999px" font-style="normal" font-stretch="normal" font-variant="normal" y="-614.29999" x="411.733 414.57901 416.02783" font-family="Arial" fill="#2a2f14">0.2</tspan></text>
<path stroke-linejoin="miter" d="m435.28,621.54,0-1.552" stroke="#2a2f14" stroke-linecap="butt" stroke-miterlimit="10" stroke-dasharray="none" stroke-width="0.51745403" fill="none"/><text font-weight="normal" transform="scale(1,-1)" font-style="normal" font-stretch="normal" font-variant="normal" y="-614.29999" x="431.396" font-family="Arial"><tspan style="writing-mode:lr-tb;" font-weight="normal" fill-rule="nonzero" font-size="5.17449999px" font-style="normal" font-stretch="normal" font-variant="normal" y="-614.29999" x="431.396 434.242 435.53564" font-family="Arial" fill="#2a2f14">0.3</tspan></text>
<path stroke-linejoin="miter" d="m454.94,621.54,0-1.552" stroke="#2a2f14" stroke-linecap="butt" stroke-miterlimit="10" stroke-dasharray="none" stroke-width="0.51745403" fill="none"/><text font-weight="normal" transform="scale(1,-1)" font-style="normal" font-stretch="normal" font-variant="normal" y="-614.29999" x="451.05899" font-family="Arial"><tspan style="writing-mode:lr-tb;" font-weight="normal" fill-rule="nonzero" font-size="5.17449999px" font-style="normal" font-stretch="normal" font-variant="normal" y="-614.29999" x="451.05899 453.64633 455.04337" font-family="Arial" fill="#2a2f14">0.4</tspan></text>
<path stroke-linejoin="miter" d="m474.6,621.54,0-1.552" stroke="#2a2f14" stroke-linecap="butt" stroke-miterlimit="10" stroke-dasharray="none" stroke-width="0.51745403" fill="none"/><text font-weight="normal" transform="scale(1,-1)" font-style="normal" font-stretch="normal" font-variant="normal" y="-614.29999" x="470.72198" font-family="Arial"><tspan style="writing-mode:lr-tb;" font-weight="normal" fill-rule="nonzero" font-size="5.17449999px" font-style="normal" font-stretch="normal" font-variant="normal" y="-614.29999" x="470.72198 473.30927 474.70639" font-family="Arial" fill="#2a2f14">0.5</tspan></text>
<path stroke-linejoin="miter" d="m494.27,621.54,0-1.552" stroke="#2a2f14" stroke-linecap="butt" stroke-miterlimit="10" stroke-dasharray="none" stroke-width="0.51745403" fill="none"/><text font-weight="normal" transform="scale(1,-1)" font-style="normal" font-stretch="normal" font-variant="normal" y="-614.29999" x="490.38501" font-family="Arial"><tspan style="writing-mode:lr-tb;" font-weight="normal" fill-rule="nonzero" font-size="5.17449999px" font-style="normal" font-stretch="normal" font-variant="normal" y="-614.29999" x="490.38501 492.97232 494.36938" font-family="Arial" fill="#2a2f14">0.6</tspan></text>
<path stroke-linejoin="miter" d="m376.55,633.19,1.553,0" stroke="#2a2f14" stroke-linecap="butt" stroke-miterlimit="10" stroke-dasharray="none" stroke-width="0.51745403" fill="none"/><text font-weight="normal" transform="scale(1,-1)" font-style="normal" font-stretch="normal" font-variant="normal" y="-631.37598" x="364.64499" font-family="Arial"><tspan style="writing-mode:lr-tb;" font-weight="normal" fill-rule="nonzero" font-size="5.17449999px" font-style="normal" font-stretch="normal" font-variant="normal" y="-631.37598" x="364.64499 366.19733 369.302 370.8544" font-family="Arial" fill="#2a2f14">-0.3</tspan></text>
<path stroke-linejoin="miter" d="m376.55,652.33,1.553,0" stroke="#2a2f14" stroke-linecap="butt" stroke-miterlimit="10" stroke-dasharray="none" stroke-width="0.51745403" fill="none"/><text font-weight="normal" transform="scale(1,-1)" font-style="normal" font-stretch="normal" font-variant="normal" y="-651.039" x="364.64499" font-family="Arial"><tspan style="writing-mode:lr-tb;" font-weight="normal" fill-rule="nonzero" font-size="5.17449999px" font-style="normal" font-stretch="normal" font-variant="normal" y="-651.039" x="364.64499 366.35257 369.19855 370.6474" font-family="Arial" fill="#2a2f14">-0.2</tspan></text>
<path stroke-linejoin="miter" d="m376.55,672,1.553,0" stroke="#2a2f14" stroke-linecap="butt" stroke-miterlimit="10" stroke-dasharray="none" stroke-width="0.51745403" fill="none"/><text font-weight="normal" transform="scale(1,-1)" font-style="normal" font-stretch="normal" font-variant="normal" y="-670.70203" x="364.64499" font-family="Arial"><tspan style="writing-mode:lr-tb;" font-weight="normal" fill-rule="nonzero" font-size="5.17449999px" font-style="normal" font-stretch="normal" font-variant="normal" y="-670.70203" x="364.64499 366.35257 369.19855 370.6474" font-family="Arial" fill="#2a2f14">-0.1</tspan></text>
<path stroke-linejoin="miter" d="m376.55,691.66,1.553,0" stroke="#2a2f14" stroke-linecap="butt" stroke-miterlimit="10" stroke-dasharray="none" stroke-width="0.51745403" fill="none"/><text font-weight="normal" transform="scale(1,-1)" font-style="normal" font-stretch="normal" font-variant="normal" y="-689.84698" x="371.88901" font-family="Arial"><tspan style="writing-mode:lr-tb;" font-weight="normal" fill-rule="nonzero" font-size="5.17449999px" font-style="normal" font-stretch="normal" font-variant="normal" y="-689.84698" x="371.88901" font-family="Arial" fill="#2a2f14">0</tspan></text>
<path stroke-linejoin="miter" d="m376.55,711.32,1.553,0" stroke="#2a2f14" stroke-linecap="butt" stroke-miterlimit="10" stroke-dasharray="none" stroke-width="0.51745403" fill="none"/><text font-weight="normal" transform="scale(1,-1)" font-style="normal" font-stretch="normal" font-variant="normal" y="-709.51001" x="367.75" font-family="Arial"><tspan style="writing-mode:lr-tb;" font-weight="normal" fill-rule="nonzero" font-size="5.17449999px" font-style="normal" font-stretch="normal" font-variant="normal" y="-709.51001" x="367.75 370.33725 371.73438" font-family="Arial" fill="#2a2f14">0.1</tspan></text>
<path stroke-linejoin="miter" d="m376.55,730.98,1.553,0" stroke="#2a2f14" stroke-linecap="butt" stroke-miterlimit="10" stroke-dasharray="none" stroke-width="0.51745403" fill="none"/><text font-weight="normal" transform="scale(1,-1)" font-style="normal" font-stretch="normal" font-variant="normal" y="-729.17401" x="367.75" font-family="Arial"><tspan style="writing-mode:lr-tb;" font-weight="normal" fill-rule="nonzero" font-size="5.17449999px" font-style="normal" font-stretch="normal" font-variant="normal" y="-729.17401" x="367.75 370.33725 371.73438" font-family="Arial" fill="#2a2f14">0.2</tspan></text>
<path d="m378.1,691.92,0.517,0,0-0.517-0.517-1.035-0.518,0,0,0.517" fill-rule="nonzero" fill="#0ccf61"/><path stroke-linejoin="miter" d="m377.84,690.88,0-0.517" stroke="#0ccf61" stroke-linecap="butt" stroke-miterlimit="10" stroke-dasharray="none" stroke-width="0.51745403" fill="none"/><path d="m377.58,690.88,0.518,0,0-0.517-1.035-0.518-0.518,0,0,0.518" fill-rule="nonzero" fill="#0ccf61"/><path stroke-linejoin="miter" d="m376.8,690.36,0-0.518" stroke="#0ccf61" stroke-linecap="butt" stroke-miterlimit="10" stroke-dasharray="none" stroke-width="0.51745403" fill="none"/><path stroke-linejoin="miter" d="m376.8,690.36,0-0.518" stroke="#0ccf61" stroke-linecap="butt" stroke-miterlimit="10" stroke-dasharray="none" stroke-width="0.51745403" fill="none"/><path stroke-linejoin="miter" d="m376.8,690.36,0-0.518" stroke="#0ccf61" stroke-linecap="butt" stroke-miterlimit="10" stroke-dasharray="none" stroke-width="0.51745403" fill="none"/><path d="m375.51,690.88,0.518,0,1.035-0.517,0-0.518-0.518,0-1.035,0.518" fill-rule="nonzero" fill="#0ccf61"/><path stroke-linejoin="miter" d="m375.77,690.88,0-0.517" stroke="#0ccf61" stroke-linecap="butt" stroke-miterlimit="10" stroke-dasharray="none" stroke-width="0.51745403" fill="none"/><path d="m374.99,691.92,0.517,0,0.518-1.035,0-0.517-0.518,0-0.517,1.035" fill-rule="nonzero" fill="#0ccf61"/><path stroke-linejoin="miter" d="m375.25,691.92,0-0.517" stroke="#0ccf61" stroke-linecap="butt" stroke-miterlimit="10" stroke-dasharray="none" stroke-width="0.51745403" fill="none"/><path stroke-linejoin="miter" d="m375.25,691.92,0-0.517" stroke="#0ccf61" stroke-linecap="butt" stroke-miterlimit="10" stroke-dasharray="none" stroke-width="0.51745403" fill="none"/><path stroke-linejoin="miter" d="m375.25,691.92,0-0.517" stroke="#0ccf61" stroke-linecap="butt" stroke-miterlimit="10" stroke-dasharray="none" stroke-width="0.51745403" fill="none"/><path d="m375.51,692.95,0.518,0,0-0.517-0.518-1.035-0.517,0,0,0.517" fill-rule="nonzero" fill="#0ccf61"/><path stroke-linejoin="miter" d="m375.77,692.95,0-0.517" stroke="#0ccf61" stroke-linecap="butt" stroke-miterlimit="10" stroke-dasharray="none" stroke-width="0.51745403" fill="none"/><path d="m376.55,693.47,0.518,0,0-0.518-1.035-0.517-0.518,0,0,0.517" fill-rule="nonzero" fill="#0ccf61"/><path stroke-linejoin="miter" d="m376.8,693.47,0-0.518" stroke="#0ccf61" stroke-linecap="butt" stroke-miterlimit="10" stroke-dasharray="none" stroke-width="0.51745403" fill="none"/><path stroke-linejoin="miter" d="m376.8,693.47,0-0.518" stroke="#0ccf61" stroke-linecap="butt" stroke-miterlimit="10" stroke-dasharray="none" stroke-width="0.51745403" fill="none"/><path stroke-linejoin="miter" d="m376.8,693.47,0-0.518" stroke="#0ccf61" stroke-linecap="butt" stroke-miterlimit="10" stroke-dasharray="none" stroke-width="0.51745403" fill="none"/><path d="m376.55,693.47,0.518,0,1.035-0.518,0-0.517-0.518,0-1.035,0.517" fill-rule="nonzero" fill="#0ccf61"/><path stroke-linejoin="miter" d="m377.84,692.95,0-0.517" stroke="#0ccf61" stroke-linecap="butt" stroke-miterlimit="10" stroke-dasharray="none" stroke-width="0.51745403" fill="none"/><path d="m377.58,692.95,0.518,0,0.517-1.035,0-0.517-0.517,0-0.518,1.035" fill-rule="nonzero" fill="#0ccf61"/><path stroke-linejoin="miter" d="m378.36,691.92,0-0.517" stroke="#0ccf61" stroke-linecap="butt" stroke-miterlimit="10" stroke-dasharray="none" stroke-width="0.51745403" fill="none"/><path d="m400.35,627.24,0.517,0,0-0.517-0.517-1.035-0.518,0,0,0.517" fill-rule="nonzero" fill="#0ccf61"/><path stroke-linejoin="miter" d="m400.09,626.2,0-0.517" stroke="#0ccf61" stroke-linecap="butt" stroke-miterlimit="10" stroke-dasharray="none" stroke-width="0.51745403" fill="none"/><path d="m399.83,626.2,0.518,0,0-0.517-1.035-0.518-0.517,0,0,0.518" fill-rule="nonzero" fill="#0ccf61"/><path stroke-linejoin="miter" d="m399.06,625.68,0-0.518" stroke="#0ccf61" stroke-linecap="butt" stroke-miterlimit="10" stroke-dasharray="none" stroke-width="0.51745403" fill="none"/><path stroke-linejoin="miter" d="m399.06,625.68,0-0.518" stroke="#0ccf61" stroke-linecap="butt" stroke-miterlimit="10" stroke-dasharray="none" stroke-width="0.51745403" fill="none"/><path stroke-linejoin="miter" d="m399.06,625.68,0-0.518" stroke="#0ccf61" stroke-linecap="butt" stroke-miterlimit="10" stroke-dasharray="none" stroke-width="0.51745403" fill="none"/><path d="m397.76,626.2,0.517,0,1.035-0.517,0-0.518-0.517,0-1.035,0.518" fill-rule="nonzero" fill="#0ccf61"/><path stroke-linejoin="miter" d="m398.02,626.2,0-0.517" stroke="#0ccf61" stroke-linecap="butt" stroke-miterlimit="10" stroke-dasharray="none" stroke-width="0.51745403" fill="none"/><path d="m397.24,627.24,0.518,0,0.517-1.035,0-0.517-0.517,0-0.518,1.035" fill-rule="nonzero" fill="#0ccf61"/><path stroke-linejoin="miter" d="m397.5,627.24,0-0.517" stroke="#0ccf61" stroke-linecap="butt" stroke-miterlimit="10" stroke-dasharray="none" stroke-width="0.51745403" fill="none"/><path stroke-linejoin="miter" d="m397.5,627.24,0-0.517" stroke="#0ccf61" stroke-linecap="butt" stroke-miterlimit="10" stroke-dasharray="none" stroke-width="0.51745403" fill="none"/><path stroke-linejoin="miter" d="m397.5,627.24,0-0.517" stroke="#0ccf61" stroke-linecap="butt" stroke-miterlimit="10" stroke-dasharray="none" stroke-width="0.51745403" fill="none"/><path d="m397.76,628.27,0.517,0,0-0.518-0.517-1.034-0.518,0,0,0.517" fill-rule="nonzero" fill="#0ccf61"/><path stroke-linejoin="miter" d="m398.02,628.27,0-0.518" stroke="#0ccf61" stroke-linecap="butt" stroke-miterlimit="10" stroke-dasharray="none" stroke-width="0.51745403" fill="none"/><path d="m398.8,628.79,0.517,0,0-0.517-1.035-0.518-0.517,0,0,0.518" fill-rule="nonzero" fill="#0ccf61"/><path stroke-linejoin="miter" d="m399.06,628.79,0-0.517" stroke="#0ccf61" stroke-linecap="butt" stroke-miterlimit="10" stroke-dasharray="none" stroke-width="0.51745403" fill="none"/><path stroke-linejoin="miter" d="m399.06,628.79,0-0.517" stroke="#0ccf61" stroke-linecap="butt" stroke-miterlimit="10" stroke-dasharray="none" stroke-width="0.51745403" fill="none"/><path stroke-linejoin="miter" d="m399.06,628.79,0-0.517" stroke="#0ccf61" stroke-linecap="butt" stroke-miterlimit="10" stroke-dasharray="none" stroke-width="0.51745403" fill="none"/><path d="m398.8,628.79,0.517,0,1.035-0.517,0-0.518-0.518,0-1.034,0.518" fill-rule="nonzero" fill="#0ccf61"/><path stroke-linejoin="miter" d="m400.09,628.27,0-0.518" stroke="#0ccf61" stroke-linecap="butt" stroke-miterlimit="10" stroke-dasharray="none" stroke-width="0.51745403" fill="none"/><path d="m399.83,628.27,0.518,0,0.517-1.035,0-0.517-0.517,0-0.518,1.034" fill-rule="nonzero" fill="#0ccf61"/><path stroke-linejoin="miter" d="m400.61,627.24,0-0.517" stroke="#0ccf61" stroke-linecap="butt" stroke-miterlimit="10" stroke-dasharray="none" stroke-width="0.51745403" fill="none"/><path d="m463.48,654.14,0.517,0,0-0.517-0.517-1.035-0.518,0,0,0.517" fill-rule="nonzero" fill="#0ccf61"/><path stroke-linejoin="miter" d="m463.22,653.11,0-0.517" stroke="#0ccf61" stroke-linecap="butt" stroke-miterlimit="10" stroke-dasharray="none" stroke-width="0.51745403" fill="none"/><path d="m462.96,653.11,0.518,0,0-0.517-1.035-0.517-0.518,0,0,0.517" fill-rule="nonzero" fill="#0ccf61"/><path stroke-linejoin="miter" d="m462.18,652.59,0-0.517" stroke="#0ccf61" stroke-linecap="butt" stroke-miterlimit="10" stroke-dasharray="none" stroke-width="0.51745403" fill="none"/><path stroke-linejoin="miter" d="m462.18,652.59,0-0.517" stroke="#0ccf61" stroke-linecap="butt" stroke-miterlimit="10" stroke-dasharray="none" stroke-width="0.51745403" fill="none"/><path stroke-linejoin="miter" d="m462.18,652.59,0-0.517" stroke="#0ccf61" stroke-linecap="butt" stroke-miterlimit="10" stroke-dasharray="none" stroke-width="0.51745403" fill="none"/><path d="m460.89,653.11,0.517,0,1.035-0.517,0-0.517-0.518,0-1.034,0.517" fill-rule="nonzero" fill="#0ccf61"/><path stroke-linejoin="miter" d="m461.15,653.11,0-0.517" stroke="#0ccf61" stroke-linecap="butt" stroke-miterlimit="10" stroke-dasharray="none" stroke-width="0.51745403" fill="none"/><path d="m460.37,654.14,0.518,0,0.517-1.035,0-0.517-0.517,0-0.518,1.035" fill-rule="nonzero" fill="#0ccf61"/><path stroke-linejoin="miter" d="m460.63,654.14,0-0.517" stroke="#0ccf61" stroke-linecap="butt" stroke-miterlimit="10" stroke-dasharray="none" stroke-width="0.51745403" fill="none"/><path stroke-linejoin="miter" d="m460.63,654.14,0-0.517" stroke="#0ccf61" stroke-linecap="butt" stroke-miterlimit="10" stroke-dasharray="none" stroke-width="0.51745403" fill="none"/><path stroke-linejoin="miter" d="m460.63,654.14,0-0.517" stroke="#0ccf61" stroke-linecap="butt" stroke-miterlimit="10" stroke-dasharray="none" stroke-width="0.51745403" fill="none"/><path stroke-linejoin="miter" d="m462.18,655.7,0-0.518" stroke="#0ccf61" stroke-linecap="butt" stroke-miterlimit="10" stroke-dasharray="none" stroke-width="0.51745403" fill="none"/><path stroke-linejoin="miter" d="m462.18,655.7,0-0.518" stroke="#0ccf61" stroke-linecap="butt" stroke-miterlimit="10" stroke-dasharray="none" stroke-width="0.51745403" fill="none"/><path stroke-linejoin="miter" d="m462.18,655.7,0-0.518" stroke="#0ccf61" stroke-linecap="butt" stroke-miterlimit="10" stroke-dasharray="none" stroke-width="0.51745403" fill="none"/><path d="m461.92,655.7,0.518,0,1.035-0.518,0-0.517-0.518,0-1.035,0.517" fill-rule="nonzero" fill="#0ccf61"/><path stroke-linejoin="miter" d="m463.22,655.18,0-0.517" stroke="#0ccf61" stroke-linecap="butt" stroke-miterlimit="10" stroke-dasharray="none" stroke-width="0.51745403" fill="none"/><path d="m462.96,655.18,0.518,0,0.517-1.035,0-0.517-0.517,0-0.518,1.035" fill-rule="nonzero" fill="#0ccf61"/><path stroke-linejoin="miter" d="m463.74,654.14,0-0.517" stroke="#0ccf61" stroke-linecap="butt" stroke-miterlimit="10" stroke-dasharray="none" stroke-width="0.51745403" fill="none"/><path stroke-linejoin="miter" d="m374.99,691.66,3.622,0" stroke="#f86f78" stroke-linecap="butt" stroke-miterlimit="10" stroke-dasharray="none" stroke-width="0.51745403" fill="none"/><path stroke-linejoin="miter" d="m376.8,693.47,0-3.623" stroke="#f86f78" stroke-linecap="butt" stroke-miterlimit="10" stroke-dasharray="none" stroke-width="0.51745403" fill="none"/><path d="m375.51,692.95,0.518,0,2.07-2.07,0-0.517-0.518,0-2.07,2.07" fill-rule="nonzero" fill="#f86f78"/><path d="m377.58,692.95,0.518,0,0-0.517-2.07-2.07-0.518,0,0,0.517" fill-rule="nonzero" fill="#f86f78"/><path stroke-linejoin="round" d="m416.39,586.36-1.449,3.881" stroke="#000" stroke-linecap="round" stroke-miterlimit="10" stroke-dasharray="none" stroke-width="0.51745403" fill="none"/><path stroke-linejoin="round" d="m414.01,592.67-1.449,3.881" stroke="#000" stroke-linecap="round" stroke-miterlimit="10" stroke-dasharray="none" stroke-width="0.51745403" fill="none"/><path stroke-linejoin="round" d="m411.68,598.98-1.449,3.829" stroke="#000" stroke-linecap="round" stroke-miterlimit="10" stroke-dasharray="none" stroke-width="0.51745403" fill="none"/><path stroke-linejoin="round" d="m409.3,605.24-1.449,3.881" stroke="#000" stroke-linecap="round" stroke-miterlimit="10" stroke-dasharray="none" stroke-width="0.51745403" fill="none"/><path stroke-linejoin="round" d="m406.97,611.56-1.449,3.881" stroke="#000" stroke-linecap="round" stroke-miterlimit="10" stroke-dasharray="none" stroke-width="0.51745403" fill="none"/><path stroke-linejoin="round" d="m404.59,617.87-1.449,3.881" stroke="#000" stroke-linecap="round" stroke-miterlimit="10" stroke-dasharray="none" stroke-width="0.51745403" fill="none"/><path stroke-linejoin="round" d="m402.26,624.18-1.449,3.881" stroke="#000" stroke-linecap="round" stroke-miterlimit="10" stroke-dasharray="none" stroke-width="0.51745403" fill="none"/><path stroke-linejoin="round" d="m399.88,630.44-1.449,3.881" stroke="#000" stroke-linecap="round" stroke-miterlimit="10" stroke-dasharray="none" stroke-width="0.51745403" fill="none"/><path stroke-linejoin="round" d="m397.56,636.76-0.311,0.828" stroke="#000" stroke-linecap="round" stroke-miterlimit="10" stroke-dasharray="none" stroke-width="0.51745403" fill="none"/><path d="m369.82,682.6,17.593,0,0,7.2443-17.593,0,0-7.2443z" fill-rule="nonzero" fill="#ecf0ef"/><path stroke-linejoin="round" d="m369.82,682.6,17.593,0,0,7.2443-17.593,0,0-7.2443z" stroke="#000" stroke-linecap="round" stroke-miterlimit="10" stroke-dasharray="none" stroke-width="0.51745403" fill="none"/><path d="m403.82,627.03-4.347-1.656-25.769,67.217,4.347,1.656,25.769-67.217" fill-rule="nonzero" fill="#FFF"/><path stroke-linejoin="round" d="m403.82,627.03-4.347-1.656-25.769,67.217,4.347,1.656,25.769-67.217z" stroke="#000" stroke-linecap="round" stroke-miterlimit="10" stroke-dasharray="none" stroke-width="0.51745403" fill="none"/><path d="m461.82,653.16,1.708-4.346-62.767-25.355-1.759,4.294,62.818,25.407" fill-rule="nonzero" fill="#FFF"/><path stroke-linejoin="round" d="m461.82,653.16,1.708-4.346-62.767-25.355-1.759,4.294,62.818,25.407z" stroke="#000" stroke-linecap="round" stroke-miterlimit="10" stroke-dasharray="none" stroke-width="0.51745403" fill="none"/><path d="m398.07,623.41c-1.811,1.863-1.811,4.76,0,6.623,1.863,1.811,4.761,1.811,6.624,0,1.811-1.863,1.811-4.76,0-6.623-1.863-1.811-4.761-1.811-6.624,0" fill-rule="nonzero" fill="#FFF"/><path stroke-linejoin="round" d="m398.07,623.41c-1.811,1.863-1.811,4.76,0,6.623,1.863,1.811,4.761,1.811,6.624,0,1.811-1.863,1.811-4.76,0-6.623-1.863-1.811-4.761-1.811-6.624,0z" stroke="#000" stroke-linecap="round" stroke-miterlimit="10" stroke-dasharray="none" stroke-width="0.51745403" fill="none"/><path d="m373.75,688.6c-1.811,1.863-1.811,4.761,0,6.624,1.863,1.811,4.761,1.811,6.623,0,1.811-1.863,1.811-4.761,0-6.624-1.862-1.811-4.76-1.811-6.623,0" fill-rule="nonzero" fill="#FFF"/><path stroke-linejoin="round" d="m373.75,688.6c-1.811,1.863-1.811,4.761,0,6.624,1.863,1.811,4.761,1.811,6.623,0,1.811-1.863,1.811-4.761,0-6.624-1.862-1.811-4.76-1.811-6.623,0z" stroke="#000" stroke-linecap="round" stroke-miterlimit="10" stroke-dasharray="none" stroke-width="0.51745403" fill="none"/><path stroke-linejoin="round" d="m377.58,709.51c11.436,0,20.698-8.796,20.698-19.663" stroke="#000" stroke-linecap="round" stroke-miterlimit="10" stroke-dasharray="none" stroke-width="0.51745403" fill="none"/><path stroke-linejoin="round" d="m398.23,689.85c0.518-9.417-3.88-17.282-9.779-17.593" stroke="#000" stroke-linecap="round" stroke-miterlimit="10" stroke-dasharray="none" stroke-width="0.51745403" fill="none"/><path stroke-linejoin="round" d="m466.06,651.56,3.829,1.552" stroke="#000" stroke-linecap="round" stroke-miterlimit="10" stroke-dasharray="none" stroke-width="0.51745403" fill="none"/><path stroke-linejoin="round" d="m472.33,654.09,3.829,1.5" stroke="#000" stroke-linecap="round" stroke-miterlimit="10" stroke-dasharray="none" stroke-width="0.51745403" fill="none"/><path stroke-linejoin="round" d="m478.54,656.58,3.829,1.553" stroke="#000" stroke-linecap="round" stroke-miterlimit="10" stroke-dasharray="none" stroke-width="0.51745403" fill="none"/><path stroke-linejoin="round" d="m484.8,659.11,3.829,1.5" stroke="#000" stroke-linecap="round" stroke-miterlimit="10" stroke-dasharray="none" stroke-width="0.51745403" fill="none"/><path stroke-linejoin="round" d="m491.01,661.6,3.881,1.552" stroke="#000" stroke-linecap="round" stroke-miterlimit="10" stroke-dasharray="none" stroke-width="0.51745403" fill="none"/><path stroke-linejoin="round" d="m497.27,664.13,3.829,1.501" stroke="#000" stroke-linecap="round" stroke-miterlimit="10" stroke-dasharray="none" stroke-width="0.51745403" fill="none"/><path stroke-linejoin="round" d="m503.53,666.61,3.83,1.552" stroke="#000" stroke-linecap="round" stroke-miterlimit="10" stroke-dasharray="none" stroke-width="0.51745403" fill="none"/><path stroke-linejoin="round" d="m509.74,669.15,3.881,1.501" stroke="#000" stroke-linecap="round" stroke-miterlimit="10" stroke-dasharray="none" stroke-width="0.51745403" fill="none"/><path stroke-linejoin="round" d="m471.24,681.05c11.435,0,20.698-8.797,20.698-19.663" stroke="#000" stroke-linecap="round" stroke-miterlimit="10" stroke-dasharray="none" stroke-width="0.51745403" fill="none"/><path stroke-linejoin="round" d="m420.89,631.27c4.45-10.504-0.052-22.457-10.039-26.7" stroke="#000" stroke-linecap="round" stroke-miterlimit="10" stroke-dasharray="none" stroke-width="0.51745403" fill="none"/><path stroke-linejoin="round" d="m445.37,730.21,4.14,0" stroke="#fd4522" stroke-linecap="round" stroke-miterlimit="10" stroke-dasharray="none" stroke-width="0.51745403" fill="none"/><path stroke-linejoin="round" d="m452.09,730.21,4.139,0" stroke="#fd4522" stroke-linecap="round" stroke-miterlimit="10" stroke-dasharray="none" stroke-width="0.51745403" fill="none"/><path stroke-linejoin="round" d="m458.82,730.21,4.139,0" stroke="#fd4522" stroke-linecap="round" stroke-miterlimit="10" stroke-dasharray="none" stroke-width="0.51745403" fill="none"/><path stroke-linejoin="round" d="m465.55,730.21,4.139,0" stroke="#fd4522" stroke-linecap="round" stroke-miterlimit="10" stroke-dasharray="none" stroke-width="0.51745403" fill="none"/><path stroke-linejoin="round" d="m472.27,730.21,4.14,0" stroke="#fd4522" stroke-linecap="round" stroke-miterlimit="10" stroke-dasharray="none" stroke-width="0.51745403" fill="none"/><path stroke-linejoin="round" d="m479,730.21,4.14,0" stroke="#fd4522" stroke-linecap="round" stroke-miterlimit="10" stroke-dasharray="none" stroke-width="0.51745403" fill="none"/><path stroke-linejoin="round" d="m485.73,730.21,4.14,0" stroke="#fd4522" stroke-linecap="round" stroke-miterlimit="10" stroke-dasharray="none" stroke-width="0.51745403" fill="none"/><path stroke-linejoin="round" d="m492.46,730.21,4.14,0" stroke="#fd4522" stroke-linecap="round" stroke-miterlimit="10" stroke-dasharray="none" stroke-width="0.51745403" fill="none"/><path stroke-linejoin="round" d="m499.18,730.21,4.139,0" stroke="#fd4522" stroke-linecap="round" stroke-miterlimit="10" stroke-dasharray="none" stroke-width="0.51745403" fill="none"/><path stroke-linejoin="round" d="m503.84,728.14,0-4.14" stroke="#fd4522" stroke-linecap="round" stroke-miterlimit="10" stroke-dasharray="none" stroke-width="0.51745403" fill="none"/><path stroke-linejoin="round" d="m503.84,721.41,0-4.14" stroke="#fd4522" stroke-linecap="round" stroke-miterlimit="10" stroke-dasharray="none" stroke-width="0.51745403" fill="none"/><path stroke-linejoin="round" d="m503.84,714.68,0-4.14" stroke="#fd4522" stroke-linecap="round" stroke-miterlimit="10" stroke-dasharray="none" stroke-width="0.51745403" fill="none"/><path stroke-linejoin="round" d="m503.84,707.96,0-4.139" stroke="#fd4522" stroke-linecap="round" stroke-miterlimit="10" stroke-dasharray="none" stroke-width="0.51745403" fill="none"/><path stroke-linejoin="round" d="m503.84,701.23,0-4.139" stroke="#fd4522" stroke-linecap="round" stroke-miterlimit="10" stroke-dasharray="none" stroke-width="0.51745403" fill="none"/><path stroke-linejoin="round" d="m503.84,694.5,0-4.139" stroke="#fd4522" stroke-linecap="round" stroke-miterlimit="10" stroke-dasharray="none" stroke-width="0.51745403" fill="none"/><path stroke-linejoin="round" d="m501.25,690.36-4.14,0" stroke="#fd4522" stroke-linecap="round" stroke-miterlimit="10" stroke-dasharray="none" stroke-width="0.51745403" fill="none"/><path stroke-linejoin="round" d="m494.52,690.36-4.14,0" stroke="#fd4522" stroke-linecap="round" stroke-miterlimit="10" stroke-dasharray="none" stroke-width="0.51745403" fill="none"/><path stroke-linejoin="round" d="m487.8,690.36-4.14,0" stroke="#fd4522" stroke-linecap="round" stroke-miterlimit="10" stroke-dasharray="none" stroke-width="0.51745403" fill="none"/><path stroke-linejoin="round" d="m481.07,690.36-4.14,0" stroke="#fd4522" stroke-linecap="round" stroke-miterlimit="10" stroke-dasharray="none" stroke-width="0.51745403" fill="none"/><path stroke-linejoin="round" d="m474.34,690.36-4.139,0" stroke="#fd4522" stroke-linecap="round" stroke-miterlimit="10" stroke-dasharray="none" stroke-width="0.51745403" fill="none"/><path stroke-linejoin="round" d="m467.62,690.36-4.139,0" stroke="#fd4522" stroke-linecap="round" stroke-miterlimit="10" stroke-dasharray="none" stroke-width="0.51745403" fill="none"/><path stroke-linejoin="round" d="m460.89,690.36-4.14,0" stroke="#fd4522" stroke-linecap="round" stroke-miterlimit="10" stroke-dasharray="none" stroke-width="0.51745403" fill="none"/><path stroke-linejoin="round" d="m454.16,690.36-4.14,0" stroke="#fd4522" stroke-linecap="round" stroke-miterlimit="10" stroke-dasharray="none" stroke-width="0.51745403" fill="none"/><path stroke-linejoin="round" d="m447.44,690.36-2.07,0,0,2.07" stroke="#fd4522" stroke-linecap="round" stroke-miterlimit="10" stroke-dasharray="none" stroke-width="0.51745403" fill="none"/><path stroke-linejoin="round" d="m445.37,695.02,0,4.139" stroke="#fd4522" stroke-linecap="round" stroke-miterlimit="10" stroke-dasharray="none" stroke-width="0.51745403" fill="none"/><path stroke-linejoin="round" d="m445.37,701.75,0,4.139" stroke="#fd4522" stroke-linecap="round" stroke-miterlimit="10" stroke-dasharray="none" stroke-width="0.51745403" fill="none"/><path stroke-linejoin="round" d="m445.37,708.48,0,4.139" stroke="#fd4522" stroke-linecap="round" stroke-miterlimit="10" stroke-dasharray="none" stroke-width="0.51745403" fill="none"/><path stroke-linejoin="round" d="m445.37,715.2,0,4.14" stroke="#fd4522" stroke-linecap="round" stroke-miterlimit="10" stroke-dasharray="none" stroke-width="0.51745403" fill="none"/><path stroke-linejoin="round" d="m445.37,721.93,0,4.14" stroke="#fd4522" stroke-linecap="round" stroke-miterlimit="10" stroke-dasharray="none" stroke-width="0.51745403" fill="none"/><path stroke-linejoin="round" d="m445.37,728.66,0,1.552" stroke="#fd4522" stroke-linecap="round" stroke-miterlimit="10" stroke-dasharray="none" stroke-width="0.51745403" fill="none"/><path d="m464.98,648.24-4.553,0.828,10.97,62.25,4.605-0.777-11.022-62.301" fill-rule="nonzero" fill="#FFF"/><path stroke-linejoin="round" d="m464.98,648.24-4.553,0.828,10.97,62.25,4.605-0.777-11.022-62.301z" stroke="#000" stroke-linecap="round" stroke-miterlimit="10" stroke-dasharray="none" stroke-width="0.51745403" fill="none"/><path d="m458.61,646.69c-1.811,1.863-1.811,4.761,0,6.623,1.863,1.811,4.76,1.811,6.623,0,1.811-1.862,1.811-4.76,0-6.623-1.863-1.811-4.76-1.811-6.623,0" fill-rule="nonzero" fill="#FFF"/><path stroke-linejoin="round" d="m458.61,646.69c-1.811,1.863-1.811,4.761,0,6.623,1.863,1.811,4.76,1.811,6.623,0,1.811-1.862,1.811-4.76,0-6.623-1.863-1.811-4.76-1.811-6.623,0z" stroke="#000" stroke-linecap="round" stroke-miterlimit="10" stroke-dasharray="none" stroke-width="0.51745403" fill="none"/><text style="letter-spacing:0px;word-spacing:0px;" font-weight="normal" xml:space="preserve" transform="scale(1,-1)" font-stretch="normal" line-height="125%" font-size="32px" font-variant="normal" y="-605.15625" x="490" font-family="Arial" font-style="normal" fill="#000000"><tspan font-size="6.4000001px" y="-605.15625" x="490">x<tspan style="baseline-shift:sub;" font-size="4.1600585px">1</tspan></tspan></text>
<text style="letter-spacing:0px;word-spacing:0px;" font-weight="normal" xml:space="preserve" transform="scale(1,-1)" font-stretch="normal" line-height="125%" font-size="32px" font-variant="normal" y="-734.29315" x="358.53912" font-family="Arial" font-style="normal" fill="#000000"><tspan font-size="6.4000001px" y="-734.29315" x="358.53912">x<tspan style="baseline-shift:sub;" font-size="52.00042725%">2</tspan></tspan></text>
<text style="letter-spacing:0px;word-spacing:0px;" font-weight="normal" xml:space="preserve" transform="scale(1,-1)" font-stretch="normal" line-height="125%" font-size="32px" font-variant="normal" y="-697.10565" x="382.07013" font-family="Arial" font-style="normal" fill="#000000"><tspan font-size="6.4000001px" y="-697.10565" x="382.07013">q<tspan style="baseline-shift:sub;" font-size="52.00042725%">1</tspan></tspan></text>
<text style="letter-spacing:0px;word-spacing:0px;" font-weight="normal" xml:space="preserve" transform="scale(1,-1)" font-stretch="normal" line-height="125%" font-size="32px" font-variant="normal" y="-603.35565" x="417.22638" font-family="Arial" font-style="normal" fill="#000000"><tspan font-size="6.4000001px" y="-603.35565" x="417.22638">q<tspan style="baseline-shift:sub;" font-size="52.00042725%">2</tspan></tspan></text>
<text style="letter-spacing:0px;word-spacing:0px;" font-weight="normal" xml:space="preserve" transform="scale(1,-1)" font-stretch="normal" line-height="125%" font-size="32px" font-variant="normal" y="-665.23065" x="475.03888" font-family="Arial" font-style="normal" fill="#000000"><tspan font-size="6.4000001px" y="-665.23065" x="475.03888">q<tspan style="baseline-shift:sub;" font-size="52.00042725%">3</tspan></tspan></text>
<text style="letter-spacing:0px;word-spacing:0px;" font-weight="normal" xml:space="preserve" transform="scale(1,-1)" font-stretch="normal" line-height="125%" font-size="32px" font-variant="normal" y="-712.5744" x="471.82037" font-family="Arial" font-style="normal" fill="#000000"><tspan font-weight="bold" font-size="8px" font-style="normal" font-stretch="normal" font-variant="normal" y="-712.5744" x="471.82037" font-family="STIXGeneral">x</tspan></text>
</g></svg>
