<?xml version="1.0" encoding="UTF-8" standalone="no"?>
<!-- Created with Inkscape (http://www.inkscape.org/) -->
<svg xmlns:rdf="http://www.w3.org/1999/02/22-rdf-syntax-ns#" xmlns="http://www.w3.org/2000/svg" xml:space="preserve" height="100%" width="100%" version="1.1" xmlns:cc="http://creativecommons.org/ns#" xmlns:dc="http://purl.org/dc/elements/1.1/" viewBox="0 0 425.06 183.15"><metadata><rdf:RDF><cc:Work rdf:about=""><dc:format>image/svg+xml</dc:format><dc:type rdf:resource="http://purl.org/dc/dcmitype/StillImage"/><dc:title/></cc:Work></rdf:RDF></metadata><path stroke-linejoin="miter" d="m276.61,37.57,0,40.56" stroke="#00F" stroke-linecap="butt" stroke-miterlimit="10" stroke-dasharray="none" stroke-width="1.38926256" fill="none"/><path d="m276.61,79.932c-0.87875-2.145-2.3775-4.805-3.9638-6.455l3.9638,1.2988,3.9638-1.2988c-1.5862,1.65-3.085,4.31-3.9638,6.455" fill-rule="nonzero" fill="#00F"/><path stroke-linejoin="miter" d="m276.61,101.44,0,9.6162" stroke="#00F" stroke-linecap="butt" stroke-miterlimit="10" stroke-dasharray="none" stroke-width="1.38926256" fill="none"/><path d="m276.61,114.79c-0.87875-2.1438-2.3775-4.805-3.9638-6.4538l3.9638,1.2988,3.9638-1.2988c-1.5862,1.6488-3.085,4.31-3.9638,6.4538" fill-rule="nonzero" fill="#00F"/><path stroke-linejoin="miter" d="m294.77,26.87,25.556,0" stroke="#000" stroke-linecap="butt" stroke-miterlimit="10" stroke-dasharray="none" stroke-width="1.04194629" fill="none"/><path d="m324.1,26.87c-1.775,0.65875-3.9775,1.7825-5.3425,2.9725l1.075-2.9725-1.075-2.9725c1.365,1.19,3.5675,2.315,5.3425,2.9725" fill-rule="nonzero" fill="#000"/><path stroke-linejoin="miter" d="m341.17,69.357,0,7.1062" stroke="#0F0" stroke-linecap="butt" stroke-miterlimit="10" stroke-dasharray="none" stroke-width="1.38926256" fill="none"/><path d="m341.17,79.37c-0.87625-2.1438-2.3762-4.805-3.9625-6.4538l3.9625,1.2988,3.965-1.2988c-1.5875,1.6488-3.0862,4.31-3.965,6.4538" fill-rule="nonzero" fill="#0F0"/><path stroke-linejoin="miter" d="m341.17,79.37c-0.87625-2.1438-2.3762-4.805-3.9625-6.4538l3.9625,1.2988,3.965-1.2988c-1.5875,1.6488-3.0862,4.31-3.965,6.4538z" stroke="#0F0" stroke-linecap="butt" stroke-miterlimit="4" stroke-dasharray="none" stroke-width="0.69463128" fill="none"/><path stroke-linejoin="miter" d="m341.17,36.095,0,9.55" stroke="#0F0" stroke-linecap="butt" stroke-miterlimit="10" stroke-dasharray="none" stroke-width="1.38926256" fill="none"/><path d="m338.56,45.645c0,1.4425,1.17,2.6112,2.6112,2.6112,1.4425,0,2.6125-1.1688,2.6125-2.6112,0-1.4425-1.17-2.6112-2.6125-2.6112-1.4412,0-2.6112,1.1688-2.6112,2.6112" fill-rule="nonzero" fill="#0F0"/><path stroke-linejoin="miter" d="m297.58,90.882,26.21,0" stroke="#0F0" stroke-linecap="butt" stroke-miterlimit="10" stroke-dasharray="none" stroke-width="1.38926256" fill="none"/><path d="m295.46,90.882c2.2325-0.87875,5.0038-2.3775,6.72-3.9638l-1.3525,3.9638,1.3525,3.9625c-1.7162-1.5862-4.4875-3.0862-6.72-3.9625" fill-rule="nonzero" fill="#0F0"/><path d="m190.2,90.295c0,6.3625-5.1512,11.529-11.499,11.529-6.3462,0-11.498-5.1662-11.498-11.529,0-6.3638,5.1512-11.529,11.498-11.529,6.3475,0,11.499,5.165,11.499,11.529" fill-rule="evenodd" fill="#FFF"/><path stroke-linejoin="miter" d="m190.2,90.295c0,6.3625-5.1512,11.529-11.499,11.529-6.3462,0-11.498-5.1662-11.498-11.529,0-6.3638,5.1512-11.529,11.498-11.529,6.3475,0,11.499,5.165,11.499,11.529z" stroke="#0F0" stroke-linecap="butt" stroke-miterlimit="10" stroke-dasharray="none" stroke-width="0.69463128" fill="none"/><path d="m190.2,90.295c0,6.3625-5.1512,11.529-11.499,11.529-6.3462,0-11.498-5.1662-11.498-11.529,0-6.3638,5.1512-11.529,11.498-11.529,6.3475,0,11.499,5.165,11.499,11.529" fill-rule="nonzero" fill="#94ff7f"/><path stroke-linejoin="miter" d="m190.2,90.295c0,6.3625-5.1512,11.529-11.499,11.529-6.3462,0-11.498-5.1662-11.498-11.529,0-6.3638,5.1512-11.529,11.498-11.529,6.3475,0,11.499,5.165,11.499,11.529z" stroke="#0F0" stroke-linecap="butt" stroke-miterlimit="10" stroke-dasharray="none" stroke-width="1.0249275" fill="none"/><path stroke-linejoin="miter" d="m127.05,12.52c7.3625,0.65375,18.095,3.4525,23.708,6.0438,5.6138,2.5938,21.266,12.25,26.709,16.672,5.445,4.4238,15.312,14.461,19.055,18.885,3.7425,4.4225,8.6775,13.44,10.206,17.182,1.5338,3.7425,3.5738,10.039,3.9138,14.631,0.34125,4.5938,0.34125,8.5062-1.02,13.78-1.36,5.2738-4.0412,8.5912-6.6338,10.378-2.6788,1.8438-4.085,1.8725-8.1688,2.7225-4.0825,0.85125-12.248-1.1912-17.692-2.5525-5.4438-1.36-18.459-6.295-23.818-9.1862-5.2212-2.8188-11.738-7.4862-11.738-7.4862s0.42375,6.38-0.0863,9.7825c-0.49875,3.3338-0.9825,5.98-2.8062,8.7625-1.7875,2.7225-5.105,3.7412-8.6775,4.5925-3.5712,0.85125-8.1662,1.0212-11.569,0.17-3.4025-0.85-8.3362-5.2738-8.3362-5.2738s-0.9425,4.6275-2.6362,6.805c-1.7875,2.2962-3.7438,3.1488-6.55,3.8288-2.7488,0.665-5.53,1.275-9.1875-0.085-3.605-1.3425-7.3162-3.5738-11.058-6.2962-3.7425-2.7212-8.3362-7.825-14.971-12.078-6.635-4.2538-11.569-7.8262-14.631-9.0175-3.0625-1.1912-14.631-5.7838-18.885-7.485-4.2525-1.7012-6.4638-2.7225-6.4638-2.7225s0.51-2.8925,2.0412-5.2738c1.5312-2.3825,3.5725-4.0838,3.5725-4.0838l12.59,6.465s7.485-3.0625,10.548-2.8912c3.0625,0.16875,7.6562,0,12.249,1.3612,4.5938,1.36,11.569,3.9125,13.271,5.2725,1.7,1.3612,2.04,4.7638,3.4012,7.8275,1.335,3.0012,2.8925,5.1025,2.8925,5.1025s1.8725-0.51,3.0625-1.36c1.19-0.85125-1.0212-2.7225-1.3612-4.765-1.0212-2.2112-2.2075-2.925-1.5312-7.995,0.68125-5.1038,2.8925-9.0175,5.445-11.059,2.55-2.0412,13.269-2.2112,13.269-2.2112s-15.31-8.1662-17.862-10.038c-2.5525-1.8712-7.6562-6.465-8.8462-7.4862-1.1912-1.02-3.2338-5.6138-3.0625-8.3362,0.16875-2.7212,2.3812-10.038,4.9325-13.78,2.45-3.5925,9.8675-10.548,13.781-12.76,3.9125-2.2112,10.888-5.1875,14.801-5.7838,3.9138-0.59625,10.889-0.9025,18.144-0.26z" stroke="#000" stroke-linecap="butt" stroke-miterlimit="10" stroke-dasharray="none" stroke-width="1.11710501" fill="none"/><path d="m191.26,67.395c0,2.6375-2.1438,4.7788-4.7812,4.7788-2.6375,0-4.78-2.1412-4.78-4.7788,0-2.6388,2.1425-4.7788,4.78-4.7788s4.7812,2.14,4.7812,4.7788" fill-rule="evenodd" fill="#888"/><path d="m191.26,67.382c0,2.6388-2.1438,4.78-4.7812,4.78-2.6375,0-4.78-2.1412-4.78-4.78,0-2.6375,2.1425-4.7775,4.78-4.7775s4.7812,2.14,4.7812,4.7775" fill-rule="nonzero" fill="#94ff7f"/><path stroke-linejoin="miter" d="m191.26,67.382c0,2.6388-2.1438,4.78-4.7812,4.78-2.6375,0-4.78-2.1412-4.78-4.78,0-2.6375,2.1425-4.7775,4.78-4.7775s4.7812,2.14,4.7812,4.7775z" stroke="#0F0" stroke-linecap="butt" stroke-miterlimit="10" stroke-dasharray="none" stroke-width="1.080845" fill="none"/><path d="m135.27,96.32c0,2.0662-3.43,3.7425-7.6562,3.7425s-7.6562-1.6762-7.6562-3.7425c0-2.0662,3.43-3.7425,7.6562-3.7425s7.6562,1.6762,7.6562,3.7425" fill-rule="evenodd" fill="#FFF"/><path stroke-linejoin="miter" d="m54.321,87.657c-0.215,1.2025-4.2888,1.485-9.0975,0.63-4.8075-0.855-8.5362-2.5238-8.3225-3.7262,0.2125-1.2012,4.2888-1.4838,9.0962-0.62875,4.8075,0.85375,8.5375,2.5238,8.3238,3.725z" stroke="#00F" stroke-linecap="butt" stroke-miterlimit="10" stroke-dasharray="none" stroke-width="1.11710501" fill="none"/><path stroke-linejoin="miter" d="m134.26,44.582c1.6325,3.3825,2.3038,6.4425,1.5012,6.83-0.80375,0.38875-2.7812-2.0425-4.4138-5.4262-1.6325-3.3825-2.305-6.4438-1.5012-6.8312,0.8025-0.3875,2.78,2.0438,4.4138,5.4275z" stroke="#000" stroke-linecap="butt" stroke-miterlimit="10" stroke-dasharray="none" stroke-width="1.11710501" fill="none"/><path stroke-linejoin="miter" d="m58.208,45.445s6.9762-9.1862,8.8462-10.548c1.8725-1.3612,4.0838-2.0412,5.4438-0.85,1.3625,1.19,1.5325,4.2525,0.68125,5.4438-0.85,1.1912-3.2325,4.4238-5.2738,5.6138-2.0412,1.1912-7.485,3.2325-7.485,3.2325l8.165,0.17125c1.8725,0.16875,4.0838,0.68,4.7638,1.7,0.68125,1.0212,0.68125,2.2125-1.1912,3.2325-1.87,1.0212-4.9325-0.51-6.9738-0.68-2.0425-0.17-5.105-0.68125-5.105-0.68125s2.3825,4.0838,3.9125,4.7638c1.5312,0.68125,3.9138,1.3612,6.125,2.0425,2.2125,0.68,5.1038,0.68,6.635,2.8925,1.5312,2.2112,2.3812,4.7625,1.7025,6.465-0.68125,1.7-1.8725,2.0412-4.5938,0.50875-2.7225-1.5312-2.0425-2.5512-5.615-4.5925-3.5725-2.0425-5.955-3.2325-8.1662-2.8925s0.34125,2.0412,3.0625,4.0825c2.7225,2.0425,8.8475,4.5938,9.6988,6.8062,0.84875,2.21-3.2338,3.7425-5.105,3.4012-1.8712-0.34-3.7438-2.7212-5.9538-5.6138-2.2125-2.8925-5.955-9.5262-5.955-9.5262s2.3812,10.036,0.85,13.61c-1.5312,3.5725-6.805,5.7838-10.549,3.4025-3.7412-2.3825,3.4038-16.674,3.4038-16.674s-1.7012-1.19-3.2325,0c-1.5312,1.1925-6.2938,9.3575-10.038,8.6775-3.7438-0.68125-4.5938-3.9125-2.3812-6.975,2.2112-3.0625,13.609-4.4238,13.609-4.4238s-18.032,0.34125-18.714-0.68c-0.68-1.0212,0.51125-4.2538,1.7012-4.7638,1.1912-0.51125,17.864,3.0625,17.864,3.0625s-14.631-6.125-15.991-7.6562c-1.3625-1.5312-1.8725-4.4238-0.68125-5.4438,1.1912-1.0212,6.805,2.3812,8.5062,3.5725,1.7012,1.1912,7.315,5.785,11.739,5.4438,4.4238-0.34,1.1912-1.1912,1.1912-1.1912s-12.249-7.655-13.44-9.8675c-1.1912-2.2112-0.68125-5.9538,1.7012-6.805,2.3812-0.85,7.145,4.0838,8.8462,7.1462,1.7012,3.0625,2.2125,5.7838,4.0838,5.7838,1.8712,0-1.02-8.6762-1.8712-11.058-0.85125-2.3825-0.68125-7.4862,1.19-7.9962,1.8725-0.51125,4.7638,0.34,4.7638,2.5512,0,2.2125-0.17,15.311-0.17,15.311z" stroke="#000" stroke-linecap="butt" stroke-miterlimit="10" stroke-dasharray="none" stroke-width="1.11710501" fill="none"/><path stroke-linejoin="miter" d="m106.52,19.757s-4.255,6.635-5.955,9.5275c-1.7012,2.8925-5.2738,10.378-5.2738,10.378" stroke="#00F" stroke-linecap="butt" stroke-miterlimit="10" stroke-dasharray="none" stroke-width="2.34583759" fill="none"/><path d="m97.571,39.057-3.7038,3.345,0.655-4.9488c0.5525,1.1362,1.7862,1.78,3.0488,1.6038" fill-rule="evenodd" fill="#00F"/><path stroke-linejoin="miter" d="m98.871,52.082c6.975,4.5938,11.739,10.379,11.228,17.354-0.51125,6.975-4.0825,17.352-7.485,21.776-3.4025,4.4238-10.549,11.909-16.844,10.208-6.2938-1.7012-10.376-2.5512-14.8-4.5938-4.4238-2.0412-14.291-7.485-14.291-7.485" stroke="#00F" stroke-linecap="butt" stroke-miterlimit="10" stroke-dasharray="none" stroke-width="2.23413754" fill="none"/><path d="m57.283,91.495-3.2312-3.4862,4.72,0.5625c-1.075,0.54-1.6725,1.7225-1.4888,2.9238" fill-rule="evenodd" fill="#00F"/><path stroke-linejoin="miter" d="m36.946,84.232s-5.9562-4.2538-10.039-4.4238c-4.0825-0.17-7.145,3.0625-8.3362,5.785-1.19,2.7212-2.3812,5.955-2.3812,5.955" stroke="#00F" stroke-linecap="butt" stroke-miterlimit="10" stroke-dasharray="none" stroke-width="2.23413754" fill="none"/><path d="m18.283,90.782-3.2162,3.5,0.18125-4.75c0.625,1.0275,1.8525,1.5288,3.035,1.25" fill-rule="evenodd" fill="#00F"/><path stroke-linejoin="miter" d="m123.87,73.007s1.785-17.694,1.36-25.859c-0.425-8.1775-6.805-23.989-6.805-23.989" stroke="#000" stroke-linecap="butt" stroke-miterlimit="10" stroke-dasharray="none" stroke-width="0.69463128" fill="none"/><path d="m117.16,25.007,0.62125-4.7112,2.5788,3.9912c-1.1012-0.4825-2.3938-0.1875-3.2,0.72" fill-rule="evenodd" fill="#000"/><path stroke-linejoin="miter" d="m126.08,73.695s2.925-4.83,4.9325-8.8475c2.0425-4.0838,3.2325-10.208,3.2325-10.208" stroke="#000" stroke-linecap="butt" stroke-miterlimit="10" stroke-dasharray="none" stroke-width="0.69463128" fill="none"/><path d="m132.18,55.495,3.0825-3.62-0.002,4.7538c-0.66375-1.0038-1.9088-1.4575-3.08-1.1338" fill-rule="evenodd" fill="#000"/><path stroke-linejoin="miter" d="m129.83,39.157s-1.8712-7.6562-2.8925-10.038c-1.0825-2.5262-3.5725-6.805-3.5725-6.805" stroke="#000" stroke-linecap="butt" stroke-miterlimit="10" stroke-dasharray="none" stroke-width="0.69463128" fill="none"/><path d="m122.57,24.407-0.52625-4.7238,3.4625,3.2562c-1.1862-0.20375-2.3688,0.3925-2.9362,1.4675" fill-rule="evenodd" fill="#000"/><path stroke-linejoin="miter" d="m124.72,18.232s13.185,7.0725,19.224,12.25c5.955,5.1038,17.692,17.948,22.116,26.029,4.4625,8.155,5.785,11.229,6.4662,13.1,0.68,1.8712,2.0412,6.635,2.0412,6.635" stroke="#000" stroke-linecap="butt" stroke-miterlimit="10" stroke-dasharray="none" stroke-width="0.69463128" fill="none"/><path d="m175.68,74.295-0.20375,4.75-2.9212-3.75c1.14,0.38375,2.4-0.02375,3.125-1" fill-rule="evenodd" fill="#000"/><path stroke-linejoin="miter" d="m182.23,64.507s-26.541-1.6925-35.558-2.2125c-8.8462-0.50875-21.946-3.7425-27.22-5.2738-5.2738-1.53-17.524-5.9538-17.524-5.9538" stroke="#0F0" stroke-linecap="butt" stroke-miterlimit="10" stroke-dasharray="none" stroke-width="2.08388758" fill="none"/><path d="m103.81,53.757-4.6775-3.565,5.9625-0.20125c-1.23,0.84375-1.7425,2.3662-1.285,3.7662" fill-rule="evenodd" fill="#0F0"/><path stroke-linejoin="miter" d="m131.36,92.907s14.121-12.25,20.076-15.481c5.955-3.2338,15.652-6.9762,18.715-7.6562,3.0612-0.68,8.845-1.8712,8.845-1.8712" stroke="#0F0" stroke-linecap="butt" stroke-miterlimit="10" stroke-dasharray="none" stroke-width="2.08388758" fill="none"/><path d="m177.17,66.607,4.705,0.67-4.0188,2.5388c0.49375-1.0962,0.2125-2.3925-0.68625-3.2088" fill-rule="evenodd" fill="#0F0"/><path stroke-linejoin="miter" d="m167.6,85.932s-8.5562-1.3025-15.31,0.55125c-6.3175,1.7338-6.6562,1.4625-15.801,6.765" stroke="#0F0" stroke-linecap="butt" stroke-miterlimit="10" stroke-dasharray="none" stroke-width="2.08388758" fill="none"/><path stroke-linejoin="miter" d="m99.646,49.082c0,3.9025-3.2638,7.065-7.29,7.065-4.025,0-7.2888-3.1625-7.2888-7.065,0-3.9012,3.2638-7.065,7.2888-7.065,4.0262,0,7.29,3.1638,7.29,7.065z" stroke="#00F" stroke-linecap="butt" stroke-miterlimit="10" stroke-dasharray="none" stroke-width="1.11710501" fill="none"/><path d="m135.98,96.77c0,2.1812-4.0425,3.9488-9.0288,3.9488-4.985,0-9.0262-1.7675-9.0262-3.9488,0-2.1812,4.0412-3.95,9.0262-3.95,4.9862,0,9.0288,1.7688,9.0288,3.95" fill-rule="nonzero" fill="#94ff7f"/><path stroke-linejoin="miter" d="m135.98,96.77c0,2.1812-4.0425,3.9488-9.0288,3.9488-4.985,0-9.0262-1.7675-9.0262-3.9488,0-2.1812,4.0412-3.95,9.0262-3.95,4.9862,0,9.0288,1.7688,9.0288,3.95z" stroke="#0F0" stroke-linecap="butt" stroke-miterlimit="10" stroke-dasharray="none" stroke-width="1.11710501" fill="none"/><path stroke-linejoin="miter" d="m125.76,18.345c0,1.4012-4.6738,2.5388-10.438,2.5388-5.765,0-10.438-1.1375-10.438-2.5388,0-1.4025,4.6725-2.5388,10.438-2.5388,5.7638,0,10.438,1.1362,10.438,2.5388z" stroke="#00F" stroke-linecap="butt" stroke-miterlimit="10" stroke-dasharray="none" stroke-width="1.11710501" fill="none"/><path stroke-linejoin="miter" d="m129.32,77.67c0,2.535-2.2938,4.5912-5.1225,4.5912-2.8288,0-5.1225-2.0562-5.1225-4.5912,0-2.5375,2.2938-4.5925,5.1225-4.5925,2.8288,0,5.1225,2.055,5.1225,4.5925z" stroke="#000" stroke-linecap="butt" stroke-miterlimit="10" stroke-dasharray="none" stroke-width="1.11710501" fill="none"/><path d="m140.93,92.595c0,1.4112-1.105,2.5538-2.4675,2.5538-1.36,0-2.4638-1.1425-2.4638-2.5538,0-1.4088,1.1038-2.5525,2.4638-2.5525,1.3625,0,2.4675,1.1438,2.4675,2.5525" fill-rule="evenodd" fill="#0F0"/><path stroke-linejoin="miter" d="m140.93,92.595c0,1.4112-1.105,2.5538-2.4675,2.5538-1.36,0-2.4638-1.1425-2.4638-2.5538,0-1.4088,1.1038-2.5525,2.4638-2.5525,1.3625,0,2.4675,1.1438,2.4675,2.5525z" stroke="#0F0" stroke-linecap="butt" stroke-miterlimit="50" stroke-dasharray="none" stroke-width="0.69463128" fill="none"/><text font-size="40px" line-height="125%" font-family="Arial" style="letter-spacing:0px;word-spacing:0px;" font-style="normal" font-stretch="normal" xml:space="preserve" font-variant="normal" y="9.5522461" x="104.36694" font-weight="normal" fill="#000000"><tspan y="9.5522461" x="104.36694" font-size="9px">HVC</tspan></text>
<text font-size="40px" line-height="125%" font-family="Arial" style="letter-spacing:0px;word-spacing:0px;" font-style="normal" font-stretch="normal" xml:space="preserve" font-variant="normal" y="48.739182" x="136.94611" font-weight="normal" fill="#000000"><tspan y="48.739182" x="136.94611" font-size="9px">Nlf</tspan></text>
<text font-size="40px" line-height="125%" font-family="Arial" style="letter-spacing:0px;word-spacing:0px;" font-style="normal" font-stretch="normal" xml:space="preserve" font-variant="normal" y="60.233475" x="169.57492" font-weight="normal" fill="#000000"><tspan y="60.233475" x="169.57492" font-size="9px">LMAN</tspan></text>
<text font-size="40px" line-height="125%" font-family="Arial" style="letter-spacing:0px;word-spacing:0px;" font-style="normal" font-stretch="normal" xml:space="preserve" font-variant="normal" y="89.895988" x="113.21608" font-weight="normal" fill="#000000"><tspan y="89.895988" x="113.21608" font-size="9px">UVA</tspan></text>
<text font-size="40px" line-height="125%" font-family="Arial" style="letter-spacing:0px;word-spacing:0px;" font-style="normal" font-stretch="normal" xml:space="preserve" font-variant="normal" y="109.17661" x="117.66545" font-weight="normal" fill="#000000"><tspan y="109.17661" x="117.66545" font-size="9px">DLM</tspan></text>
<text font-size="40px" line-height="125%" font-family="Arial" style="letter-spacing:0px;word-spacing:0px;" font-style="normal" font-stretch="normal" xml:space="preserve" font-variant="normal" y="40.211235" x="78.733391" font-weight="normal" fill="#000000"><tspan y="40.211235" x="78.733391" font-size="9px">RA</tspan></text>
<text font-size="40px" line-height="125%" font-family="Arial" style="letter-spacing:0px;word-spacing:0px;" font-style="normal" font-stretch="normal" xml:space="preserve" font-variant="normal" y="104.35648" x="34.981159" font-weight="normal" fill="#000000"><tspan y="104.35648" x="34.981159" font-size="9px">nXIIts</tspan></text>
<text font-size="40px" line-height="125%" font-family="Arial" style="letter-spacing:0px;word-spacing:0px;" font-style="normal" font-stretch="normal" xml:space="preserve" font-variant="normal" y="103.6149" x="2.7231462" font-weight="normal" fill="#000000"><tspan y="103.6149" x="2.7231462" font-size="9px">syrinx</tspan></text>
<text font-size="40px" line-height="125%" font-family="Arial" style="letter-spacing:0px;word-spacing:0px;" font-style="normal" font-stretch="normal" xml:space="preserve" font-variant="normal" y="108.80582" x="174.94817" font-weight="normal" fill="#000000"><tspan y="108.80582" x="174.94817" font-size="9px">Area X</tspan></text>
<path stroke-linejoin="miter" d="m294.77,26.87c0,5.9362-8.115,10.749-18.122,10.749-10.009,0-18.122-4.8125-18.122-10.749,0-5.935,8.1138-10.748,18.122-10.748s18.122,4.8125,18.122,10.748z" stroke="#00F" stroke-linecap="butt" stroke-miterlimit="10" stroke-dasharray="none" stroke-width="1.11710501" fill="none"/><text font-size="40px" font-family="Arial" style="letter-spacing:0px;word-spacing:0px;" font-style="normal" line-height="125%" font-stretch="normal" xml:space="preserve" font-variant="normal" y="30.086647" x="266.95596" font-weight="normal" fill="#000000"><tspan y="30.086647" x="266.95596" font-size="9px">HVC</tspan></text>
<path stroke-linejoin="miter" d="m294.77,90.657c0,5.9362-8.1138,10.748-18.121,10.748-10.009,0-18.124-4.8112-18.124-10.748,0-5.9362,8.115-10.748,18.124-10.748,10.008,0,18.121,4.8112,18.121,10.748z" stroke="#00F" stroke-linecap="butt" stroke-miterlimit="10" stroke-dasharray="none" stroke-width="1.11710501" fill="none"/><text font-size="40px" font-family="Arial" style="letter-spacing:0px;word-spacing:0px;" font-style="normal" line-height="125%" font-stretch="normal" xml:space="preserve" font-variant="normal" y="93.88353" x="270.03214" font-weight="normal" fill="#000000"><tspan y="93.88353" x="270.03214" font-size="9px">RA</tspan></text>
<path stroke-linejoin="miter" d="m294.77,125.51c0,5.9362-8.115,10.748-18.121,10.748-10.009,0-18.124-4.8112-18.124-10.748,0-5.9362,8.115-10.748,18.124-10.748,10.006,0,18.121,4.8112,18.121,10.748z" stroke="#00F" stroke-linecap="butt" stroke-miterlimit="10" stroke-dasharray="none" stroke-width="1.11710501" fill="none"/><text font-size="40px" font-family="Arial" style="letter-spacing:0px;word-spacing:0px;" font-style="normal" line-height="125%" font-stretch="normal" xml:space="preserve" font-variant="normal" y="128.60204" x="264.77847" font-weight="normal" fill="#000000"><tspan y="128.60204" x="264.77847" font-size="9px">motor</tspan></text>
<path d="m358.16,26.17c0,5.5012-7.6412,9.9675-17.056,9.9675-9.4125,0-17.052-4.4662-17.052-9.9675,0-5.5025,7.64-9.9688,17.052-9.9688,9.415,0,17.056,4.4662,17.056,9.9688" fill-rule="nonzero" fill="#94ff7f"/><path stroke-linejoin="miter" d="m358.16,26.17c0,5.5012-7.6412,9.9675-17.056,9.9675-9.4125,0-17.052-4.4662-17.052-9.9675,0-5.5025,7.64-9.9688,17.052-9.9688,9.415,0,17.056,4.4662,17.056,9.9688z" stroke="#0F0" stroke-linecap="butt" stroke-miterlimit="10" stroke-dasharray="none" stroke-width="1.0249275" fill="none"/><text font-size="40px" font-family="Arial" style="letter-spacing:0px;word-spacing:0px;" font-style="normal" line-height="125%" font-stretch="normal" xml:space="preserve" font-variant="normal" y="29.337708" x="327.37613" font-weight="normal" fill="#000000"><tspan y="29.337708" x="327.37613" font-size="9px">Area X</tspan></text>
<path d="m358.16,59.282c0,5.5012-7.6425,9.9675-17.056,9.9675-9.4125,0-17.052-4.4662-17.052-9.9675,0-5.5025,7.64-9.9688,17.052-9.9688,9.4138,0,17.056,4.4662,17.056,9.9688" fill-rule="nonzero" fill="#94ff7f"/><path stroke-linejoin="miter" d="m358.16,59.282c0,5.5012-7.6425,9.9675-17.056,9.9675-9.4125,0-17.052-4.4662-17.052-9.9675,0-5.5025,7.64-9.9688,17.052-9.9688,9.4138,0,17.056,4.4662,17.056,9.9688z" stroke="#0F0" stroke-linecap="butt" stroke-miterlimit="10" stroke-dasharray="none" stroke-width="1.0249275" fill="none"/><text font-size="40px" font-family="Arial" style="letter-spacing:0px;word-spacing:0px;" font-style="normal" line-height="125%" font-stretch="normal" xml:space="preserve" font-variant="normal" y="62.500397" x="331.59708" font-weight="normal" fill="#000000"><tspan y="62.500397" x="331.59708" font-size="9px">DLM</tspan></text>
<path d="m358.16,90.182c0,5.5025-7.6412,9.9675-17.056,9.9675-9.4125,0-17.052-4.465-17.052-9.9675s7.64-9.9675,17.052-9.9675c9.415,0,17.056,4.465,17.056,9.9675" fill-rule="nonzero" fill="#94ff7f"/><path stroke-linejoin="miter" d="m358.16,90.182c0,5.5025-7.6412,9.9675-17.056,9.9675-9.4125,0-17.052-4.465-17.052-9.9675s7.64-9.9675,17.052-9.9675c9.415,0,17.056,4.465,17.056,9.9675z" stroke="#0F0" stroke-linecap="butt" stroke-miterlimit="10" stroke-dasharray="none" stroke-width="1.0249275" fill="none"/><text font-size="40px" font-family="Arial" style="letter-spacing:0px;word-spacing:0px;" font-style="normal" line-height="125%" font-stretch="normal" xml:space="preserve" font-variant="normal" y="93.409782" x="328.63513" font-weight="normal" fill="#000000"><tspan y="93.409782" x="328.63513" font-size="9px">LMAN</tspan></text>
<text font-size="40px" line-height="125%" font-family="Arial" style="letter-spacing:0px;word-spacing:0px;" font-style="normal" font-stretch="normal" xml:space="preserve" font-variant="normal" y="28.44339" x="368.36115" font-weight="normal" fill="#000000"><tspan y="28.44339" x="368.36115" font-size="9px">Basal ganglia</tspan></text>
<text font-size="40px" line-height="125%" font-family="Arial" style="letter-spacing:0px;word-spacing:0px;" font-style="normal" font-stretch="normal" xml:space="preserve" font-variant="normal" y="62.447678" x="368.80936" font-weight="normal" fill="#000000"><tspan y="62.447678" x="368.80936" font-size="9px">Thalamus</tspan></text>
<text font-size="40px" line-height="125%" font-family="Arial" style="letter-spacing:0px;word-spacing:0px;" font-style="normal" font-stretch="normal" xml:space="preserve" font-variant="normal" y="93.409782" x="368.57205" font-weight="normal" fill="#000000"><tspan y="93.409782" x="368.57205" font-size="9px">Cortex</tspan></text>
<path fill-rule="nonzero" fill="#94ff7f" d="m27.458,155.11c0,4.7112-4.1038,8.5338-9.16,8.5338s-9.1588-3.8225-9.1588-8.5338c0-4.7112,4.1025-8.5338,9.1588-8.5338,5.0562,0,9.16,3.8225,9.16,8.5338"/><path stroke-linejoin="miter" d="m27.458,155.11c0,4.7112-4.1038,8.5338-9.16,8.5338s-9.1588-3.8225-9.1588-8.5338c0-4.7112,4.1025-8.5338,9.1588-8.5338,5.0562,0,9.16,3.8225,9.16,8.5338z" stroke="#0F0" stroke-linecap="butt" stroke-miterlimit="10" stroke-dasharray="none" stroke-width="1.0249275" fill="none"/><path stroke-linejoin="miter" d="m26.833,135.62c0,4.5638-3.8188,8.2638-8.5262,8.2638-4.7088,0-8.5262-3.7-8.5262-8.2638s3.8175-8.2638,8.5262-8.2638c4.7075,0,8.5262,3.7,8.5262,8.2638z" stroke="#00F" stroke-linecap="butt" stroke-miterlimit="10" stroke-dasharray="none" stroke-width="1.11710501" fill="none"/><path stroke-linejoin="miter" d="m147.35,156.51,26.396,0" stroke="#000" stroke-linecap="butt" stroke-miterlimit="10" stroke-dasharray="none" stroke-width="1.38926256" fill="none"/><path fill-rule="nonzero" fill="#000" d="m173.75,159.12c1.4412,0,2.6112-1.1688,2.6112-2.6112,0-1.4425-1.17-2.6112-2.6112-2.6112-1.4438,0-2.6125,1.1688-2.6125,2.6112,0,1.4425,1.1688,2.6112,2.6125,2.6112"/><path stroke-linejoin="miter" d="m174.43,137.76-26.21,0" stroke="#000" stroke-linecap="butt" stroke-miterlimit="10" stroke-dasharray="none" stroke-width="1.38926256" fill="none"/><path fill-rule="nonzero" fill="#000" d="m176.56,137.76c-2.2338-0.87875-5.0038-2.3762-6.7212-3.9638l1.3538,3.9638-1.3538,3.9638c1.7175-1.5862,4.4875-3.0862,6.7212-3.9638"/><path stroke-linejoin="miter" d="m176.56,137.76c-2.2338-0.87875-5.0038-2.3762-6.7212-3.9638l1.3538,3.9638-1.3538,3.9638c1.7175-1.5862,4.4875-3.0862,6.7212-3.9638z" stroke="#000" stroke-linecap="butt" stroke-miterlimit="4" stroke-dasharray="none" stroke-width="0.69463128" fill="none"/><text style="letter-spacing:0px;word-spacing:0px;" font-family="Arial" xml:space="preserve" font-size="40px" line-height="125%" font-stretch="normal" font-variant="normal" y="138.78955" x="30.850149" font-weight="normal" font-style="normal" fill="#000000"><tspan y="138.78955" x="30.850149" font-size="9px">Premotor</tspan></text>
<text style="letter-spacing:0px;word-spacing:0px;" font-family="Arial" xml:space="preserve" font-size="40px" line-height="125%" font-stretch="normal" font-variant="normal" y="158.33229" x="31.557661" font-weight="normal" font-style="normal" fill="#000000"><tspan y="158.33229" x="31.557661" font-size="9px">Anterior forebrain pathway</tspan></text>
<text style="letter-spacing:0px;word-spacing:0px;" font-family="Arial" xml:space="preserve" font-size="40px" line-height="125%" font-stretch="normal" font-variant="normal" y="140.17314" x="183.62411" font-weight="normal" font-style="normal" fill="#000000"><tspan y="140.17314" x="183.62411" font-size="9px">Excitatory</tspan></text>
<text style="letter-spacing:0px;word-spacing:0px;" font-family="Arial" xml:space="preserve" font-size="40px" line-height="125%" font-stretch="normal" font-variant="normal" y="159.18391" x="183.4967" font-weight="normal" font-style="normal" fill="#000000"><tspan y="159.18391" x="183.4967" font-size="9px">Inhibitory</tspan></text>
<text style="letter-spacing:0px;word-spacing:0px;" font-weight="normal" xml:space="preserve" font-variant="normal" font-size="9px" line-height="110.00000238%" font-stretch="normal" font-style="normal" y="158.85713" x="277.27386" font-family="Arial" fill="#0000ff"><tspan y="158.85713" x="277.27386" style="text-anchor:middle;text-align:center;" line-height="110.00000238%">Song</tspan><tspan y="168.75716" x="277.27386" style="text-anchor:middle;text-align:center;" line-height="110.00000238%">production</tspan></text>
<text style="letter-spacing:0px;word-spacing:0px;" font-weight="normal" xml:space="preserve" font-variant="normal" font-size="9px" line-height="110.00000238%" font-stretch="normal" font-style="normal" y="158.85713" x="343.5365" font-family="Arial" fill="#00aa00"><tspan y="158.85713" x="343.5365" style="text-anchor:middle;text-align:center;" line-height="110.00000238%">Song</tspan><tspan y="168.75716" x="343.5365" style="text-anchor:middle;text-align:center;" line-height="110.00000238%">learning</tspan></text>
</svg>
