<?xml version="1.0" encoding="UTF-8" standalone="no"?>
<!-- Created with Inkscape (http://www.inkscape.org/) -->
<svg xmlns:rdf="http://www.w3.org/1999/02/22-rdf-syntax-ns#" xmlns="http://www.w3.org/2000/svg" height="100%" width="100%" version="1.1" xmlns:cc="http://creativecommons.org/ns#" xmlns:dc="http://purl.org/dc/elements/1.1/" viewBox="0 0 739.09 368.21">
 <metadata>
  <rdf:RDF>
   <cc:Work rdf:about="">
    <dc:format>image/svg+xml</dc:format>
    <dc:type rdf:resource="http://purl.org/dc/dcmitype/StillImage"/>
    <dc:title/>
   </cc:Work>
  </rdf:RDF>
 </metadata>
 <path d="m17.742,339.72c12.112-5.2435,23.434-20.377,18.898-33.419-7.9473-15.685,3.1333-27.866,7.6855-26.372,6.5475-9.9269-6.6223-19.08-14.763-17.105,5.6767-6.3958,24.323-9.7477,21.359-20.494-12.277-17.98-6.2332-24.921,1.747-27.55,8.7725-3.3353,26.726-15.791,16.842-25.199-2.862-4.6-14.236-15.08-24.125-29.06-9.889-13.99-17.573-23.8-17.079-29.24,6.981-22.8,11.838-47.518,0.766-66.623-7.462-21.125-16.698-41.019-26.073-61.652,7.936,8.3041,12.06,20.452,17.27,30.691,6.8213,17.135,15.023,34.05,18.819,52.162,0.83649,15.702-4.7121,30.916-5.1363,46.472,4.1806,17.128,16.46,30.237,27.79,43.161,8.258,7.371,18.896,19.829,9.1802,30.583-6.9377,10.014-26.348,9.01-23.974,23.371,2.6354,6.3124,4.9706,9.1352,6.8366,11.629,9.9304,9.6904-17.211,19.884-17.211,19.884s17.766,3.4298,9.5823,21.496c-7.3486,1.8701-8.6496,5.817-9.6489,11.284,6.9953,20.893,2.5417,30.51,0.3371,34.364-7.6923,12.497-31.167,15.571-19.102,11.622z" stroke-miterlimit="4" stroke-dasharray="none" stroke-width="2" fill="#000"/>
 <polygon stroke-linejoin="round" transform="matrix(2.1409008,0,0,2.1409008,571.95763,197.26814)" stroke="#111" points="6,47.699,21.989,47.699,39.389,62.75,39.389,13.769,39.389,13.769,22.235,28.606,6,28.606" stroke-width="5" fill="#111"/>
 <path d="m675,302.24c4.1298-6.6282,6.5554-14.428,6.5554-22.807,0-8.5165-2.492-16.429-6.7374-23.122" stroke="#111" stroke-linecap="round" stroke-width="10.70450401" fill="none"/>
 <path d="m689.89,241.24c7.9106,10.675,12.597,23.886,12.597,38.194,0,14.175-4.6051,27.271-12.392,37.892" stroke="#111" stroke-linecap="round" stroke-width="10.70450401" fill="none"/>
 <path d="m704.08,331.32c11.276-14.271,18.022-32.285,18.022-51.88,0-19.733-6.8338-37.855-18.238-52.169" stroke="#111" stroke-linecap="round" stroke-width="10.70450401" fill="none"/>
 <rect ry="0" height="221.04" width="230.93" y="144.18" x="307.93" fill="#000"/>
 <path d="m95.314,296.39c4.1298-6.6282,6.5554-14.428,6.5554-22.807,0-8.5165-2.492-16.429-6.7374-23.122" stroke="#111" stroke-linecap="round" stroke-width="10.70450401" fill="none"/>
 <path d="m110.21,235.39c7.9106,10.675,12.597,23.886,12.597,38.194,0,14.175-4.6051,27.271-12.392,37.892" stroke="#111" stroke-linecap="round" stroke-width="10.70450401" fill="none"/>
 <path d="m124.4,325.47c11.276-14.271,18.022-32.285,18.022-51.88,0-19.733-6.8338-37.855-18.238-52.169" stroke="#111" stroke-linecap="round" stroke-width="10.70450401" fill="none"/>
 <path d="m162.59,288.5v-17.657q0-3.0106,2.1156-5.1262t5.1261-2.1156q3.0106,0,5.1668,2.1156t2.1562,5.1262v17.657q0,14.809,10.74,25.346t25.875,10.537q15.053,0,25.753-10.537t10.7-25.346v-17.657q0-3.0106,2.1562-5.1262t5.1668-2.1156,5.1668,2.1156,2.1562,5.1262v17.657q0,18.796-12.49,32.832t-31.042,16.884v7.079h22.783q3.0106,0,5.2075,2.1156t2.1969,5.0448q0,3.0106-2.1562,5.1261-2.1562,2.1156-5.2482,2.1156h-60.212q-3.0106,0-5.1261-2.1156-2.1156-2.1156-2.1156-5.1261,0-2.9292,2.1156-5.0448t5.1261-2.1156h22.864v-6.9976q-12.286-1.6274-22.417-8.6249-10.13-6.9976-15.948-17.86-5.8178-10.863-5.8178-23.312zm24.085-0.81367v-62.327q0-11.066,7.9333-18.877,7.9333-7.8113,19.162-7.8113,11.147,0,19.04,7.8113,7.8926,7.8113,7.8926,18.877v62.327q0,11.066-7.8926,18.877-7.8926,7.8113-19.04,7.8113-11.229,0-19.162-7.8113-7.9333-7.8113-7.9333-18.877z"/>
 <text style="letter-spacing:0px;word-spacing:0px;" font-weight="normal" xml:space="preserve" font-variant="normal" font-size="40px" font-stretch="normal" font-style="normal" y="62.808575" x="92.283676" font-family="Arial" line-height="125%" fill="#000000"><tspan y="62.808575" x="92.283676" font-style="italic">hello</tspan></text>
 <text style="letter-spacing:0px;word-spacing:0px;" font-weight="normal" xml:space="preserve" font-variant="normal" font-size="40px" font-stretch="normal" font-style="normal" y="171.94958" x="99.960342" font-family="Arial" line-height="125%" fill="#000000"><tspan y="171.94958" x="99.960342">grbarble</tspan></text>
 <text font-size="40px" line-height="125%" font-family="Arial" style="letter-spacing:0px;word-spacing:0px;" font-style="normal" font-stretch="normal" xml:space="preserve" font-variant="normal" y="132.87543" x="603.35809" font-weight="normal" fill="#000000"><tspan y="132.87543" x="603.35809">hello</tspan></text>
 <text font-size="40px" line-height="125%" font-family="Arial" style="letter-spacing:0px;word-spacing:0px;" font-style="normal" font-stretch="normal" xml:space="preserve" font-variant="normal" y="183.00644" x="572.94794" font-weight="normal" fill="#000000"><tspan y="183.00644" x="572.94794">grbarble</tspan></text>
 <text style="letter-spacing:0px;word-spacing:0px;" font-weight="normal" xml:space="preserve" font-variant="normal" font-size="40px" font-stretch="normal" font-style="normal" y="118.77248" x="139.56233" font-family="Arial" line-height="125%" fill="#000000"><tspan font-weight="normal" font-style="normal" font-stretch="normal" font-variant="normal" y="118.77248" x="139.56233" font-family="STIXGeneral">hello</tspan></text>
 <text font-size="40px" line-height="125%" font-family="Arial" style="letter-spacing:0px;word-spacing:0px;" font-style="normal" font-stretch="normal" xml:space="preserve" font-variant="normal" y="82.744415" x="603.35809" font-weight="normal" fill="#000000"><tspan y="82.744415" x="603.35809">hello</tspan></text>
</svg>
