<?xml version="1.0" encoding="UTF-8" standalone="no"?>
<!-- Created with Inkscape (http://www.inkscape.org/) -->
<svg xmlns:rdf="http://www.w3.org/1999/02/22-rdf-syntax-ns#" xmlns="http://www.w3.org/2000/svg" height="100%" width="100%" version="1.1" xmlns:cc="http://creativecommons.org/ns#" xmlns:dc="http://purl.org/dc/elements/1.1/" viewBox="0 0 871.19562 604.61047">
 <defs></defs>
 <metadata>
  <rdf:RDF>
   <cc:Work rdf:about="">
    <dc:format>image/svg+xml</dc:format>
    <dc:type rdf:resource="http://purl.org/dc/dcmitype/StillImage"/>
    <dc:title/>
   </cc:Work>
  </rdf:RDF>
 </metadata>
 <rect ry="17.173" height="301.03" width="334.36" y="91.48" x="533.84" fill="#decbe4"/>
 <rect ry="17.173" height="510.13" width="334.36" y="91.48" x="2.9979" fill="#decbe4"/>
 <text font-size="40px" font-weight="normal" xml:space="preserve" style="word-spacing:0px;letter-spacing:0px;" line-height="125%" font-stretch="normal" font-variant="normal" y="23.384766" x="336.07339" font-family="Arial" font-style="normal" fill="#000000"><tspan y="23.384766" x="336.07339" font-size="28px">Audio waveform</tspan></text>
 <text font-size="40px" font-weight="normal" xml:space="preserve" style="word-spacing:0px;letter-spacing:0px;" line-height="125%" font-stretch="normal" font-variant="normal" y="132.89964" x="214.12187" font-family="Arial" font-style="normal" fill="#000000"><tspan y="132.89964" x="214.12187"/></text>
 <path style="baseline-shift:baseline;block-progression:tb;color:#000000;direction:ltr;text-indent:0;text-align:start;enable-background:accumulate;text-transform:none;" fill="#000" d="m164.88,164.72,0,41.406,2.5,0,0-41.406-2.5,0z"/>
 <path stroke-linejoin="round" d="m172.19,193.06-6.0265,16.389-6.0266-16.389c3.5582,2.6182,8.4262,2.6031,12.053,0z" fill-rule="evenodd" stroke-width="0.625"/>
 <path fill-rule="nonzero" style="baseline-shift:baseline;block-progression:tb;color:#000000;direction:ltr;text-indent:0;text-align:start;enable-background:accumulate;text-transform:none;" fill="#000" d="m302.88,144.19-1.4688,2.0312,249.31,180,1.4375-2.0312-249.28-180z"/>
 <path stroke-linejoin="round" d="m544.38,312.64,9.7593,14.48-16.815-4.708c4.2057-1.352,7.0432-5.3077,7.0559-9.772z" fill-rule="evenodd" stroke-width="0.625"/>
 <rect ry="14.142" height="60.609" width="212.13" y="108.66" x="98.297" fill="#FFF"/>
 <text style="word-spacing:0px;letter-spacing:0px;" font-weight="normal" xml:space="preserve" font-size="40px" font-style="normal" font-stretch="normal" font-variant="normal" y="148.98889" x="129.42061" font-family="Arial" line-height="125%" fill="#000000"><tspan y="148.98889" x="129.42061" font-size="28px">Audio frame</tspan></text>
 <path style="baseline-shift:baseline;block-progression:tb;color:#000000;direction:ltr;text-indent:0;text-align:start;enable-background:accumulate;text-transform:none;" fill="#000" d="m164.88,264.69,0,41.438,2.5,0,0-41.438-2.5,0z"/>
 <path stroke-linejoin="round" d="m172.19,293.04-6.0265,16.389-6.0266-16.389c3.5582,2.6182,8.4262,2.6031,12.053,0z" fill-rule="evenodd" stroke-width="0.625"/>
 <path style="baseline-shift:baseline;block-progression:tb;color:#000000;direction:ltr;text-indent:0;text-align:start;enable-background:accumulate;text-transform:none;" fill="#000" d="m239.16,173.5,0,41.406,2.5,0,0-41.406-2.5,0z"/>
 <path stroke-linejoin="round" d="m234.35,186.57,6.0265-16.389,6.0266,16.389c-3.5582-2.6182-8.4262-2.6031-12.053,0z" fill-rule="evenodd" stroke-width="0.625"/>
 <rect ry="14.142" height="60.609" width="212.13" y="211.19" x="98.294" fill="#FFF"/>
 <text style="word-spacing:0px;letter-spacing:0px;" font-weight="normal" xml:space="preserve" font-size="40px" font-style="normal" font-stretch="normal" font-variant="normal" y="251.51256" x="171.61885" font-family="Arial" line-height="125%" fill="#000000"><tspan y="251.51256" x="171.61885" font-size="28px">State</tspan></text>
 <path style="baseline-shift:baseline;block-progression:tb;color:#000000;direction:ltr;text-indent:0;text-align:start;enable-background:accumulate;text-transform:none;" fill="#000" d="m164.88,367.16,0,41.406,2.5,0,0-41.406-2.5,0z"/>
 <path stroke-linejoin="round" d="m172.19,395.5-6.0265,16.389-6.0266-16.389c3.5582,2.6182,8.4262,2.6031,12.053,0z" fill-rule="evenodd" stroke-width="0.625"/>
 <path style="baseline-shift:baseline;block-progression:tb;color:#000000;direction:ltr;text-indent:0;text-align:start;enable-background:accumulate;text-transform:none;" fill="#000" d="m239.16,277.94,0,41.406,2.5,0,0-41.406-2.5,0z"/>
 <path stroke-linejoin="round" d="m234.35,291,6.0265-16.389,6.0266,16.389c-3.5582-2.6182-8.4262-2.6031-12.053,0z" fill-rule="evenodd" stroke-width="0.625"/>
 <path fill-rule="nonzero" style="baseline-shift:baseline;block-progression:tb;color:#000000;direction:ltr;text-indent:0;text-align:start;enable-background:accumulate;text-transform:none;" fill="#000" d="m302.16,342.81,0,2.5,249.28,0,0-2.5-249.28,0z"/>
 <path stroke-linejoin="round" d="m538.36,338,16.389,6.0265-16.389,6.0266c2.6182-3.5582,2.6031-8.4262,0-12.053z" fill-rule="evenodd" stroke-width="0.625"/>
 <rect ry="14.142" height="60.609" width="212.13" y="313.72" x="98.293" fill="#FFF"/>
 <text style="word-spacing:0px;letter-spacing:0px;" font-weight="normal" xml:space="preserve" font-size="40px" font-style="normal" font-stretch="normal" font-variant="normal" y="353.879" x="143.87862" font-family="Arial" line-height="125%" fill="#000000"><tspan y="353.879" x="143.87862" font-size="28px">Phoneme</tspan></text>
 <path style="baseline-shift:baseline;block-progression:tb;color:#000000;direction:ltr;text-indent:0;text-align:start;enable-background:accumulate;text-transform:none;" fill="#000" d="m164.88,471.59,0,41.406,2.5,0,0-41.406-2.5,0z"/>
 <path stroke-linejoin="round" d="m172.19,499.93-6.0265,16.389-6.0266-16.389c3.5582,2.6182,8.4262,2.6031,12.053,0z" fill-rule="evenodd" stroke-width="0.625"/>
 <path style="baseline-shift:baseline;block-progression:tb;color:#000000;direction:ltr;text-indent:0;text-align:start;enable-background:accumulate;text-transform:none;" fill="#000" d="m239.16,380.38,0,41.438,2.5,0,0-41.438-2.5,0z"/>
 <path stroke-linejoin="round" d="m234.35,393.46,6.0265-16.389,6.0266,16.389c-3.5582-2.6182-8.4262-2.6031-12.053,0z" fill-rule="evenodd" stroke-width="0.625"/>
 <path style="baseline-shift:baseline;block-progression:tb;color:#000000;direction:ltr;text-indent:0;text-align:start;enable-background:accumulate;text-transform:none;" fill="#000" d="m630.44,277.88,0,41.406,2.5,0,0-41.406-2.5,0z"/>
 <path stroke-linejoin="round" d="m625.64,290.95,6.0265-16.389,6.0266,16.389c-3.5582-2.6182-8.4262-2.6031-12.053,0z" fill-rule="evenodd" stroke-width="0.625"/>
 <rect ry="14.142" height="60.609" width="212.13" y="313.72" x="559.6" fill="#FFF"/>
 <text style="word-spacing:0px;letter-spacing:0px;" font-weight="normal" xml:space="preserve" font-size="40px" font-style="normal" font-stretch="normal" font-variant="normal" y="354.04306" x="620.7821" font-family="Arial" line-height="125%" fill="#000000"><tspan y="354.04306" x="620.7821" font-size="28px">Control</tspan></text>
 <path style="baseline-shift:baseline;block-progression:tb;color:#000000;direction:ltr;text-indent:0;text-align:start;enable-background:accumulate;text-transform:none;" fill="#000" d="m664.44,173.84,0,41.406,2.5,0,0-41.406-2.5,0z"/>
 <path stroke-linejoin="round" d="m659.64,186.91,6.0265-16.389,6.0266,16.389c-3.5582-2.6182-8.4262-2.6031-12.053,0z" fill-rule="evenodd" stroke-width="0.625"/>
 <path style="baseline-shift:baseline;block-progression:tb;color:#000000;direction:ltr;text-indent:0;text-align:start;enable-background:accumulate;text-transform:none;" fill="#000" d="m701.62,268.72,0,41.438,2.5,0,0-41.438-2.5,0z"/>
 <path stroke-linejoin="round" d="m708.93,297.07-6.0265,16.389-6.0266-16.389c3.5582,2.6182,8.4262,2.6031,12.053,0z" fill-rule="evenodd" stroke-width="0.625"/>
 <rect ry="14.142" height="60.609" width="212.13" y="211.19" x="559.6" fill="#FFF"/>
 <text style="word-spacing:0px;letter-spacing:0px;" font-weight="normal" xml:space="preserve" font-size="40px" font-style="normal" font-stretch="normal" font-variant="normal" y="251.34851" x="600.28796" font-family="Arial" line-height="125%" fill="#000000"><tspan y="251.34851" x="600.28796" font-size="28px">Vocal tract</tspan></text>
 <rect ry="14.142" height="60.609" width="212.13" y="106.64" x="559.6" fill="#FFF"/>
 <text font-size="40px" font-weight="normal" xml:space="preserve" style="word-spacing:0px;letter-spacing:0px;" line-height="125%" font-stretch="normal" font-variant="normal" y="146.79768" x="571.67957" font-family="Arial" font-style="normal" fill="#000000"><tspan y="146.79768" x="571.67957" font-size="28px">Acoustic model</tspan></text>
 <path style="baseline-shift:baseline;block-progression:tb;color:#000000;direction:ltr;text-indent:0;text-align:start;enable-background:accumulate;text-transform:none;" fill="#000" d="m239.16,480.38,0,41.406,2.5,0,0-41.406-2.5,0z"/>
 <path stroke-linejoin="round" d="m234.35,493.44,6.0265-16.389,6.0266,16.389c-3.5582-2.6182-8.4262-2.6031-12.053,0z" fill-rule="evenodd" stroke-width="0.625"/>
 <path style="baseline-shift:baseline;block-progression:tb;color:#000000;direction:ltr;text-indent:0;text-align:start;enable-background:accumulate;text-transform:none;" fill="#000" d="m304.78,440.34-0.9375,2.3125,69.281,28.562,0.9375-2.3125-69.281-28.562z"/>
 <path stroke-linejoin="round" d="m363.81,459.49,12.852,11.821-17.449-0.67914c3.7774-2.2907,5.6199-6.7967,4.5967-11.142z" fill-rule="evenodd" stroke-width="0.625"/>
 <rect ry="14.142" height="60.609" width="212.13" y="416.25" x="98.293" fill="#FFF"/>
 <text style="word-spacing:0px;letter-spacing:0px;" font-weight="normal" xml:space="preserve" font-size="40px" font-style="normal" font-stretch="normal" font-variant="normal" y="456.40945" x="171.96065" font-family="Arial" line-height="125%" fill="#000000"><tspan y="456.40945" x="171.96065" font-size="28px">Word</tspan></text>
 <path style="baseline-shift:baseline;block-progression:tb;color:#000000;direction:ltr;text-indent:0;text-align:start;enable-background:accumulate;text-transform:none;" fill="#000" d="m375.12,522.56-69.281,28.594,0.9375,2.3125,69.312-28.594-0.96875-2.3125z"/>
 <path stroke-linejoin="round" d="m361.21,523.11,17.449-0.67917-12.852,11.821c1.0634-4.2878-0.80716-8.7822-4.5967-11.142z" fill-rule="evenodd" stroke-width="0.625"/>
 <rect ry="14.142" height="60.609" width="212.13" y="518.77" x="98.292" fill="#FFF"/>
 <text style="word-spacing:0px;letter-spacing:0px;" font-weight="normal" xml:space="preserve" font-size="40px" font-style="normal" font-stretch="normal" font-variant="normal" y="556.32178" x="106.88935" font-family="Arial" line-height="125%" fill="#000000"><tspan y="556.32178" x="106.88935" font-size="28px">Word sequence</tspan></text>
 <text font-size="40px" font-weight="normal" xml:space="preserve" style="word-spacing:0px;letter-spacing:0px;" line-height="125%" font-stretch="normal" font-variant="normal" y="436.86932" x="628.61609" font-family="Arial" font-style="normal" fill="#000000"><tspan y="436.86932" x="628.61609" font-size="28px">Vision</tspan></text>
 <text font-size="40px" font-weight="normal" xml:space="preserve" transform="matrix(0,-1,1,0,0,0)" line-height="125%" font-stretch="normal" font-variant="normal" y="35.518829" x="-420.66901" font-family="Arial" style="word-spacing:0px;letter-spacing:0px;" font-style="normal" fill="#0000ff"><tspan y="35.518829" x="-420.66901" font-size="28px" fill="#0000ff">Recognition</tspan></text>
 <text font-size="40px" font-weight="normal" xml:space="preserve" transform="matrix(0,1,-1,0,0,0)" line-height="125%" font-stretch="normal" font-variant="normal" y="-836.07074" x="181.17682" font-family="Arial" style="word-spacing:0px;letter-spacing:0px;" font-style="normal" fill="#000000"><tspan y="-836.07074" x="181.17682" font-size="28px" fill="#0000ff">Synthesis</tspan></text>
 <path fill-rule="nonzero" style="baseline-shift:baseline;block-progression:tb;color:#000000;direction:ltr;text-indent:0;text-align:start;enable-background:accumulate;text-transform:none;" fill="#000" d="m359.12,32.156-54.656,54.625,1.7812,1.7812,54.625-54.656-1.75-1.75z"/>
 <path stroke-linejoin="round" d="m318.89,82.711-15.85,7.3276,7.327-15.85c0.66469,4.3674,4.1177,7.7989,8.523,8.5227z" fill-rule="evenodd" stroke-width="0.625"/>
 <path fill-rule="nonzero" style="baseline-shift:baseline;block-progression:tb;color:#000000;direction:ltr;text-indent:0;text-align:start;enable-background:accumulate;text-transform:none;" fill="#000" d="m509.53,33.219-1.75,1.7812,54.625,54.625,1.7812-1.75-54.656-54.656z"/>
 <path stroke-linejoin="round" d="m513.62,47.638-7.3276-15.85,15.85,7.3269c-4.3674,0.66469-7.7989,4.1177-8.5227,8.523z" fill-rule="evenodd" stroke-width="0.625"/>
 <text font-size="28px" font-weight="normal" xml:space="preserve" style="word-spacing:0px;letter-spacing:0px;" line-height="125%" font-stretch="normal" font-variant="normal" y="487.56335" x="504.99622" font-family="Arial" font-style="normal" fill="#000000"><tspan y="487.56335" x="504.99622" style="text-anchor:middle;text-align:center;">Short and long term</tspan><tspan y="522.56335" x="504.99622" style="text-anchor:middle;text-align:center;">memory systems</tspan></text>
 <path style="baseline-shift:baseline;block-progression:tb;color:#000000;direction:ltr;text-indent:0;text-align:start;enable-background:accumulate;text-transform:none;" fill="#000" d="m665.44,379.19,0,33.406,2.5,0,0-33.406-2.5,0z"/>
 <path stroke-linejoin="round" d="m660.65,392.26,6.0266-16.389,6.0266,16.389c-3.5582-2.6182-8.4261-2.6032-12.053,0z" fill-rule="evenodd" stroke-width="0.625"/>
 <path style="baseline-shift:baseline;block-progression:tb;color:#000000;direction:ltr;text-indent:0;text-align:start;enable-background:accumulate;text-transform:none;" fill="#000" d="m316.62,459.59-0.9375,2.3125,61.438,25.062,0.9375-2.3125-61.438-25.062z"/>
 <path stroke-linejoin="round" d="m325.98,471.3-12.901-11.767,17.451,0.60591c-3.7677,2.3065-5.5913,6.8202-4.5499,11.161z" fill-rule="evenodd" stroke-width="0.625"/>
 <path style="baseline-shift:baseline;block-progression:tb;color:#000000;direction:ltr;text-indent:0;text-align:start;enable-background:accumulate;text-transform:none;" fill="#000" d="m377.12,506.81-61.469,25.062,0.9375,2.3125,61.469-25.062-0.9375-2.3125z"/>
 <path stroke-linejoin="round" d="m330.52,533.7-17.451,0.60495,12.902-11.767c-1.0816,4.2832,0.7698,8.7855,4.5493,11.162z" fill-rule="evenodd" stroke-width="0.625"/>
</svg>
