<?xml version="1.0" encoding="UTF-8" standalone="no"?>
<!-- Created with Inkscape (http://www.inkscape.org/) -->
<svg xmlns:rdf="http://www.w3.org/1999/02/22-rdf-syntax-ns#" xmlns="http://www.w3.org/2000/svg" height="100%" width="100%" version="1.1" xmlns:cc="http://creativecommons.org/ns#" xmlns:dc="http://purl.org/dc/elements/1.1/" viewBox="0 0 1153.6417 305.53825">
 <defs>
  <filter id="filter4222" height="1" width="1" color-interpolation-filters="sRGB" y="0" x="0">
   <feColorMatrix values="0" type="hueRotate"/>
   <feColorMatrix values="1" type="saturate"/>
   <feColorMatrix values="2 -1 0 0 0 0 2 -1 0 0 -1 0 2 0 0 0 0 0 1 0 " type="matrix"/>
  </filter>
  <filter id="filter4230" height="1" width="1" color-interpolation-filters="sRGB" y="0" x="0">
   <feColorMatrix values="0" type="hueRotate"/>
   <feColorMatrix values="1" type="saturate"/>
   <feColorMatrix values="2 -1 0 0 0 0 2 -1 0 0 -1 0 2 0 0 0 0 0 1 0 " type="matrix"/>
  </filter>
  <filter id="filter4238" height="1" width="1" color-interpolation-filters="sRGB" y="0" x="0">
   <feColorMatrix values="0" type="hueRotate"/>
   <feColorMatrix values="1" type="saturate"/>
   <feColorMatrix values="2 -1 0 0 0 0 2 -1 0 0 -1 0 2 0 0 0 0 0 1 0 " type="matrix"/>
  </filter>
 </defs>
 <metadata>
  <rdf:RDF>
   <cc:Work rdf:about="">
    <dc:format>image/svg+xml</dc:format>
    <dc:type rdf:resource="http://purl.org/dc/dcmitype/StillImage"/>
    <dc:title/>
   </cc:Work>
  </rdf:RDF>
 </metadata>
 <g transform="matrix(-1,0,0,-1,750.78392,457.09259)">
  <path stroke-linejoin="round" stroke-width="0.625" d="m262.78,244.09-6.0265-16.389-6.0266,16.389c3.5582-2.6182,8.4262-2.6031,12.053,0z" fill-rule="evenodd"/>
  <path style="direction:ltr;baseline-shift:baseline;block-progression:tb;text-indent:0;color:#000000;enable-background:accumulate;text-transform:none;text-align:start;" d="m255.54,273.72,160.44,0,0-2.5-160.44,0z" fill="#000"/>
  <path style="direction:ltr;baseline-shift:baseline;block-progression:tb;text-indent:0;color:#000000;enable-background:accumulate;text-transform:none;text-align:start;" d="m255.45,238.29,0,35.25,2.5,0,0-35.25z" fill="#000"/>
 </g>
 <g transform="translate(0.31598556,3.996513e-8)">
  <path style="direction:ltr;baseline-shift:baseline;block-progression:tb;text-indent:0;color:#000000;enable-background:accumulate;text-transform:none;text-align:start;" d="m607.02,138.47,0,81.25,2.5,0,0-81.25z" fill="#000"/>
  <path stroke-linejoin="round" stroke-width="0.625" d="m614.3,213.1-6.0265,16.389-6.0266-16.389c3.5582,2.6182,8.4262,2.6031,12.053,0z" fill-rule="evenodd"/>
 </g>
 <text font-size="40px" font-family="Arial" xml:space="preserve" style="word-spacing:0px;letter-spacing:0px;" font-style="normal" font-stretch="normal" font-variant="normal" y="75.707718" x="335.34634" font-weight="normal" line-height="125%" fill="#000000"><tspan y="75.707718" x="335.34634"/></text>
 <g transform="translate(532.03236,-214.47826)">
  <rect ry="14.142" height="71.309" width="250.86" y="292.05" x="367.75" fill="#decbe4"/>
  <text font-size="40px" font-family="Arial" xml:space="preserve" style="word-spacing:0px;letter-spacing:0px;" line-height="125%" font-stretch="normal" font-variant="normal" y="337.73312" x="385.63635" font-weight="normal" font-style="normal" fill="#000000"><tspan y="337.73312" x="385.63635" font-size="28px">Distance function</tspan></text>
 </g>
 <path style="direction:ltr;baseline-shift:baseline;block-progression:tb;text-indent:0;color:#000000;enable-background:accumulate;text-transform:none;text-align:start;" d="m335.53,38.612,135.74,58.074,0.89897-2.3328-135.74-58.074z" fill="#000"/>
 <path stroke-linejoin="round" stroke-width="0.625" d="m470.68,88.836,13.126,11.517-17.46-0.26981c3.7226-2.3787,5.459-6.9265,4.3341-11.247z" fill-rule="evenodd"/>
 <g transform="translate(-16.350087,-57.191923)">
  <path style="direction:ltr;baseline-shift:baseline;block-progression:tb;text-indent:0;color:#000000;enable-background:accumulate;text-transform:none;text-align:start;" d="m767.57,150.87,135.25,0,0-2.5-135.25,0z" fill="#000"/>
  <path stroke-linejoin="round" stroke-width="0.625" d="m897.75,143.57,16.389,6.0265-16.389,6.0266c2.6182-3.5582,2.6031-8.4262,0-12.053z" fill-rule="evenodd"/>
 </g>
 <g transform="translate(-16.350087,-57.191923)">
  <path style="direction:ltr;baseline-shift:baseline;block-progression:tb;text-indent:0;color:#000000;enable-background:accumulate;text-transform:none;text-align:start;" d="m767.57,191.89,135.25,0,0-2.5-135.25,0z" fill="#000"/>
  <path stroke-linejoin="round" stroke-width="0.625" d="m897.75,184.59,16.389,6.0265-16.389,6.0266c2.6182-3.5582,2.6031-8.4262,0-12.053z" fill-rule="evenodd"/>
 </g>
 <g transform="translate(-4.153983e-5,-12)">
  <path style="direction:ltr;baseline-shift:baseline;block-progression:tb;text-indent:0;color:#000000;enable-background:accumulate;text-transform:none;text-align:start;" d="m335.53,179.52,135.74-58.074,0.89897,2.3328-135.74,58.074z" fill="#000"/>
  <path stroke-linejoin="round" stroke-width="0.625" d="m470.68,129.3,13.126-11.517-17.46,0.26981c3.7226,2.3787,5.459,6.9265,4.3341,11.247z" fill-rule="evenodd"/>
 </g>
 <text style="word-spacing:0px;letter-spacing:0px;" font-family="Arial" xml:space="preserve" font-size="40px" line-height="125%" font-stretch="normal" font-variant="normal" y="-29.567207" x="649.48071" font-weight="normal" font-style="normal" fill="#000000"><tspan y="-29.567207" x="649.48071" font-size="28px"/></text>
 <text style="word-spacing:0px;letter-spacing:0px;" font-family="Arial" xml:space="preserve" font-size="40px" line-height="125%" font-stretch="normal" font-variant="normal" y="-30.671446" x="622.92926" font-weight="normal" font-style="normal" fill="#000000"><tspan y="-30.671446" x="622.92926" font-size="28px"/></text>
 <g transform="translate(23.508942,14.316846)">
  <rect ry="14.142" height="71.309" width="250.86" y="-11.317" x="64.186" fill="#decbe4"/>
  <text font-size="40px" font-family="Arial" xml:space="preserve" style="word-spacing:0px;letter-spacing:0px;" line-height="125%" font-stretch="normal" font-variant="normal" y="31.41704" x="110.88724" font-weight="normal" font-style="normal" fill="#000000"><tspan y="31.41704" x="110.88724" font-size="28px">Microphone</tspan></text>
 </g>
 <g transform="translate(-616.12986,160.90982)">
  <rect ry="14.142" height="71.309" filter="url(#filter4222)" width="335.56" y="-15.109" x="619.13" fill="#decbe4"/>
  <text style="word-spacing:0px;letter-spacing:0px;" font-weight="normal" xml:space="preserve" font-size="28px" line-height="110.00000238%" font-stretch="normal" font-variant="normal" y="12.220522" x="701.30109" font-family="Arial" font-style="normal" fill="#000000"><tspan y="12.220522" x="701.30109" style="text-anchor:middle;text-align:center;" line-height="110.00000238%">Birkholz</tspan><tspan y="43.020523" x="701.30109" style="text-anchor:middle;text-align:center;" line-height="110.00000238%">synthesizer</tspan></text>
  <text style="word-spacing:0px;letter-spacing:0px;" font-weight="normal" xml:space="preserve" font-size="28px" line-height="110.00000238%" font-stretch="normal" font-variant="normal" y="15.173647" x="873.211" font-family="Arial" font-style="normal" fill="#000000"><tspan y="15.173647" x="873.211" style="text-anchor:middle;text-align:center;" line-height="110.00000238%">Control</tspan><tspan y="45.973648" x="873.211" style="text-anchor:middle;text-align:center;" line-height="110.00000238%">Parameters</tspan></text>
  <path d="m788.32-15.482,0,72.054" stroke="#FFF" stroke-miterlimit="4" stroke-dasharray="none" stroke-width="3" fill="none"/>
 </g>
 <g transform="translate(117.19905,-26.800697)">
  <rect ry="14.142" height="71.309" filter="url(#filter4230)" width="271.42" y="104.17" x="366.26" fill="#decbe4"/>
  <text style="word-spacing:0px;letter-spacing:0px;" font-weight="normal" xml:space="preserve" font-size="28px" line-height="110.00000238%" font-stretch="normal" font-variant="normal" y="134.28192" x="430.18698" font-family="Arial" font-style="normal" fill="#000000"><tspan y="134.28192" x="430.18698" style="text-anchor:middle;text-align:center;" line-height="110.00000238%">Zilany</tspan><tspan y="165.08192" x="430.18698" style="text-anchor:middle;text-align:center;" line-height="110.00000238%">Model</tspan></text>
  <text style="word-spacing:0px;letter-spacing:0px;" font-weight="normal" xml:space="preserve" font-size="28px" line-height="110.00000238%" font-stretch="normal" font-variant="normal" y="134.28192" x="565.51141" font-family="Arial" font-style="normal" fill="#000000"><tspan y="134.28192" x="565.51141" style="text-anchor:middle;text-align:center;" line-height="110.00000238%">Acoustic</tspan><tspan y="165.08192" x="565.51141" style="text-anchor:middle;text-align:center;" line-height="110.00000238%">Features</tspan></text>
  <path d="m491.62,104,0,72.054" stroke="#FFF" stroke-dasharray="none" stroke-miterlimit="4" stroke-width="3" fill="none"/>
 </g>
 <g transform="translate(-4.153983e-5,3.996513e-8)">
  <path stroke-linejoin="round" stroke-width="0.625" d="m262.78,233.04-6.0265-16.389-6.0266,16.389c3.5582-2.6182,8.4262-2.6031,12.053,0z" fill-rule="evenodd"/>
  <path style="direction:ltr;baseline-shift:baseline;block-progression:tb;text-indent:0;color:#000000;enable-background:accumulate;text-transform:none;text-align:start;" d="m255.54,273.72,160.44,0,0-2.5-160.44,0z" fill="#000"/>
  <path style="direction:ltr;baseline-shift:baseline;block-progression:tb;text-indent:0;color:#000000;enable-background:accumulate;text-transform:none;text-align:start;" d="m255.45,226.29,0,47.25,2.5,0,0-47.25z" fill="#000"/>
 </g>
 <g transform="translate(-29.05048,-87.598244)">
  <rect ry="14.142" height="71.309" filter="url(#filter4238)" width="250.86" y="318.83" x="441.28" fill="#decbe4"/>
  <text style="word-spacing:0px;letter-spacing:0px;" font-weight="normal" xml:space="preserve" font-size="28.00000191px" line-height="110.00000238%" font-stretch="normal" font-variant="normal" y="346.49899" x="565.90033" font-family="Arial" font-style="normal" fill="#000000"><tspan y="346.49899" x="565.90033" style="text-anchor:middle;text-align:center;" line-height="110.00000238%">Operational</tspan><tspan y="377.29898" x="565.90033" style="text-anchor:middle;text-align:center;" line-height="110.00000238%">Space Controller</tspan></text>
 </g>
</svg>
