<?xml version="1.0" encoding="UTF-8" standalone="no"?>
<!-- Created with Inkscape (http://www.inkscape.org/) -->
<svg xmlns:rdf="http://www.w3.org/1999/02/22-rdf-syntax-ns#" xmlns="http://www.w3.org/2000/svg" xml:space="preserve" height="100%" width="100%" version="1.1" xmlns:cc="http://creativecommons.org/ns#" xmlns:dc="http://purl.org/dc/elements/1.1/" viewBox="0 0 357.55 288.63"><metadata><rdf:RDF><cc:Work rdf:about=""><dc:format>image/svg+xml</dc:format><dc:type rdf:resource="http://purl.org/dc/dcmitype/StillImage"/><dc:title/></cc:Work></rdf:RDF></metadata><defs/><path stroke-linejoin="round" d="m24.08,265.47,329.45,0m-329.45,0,0-259.88m0,259.88,0-3.3225" stroke="#000" stroke-linecap="butt" stroke-miterlimit="10" stroke-dasharray="none" stroke-width="0.375" fill="none"/><text y="274.39417" x="17.266529" font-size="15px"><tspan font-size="7.38112497px" font-family="Symbol" fill-rule="nonzero" style="writing-mode:lr-tb;" font-variant="normal" y="274.39417" x="17.266529" font-weight="normal" fill="#000000">−</tspan></text>
<text y="274.39417" x="21.318768" font-size="15px"><tspan font-size="7.38112497px" font-family="Helvetica" fill-rule="nonzero" style="writing-mode:lr-tb;" font-variant="normal" y="274.39417" x="21.318768" font-weight="normal" fill="#000000">1</tspan></text>
<path stroke-linejoin="round" d="m187.94,265.47,0-3.3225" stroke="#000" stroke-linecap="butt" stroke-miterlimit="10" stroke-dasharray="none" stroke-width="0.375" fill="none"/><text y="274.39417" x="185.69603" font-size="15px"><tspan font-size="7.38112497px" font-family="Helvetica" fill-rule="nonzero" style="writing-mode:lr-tb;" font-variant="normal" y="274.39417" x="185.69603 189.79994" font-weight="normal" fill="#000000">0 </tspan></text>
<path stroke-linejoin="round" d="m353.52,265.47,0-3.3225" stroke="#000" stroke-linecap="butt" stroke-miterlimit="10" stroke-dasharray="none" stroke-width="0.375" fill="none"/><text y="274.39417" x="350.44827" font-size="15px"><tspan font-size="7.38112497px" font-family="Helvetica" fill-rule="nonzero" style="writing-mode:lr-tb;" font-variant="normal" y="274.39417" x="350.44827 354.55219" font-weight="normal" fill="#000000">1 </tspan></text>
<path stroke-linejoin="round" d="m24.08,265.47,3.2612,0" stroke="#000" stroke-linecap="butt" stroke-miterlimit="10" stroke-dasharray="none" stroke-width="0.375" fill="none"/><text y="268.18204" x="12.93478" font-size="15px"><tspan font-size="7.38112497px" font-family="Symbol" fill-rule="nonzero" style="writing-mode:lr-tb;" font-variant="normal" y="268.18204" x="12.93478" font-weight="normal" fill="#000000">−</tspan></text>
<text y="268.18204" x="16.987017" font-size="15px"><tspan font-size="7.38112497px" font-family="Helvetica" fill-rule="nonzero" style="writing-mode:lr-tb;" font-variant="normal" y="268.18204" x="16.987017" font-weight="normal" fill="#000000">1</tspan></text>
<path stroke-linejoin="round" d="m24.08,136.19,3.2612,0" stroke="#000" stroke-linecap="butt" stroke-miterlimit="10" stroke-dasharray="none" stroke-width="0.375" fill="none"/><text y="138.88879" x="15.774155" font-size="15px"><tspan font-size="7.38112497px" font-family="Helvetica" fill-rule="nonzero" style="writing-mode:lr-tb;" font-variant="normal" y="138.88879" x="15.774155 19.878061" font-weight="normal" fill="#000000">0 </tspan></text>
<path stroke-linejoin="round" d="m24.08,5.5994,3.2612,0" stroke="#000" stroke-linecap="butt" stroke-miterlimit="10" stroke-dasharray="none" stroke-width="0.375" fill="none"/><text y="8.3051796" x="15.774155" font-size="15px"><tspan font-size="7.38112497px" font-family="Helvetica" fill-rule="nonzero" style="writing-mode:lr-tb;" font-variant="normal" y="8.3051796" x="15.774155 19.878061" font-weight="normal" fill="#000000">1 </tspan></text>
<text y="283.86679" x="186.21729" font-size="15px"><tspan font-size="8.85737514px" font-family="Symbol" fill-rule="nonzero" style="writing-mode:lr-tb;" font-variant="normal" y="283.86679" x="186.21729" font-weight="normal" fill="#000000">µ</tspan></text>
<text font-size="15px" transform="matrix(0,-1,1,0,0,0)" y="7.59303" x="-137.90543"><tspan font-size="8.85737514px" font-family="Symbol" fill-rule="nonzero" style="writing-mode:lr-tb;" font-variant="normal" y="7.59303" x="-137.90543" font-weight="normal" fill="#000000">ν</tspan></text>
<path stroke-linejoin="round" d="m187.94,220.51-2.8288,0-3.075-0.1825-3.0762-0.43-3.0762-0.36875-2.8288-0.37-2.8288-0.37-3.0762-0.5525-3.075-0.5525-2.83-0.74-2.8912-0.7375-2.8288-0.73875-2.83-0.9825-2.8288-0.925-2.5825-0.92125-2.6462-1.105-2.5838-1.1088-2.5825-1.1075-2.3988-1.3538-2.5838-1.2912-2.3375-1.2912-2.3988-1.4775-2.3375-1.5375-2.3988-1.475-2.0912-1.66-2.1525-1.7225-1.9075-1.845-1.845-1.845-1.9062-1.6612-1.6612-1.9088-1.6612-2.0288-1.66-1.9075-1.6612-2.03-1.66-1.8438-1.6612-2.0912-2.83-4.43-1.1675-2.0912-1.1688-2.215-0.985-2.275-0.9225-2.3975-0.73875-2.215-0.67625-2.2762-0.7375-2.215-0.67625-2.4612-0.4925-2.3962-0.49125-2.2175-0.185-2.2738-0.24625-2.3988-0.24625-2.46,0-2.3988,0.24625-2.2138,0.24625-2.2762,0.185-2.3988,0.49125-2.4612,0.4925-2.3988,0.67625-2.275,0.7375-2.215,0.67625-2.3988,0.73875-2.275,0.9225-2.215,0.985-2.2762,1.1688-2.03,1.1675-2.2138,1.415-2.0912,1.415-2.03,1.6612-2.215,1.66-2.09,1.6612-1.845,1.66-2.0312,1.6612-1.9062,1.6612-2.03,1.9062-1.9075,1.845-1.66,1.9075-1.6612,2.1525-1.66,2.0912-1.7225,2.3988-1.6612,2.3375-1.475,2.3988-1.5375,2.3375-1.4775,2.5838-1.2912,2.3988-1.2925,2.5825-1.1075,2.5838-1.1675,2.6462-0.9225,2.5825-0.9225,5.6588-1.8462,2.8288-0.9225,2.8912-0.8,2.83-0.55375,3.075-0.7375,3.0762-0.55375,2.8288-0.36875,2.8288-0.36875,3.0762-0.18625,3.0125-0.36875,5.9675,0m6.09,0.0012,2.8288,0,3.1375,0.36875,2.8312,0.185,2.8275,0.36875,3.0738,0.37,3.0775,0.55375,2.89,0.7375,2.8312,0.5525,2.8275,0.8,2.8288,0.9225,2.8312,0.9225,2.8288,0.92375,2.6462,0.9225,2.8275,0.9225,2.585,1.1675,2.5825,1.1075,2.6438,1.2925,2.34,1.2912,2.3362,1.4775,2.3988,1.5375,2.0925,1.475,2.3975,1.6612,2.1538,1.7225,2.0912,1.66,2.1525,1.6612,1.9062,1.66,1.8462,1.9075,1.9062,1.845,1.6612,1.845,1.6612,2.0925,1.66,1.845,1.66,2.0912,1.4138,2.2138,1.4162,2.03,1.415,2.2762,1.1675,2.2138,1.17,2.03,0.9825,2.2762,0.9225,2.215,0.92375,2.275,0.73875,2.3988,0.49125,2.215,0.6775,2.275,0.49125,2.3988,0.4925,2.4612,0.18375,2.3988,0.24625,2.2762,0.245,2.2138,0,2.3988-0.245,2.46-0.24625,2.3988-0.18375,2.2738-0.4925,2.2175-0.49125,2.3962-0.6775,2.4612-0.49125,2.215-0.73875,2.2762-0.92375,2.215-0.9225,2.3975-0.9825,2.275-1.17,2.215-1.1675,2.0912-1.415,2.215-1.4162,2.0288-1.4138,2.0925-1.66,1.845-1.66,2.03-1.6612,1.9075-1.6612,2.03-1.9062,1.845-1.8462,1.9075-1.9062,1.66-2.1525,1.8462-2.0912,1.72-2.1538,1.6612-2.3975,1.4762-2.0925,1.5388-2.3988,1.4738-2.3362,1.4775-2.34,1.2912-2.6438,1.3538-2.5825,1.1075-2.585,1.1088-2.8275,1.105-2.6462,0.92125-2.8288,0.925-2.8312,0.9825-2.8288,0.73875-2.8275,0.7375-2.8312,0.74-2.89,0.5525-3.0775,0.5525-3.0738,0.37-2.8275,0.37-2.8312,0.36875-3.0762,0.43-3.0738,0.1825-5.9062,0m3.3212-150.94,2.7688,0" stroke-dashoffset="0" stroke="#000" stroke-linecap="butt" stroke-miterlimit="10" stroke-dasharray="4.42875" stroke-width="0.73749995" fill="none"/><path stroke-linejoin="round" d="m164.99,217.12-1.475-0.24375-0.86125-0.67875-2.5838-0.92-2.6438,0-0.6775-0.49375-2.0912,0.0613-2.03-0.1225-3.1362,0.615-2.0912-0.24875-3.7525-0.18-3.7525-2.0325-3.6288,0.79875-2.215-1.7212-2.5212-0.4925-3.445-1.7825-3.8138-1.1088-3.26,1.905-2.3988-0.85875-1.23-0.985-0.7375-5.29-1.9688-3.1975-3.075-0.73875-2.8912-1.2912-2.5225-1.23-1.845-2.6438-2.2138-1.7838,1.5988-2.585-0.24625-2.7075-1.1688-1.1675-3.8125-1.7838-1.8462-1.2912-0.5525-2.4,1.2288-1.4725,0.43125-1.6025-0.24625-2.5212-1.9675-3.2588-1.845-2.7075-2.3375-2.0912-0.185-1.7238-1.2912-3.0762,0.79875-1.905-1.8462-0.55375-0.18375-1.2912,0.6775-2.3362,2.3375-4.5512,0.9225-2.0925,0.55375-1.4775-0.24625-2.3362,1.845-3.6288-1.3538-3.5675-0.98375-0.43-0.67625-2.8925,2.5838-3.9962,1.7212-3.5062,1.415-2.4612,1.1062-1.045,2.9538-5.5362,1.23-0.4925,1.3538-0.7375,1.6612-2.0912,0.12125-1.7225,1.415-0.18625,2.0925-0.3675,1.845-1.7825-0.0625-1.2925-0.615-1.1075,2.275-1.0462,2.1538-0.79875,2.9525-0.67625,1.4775-1.3538,1.475-4.3062,1.9062-2.7675,1.6-3.9362,2.8288,0.245,1.7838-2.1512,1.2312-0.61625,0.92125-3.9362,1.6612-0.55375,1.7225-1.7838,3.5675-1.415,2.03-2.275,2.4612-2.5212,1.9675-2.215,3.875-0.92375,2.83-1.845,2.7675-1.5988,2.5212-2.7062,4.06-1.1688,3.5675-1.2925,2.89-2.2762,2.83-1.845,2.9538-1.9675,3.2588-0.0625,2.8912-0.7375,2.83-0.1225,1.9675-1.6,2.4612-1.2912,2.7075-0.9225m2.8875,15.561,2.585,1.6612,2.9525,0.79875,4.5538-0.18375,2.705-2.03,1.0475-1.045,0.55125,1.23,2.7075,1.1075,2.705,0.7375,3.3862,0.92375,3.4412,0,2.7688,0.7375,4.9812,0.1225,2.4612,0.615,3.0738,1.845,1.355,1.5375,4.6112,2.585,5.9062-0.12375,2.7062,0.49125,3.9975,0.185,2.4612,2.5825,2.7075,2.6462,3.1362,2.275,1.415,0.985,3.9988,1.475,0.5525,0.18625,3.5062,0.73625,0.80125,2.5238,4.1188,2.7675,2.9538,3.0138,4.3662,0,0.98625,3.3838,0.42875,2.3362,1.6612,3.875,0.0613,2.645,1.1688,1.7225,0.675,0.24625,0.37,0.9225,2.6462,2.3375,0.2475,2.5838,2.2112,2.9512-0.73875,2.7062-0.92,3.8138-0.3725,1.7838-2.8275,1.9062,1.6612,0.92375-2.645,1.9688,1.1075,2.3988-0.5525,2.2138,2.3362,1.7825,1.7238,2.6475-1.3562,2.275-3.6888,1.5988-5.9662,0.6775-4.245,2.645-1.045,2.705-0.615,3.6288-0.18625,2.7688-1.1062,2.7075,0.30625,2.6438-2.6425,2.5825-1.23,2.6462-4.3075,2.0925-0.3675,2.335-3.1988,2.7675-1.7238,1.9075-3.32,2.3388-1.17,2.0288-0.615,1.7225-0.86,2.0912-1.1088,0.8-3.3812,2.8912-1.97,0.55375-4.6138,3.1975-2.5212,1.415-5.7812,2.5838-3.1988,1.5975-2.5225,0.985-1.3525,0.24625-2.4,0.86125-0.79875,0.67625-3.7512,3.3838-2.4612,1.1075-5.6588,2.3375-0.9825,0.5525-1.725,0.49125-2.09,0.3075-3.075,0.49375-4.9812,0.61375-4.9825,0.80125-3.0138-1.0475-2.1538,1.4762-2.2775-1.045-3.6275,0.3075-4.3662-1.2275-1.2925,0.55-3.3212,0.30875-1.5388-0.37-4.92,0.73875-1.4162,0.0613m23.315-145.04,3.5638-0.3075" stroke="#000" stroke-linecap="butt" stroke-miterlimit="10" stroke-dasharray="none" stroke-width="2.95249987" fill="none"/><path stroke-linejoin="round" d="m170.97,225.49-3.9975-0.7975-2.3388,0.42875-2.5212-0.42875-1.845-1.11-2.8288-0.86125-3.5075-0.4275-1.1062,0.98125-1.0462,0.74-1.845-0.86125-3.5675,0.06-2.9538,1.4788-2.7662,0.675-2.215-1.3525-3.075-1.6625-1.6612-1.1062-2.645,1.2312-2.275-1.5388-3.1375-0.3075-1.475-2.9512-2.1538-2.0312-0.86125-0.79875-3.4438,0.1225-2.3388-0.73875-3.5062-2.2138-2.275-1.5988-1.845-1.3525-1.3538-1.355-0.55375-1.5988-1.6612-1.9075-1.7212-3.0738-2.5838-3.5075-1.6612-2.4588,0.36875-1.2925-0.245-3.4438-0.43125-1.7838-1.9675-1.9688,0.3075-0.8-1.1688-1.7838,1.7212-2.7675-1.5975-1.1075,1.475-2.03-1.845-2.7688,0.98375-3.1975-1.7212-2.83-0.61625-2.3988-1.9062-2.2162,0.43-2.09,1.7238-1.5975,2.275-2.5838,1.0462-2.5862-1.2312-3.195,0-1.9688,1.2925-1.8462,1.415-0.985,1.2912-1.66-0.55375-3.0738,1.1075-3.1375,1.1075-2.645,2.46-2.1525,2.46-2.4612,2.2138-3.5675,0.2475-1.6612,1.7825-2.7062-0.1225-1.2288,1.9675-2.585,0.2475-1.475,2.89-1.6,1.415-0.245-0.1225-0.36875,1.1062-2.1538,3.3212-1.7225,2.215-2.7062,1.1688,0.185-0.5525-0.73875,1.2288-0.245,1.7838-2.4,2.46-1.9675,3.075-1.9062,1.2312-1.1075,3.0138-3.1988,1.7212-0.4925,2.9538-1.9075,1.9075-1.66,2.89-2.89,1.045-1.845,0.43125-1.5388,1.3525-1.7838,3.445-0.73875,3.445-0.4925,2.7062-1.045,1.5988-1.7838,2.1525-3.1988,2.2762-1.2925,3.2612-2.275,1.1675,0.43,3.9375-1.2912,3.69-0.36875,6.3375-0.8,4.4888-0.43m5.045-0.4925,1.9688-2.2138,2.8275,0,3.75,0.49125,0.8025,0.37,1.72-1.6612,1.2938-0.615,4.7362-1.1688,1.4775,0.67625,3.9962,0.67625,0.3075,1.0462,5.4125,0.9225,3.3212,0.4925,4.3688,0.86125,1.7225,0.98375,2.9512,1.0462,3.1375,0.86125,2.9525,0,2.46,0.1225,4.5512,1.845,3.5688,1.7225,3.935,1.7225,3.2612,1.5375,3.8125,0.73875,1.7838,2.275,0.43,1.9075,0.985,3.69,4.305,3.6288,4.9238,3.445,3.2575,1.9688-1.23-0.12375,1.9675-0.43125,1.6612,1.6612,3.7512,3.63,1.5388,3.6912,3.2588,1.9675,1.1725,3.4438,0.245,0.8,0.5525,3.9975,0.86,2.5225-1.965,2.8912-1.8462,2.03-0.37,1.845,1.9062,3.0138-1.4138,3.8138,0.3075,1.7225-1.415,3.8738,1.415,0-1.66,2.5225,0.42875,0.185-1.5375,1.5988,0.185,1.5988-2.8925,3.015-1.5962,2.83-2.7688,1.8462,0.0613,0.3075-1.2312,3.1962-2.4612,3.075-1.7838,4.0588-1.4138,1.7862-0.3675,2.1512-1.6638,1.9675-3.2588,2.2762-2.2125,5.0438-3.2012,2.2775-0.305,2.9512-1.7238,0.79875,0.0612,2.0938-1.1675,2.5825-0.98625,1.6612-1.5988,3.5675-2.1525,2.2138-2.2762,0.36875-4.9812,0.86125-2.585,1.1062-0.98375,2.5225-1.845,1.9062-1.9062,0.80125-5.5988,0.7375-2.3962,1.7225-4.7362,2.3975-2.3388,2.955-2.8288,0.9825-2.2138,0.18625-3.3838,0.79875-2.9525,1.9675-4.1212,3.26-3.8738,2.0312-2.645,0.24375-0.86125-0.7375-1.6625-0.0613-3.9988,0.2475-3.75,0.12125-5.2912,0.2475-2.1525,0.675-2.955,0.4325-0.98125,1.5388-3.875,0-3.8138,1.35" stroke="#808080" stroke-linecap="butt" stroke-miterlimit="10" stroke-dasharray="none" stroke-width="2.21375012" fill="none"/><path stroke-linejoin="round" d="m178.78,205.87-2.9512-0.3675-3.815-0.1225-1.9062-0.1225-3.445-0.615-1.9675,0.79875-2.215-0.98375-2.3988-0.36875-4.6738-1.8462-4.1212-0.98375-2.5225-1.8462-3.0762-0.06-4.12-2.3988-4.7362-2.0938-2.1525-2.52-4.3062-0.67625-1.415,0.7375-2.7062-1.7212-1.4762-0.925-4.3662-2.275-2.83-1.1688-2.8912-0.9225-0.615-1.1688-0.79875-0.615-0.92375-1.4138-2.275-1.2912-2.5838-3.4462-1.6612-1.1662-0.06-1.0462-0.2475,1.1062-1.66-2.7688-2.5225-1.1675-2.3375-1.7225,0.24625-1.4762-0.98375-1.6625-1.23-3.1975-2.83-2.8288-0.67625-3.5062-0.86125-2.4012,0-0.9825-2.0912-1.4775-0.37-1.4112,1.17-2.1538,1.66-2.0925,1.1062-3.0738,0.125-3.8762,1.2288-3.3825,1.4762-0.615,1.23-1.17,0.61625-1.5975,1.23-5.1662,0.3675-2.7688,0.61625-3.6288,0.9225-1.5375,0.985-2.3988,2.7062-2.215,0.8-2.5838,2.4588-1.4138,0.985-0.30875,1.7838-0.79875-0.98375-0.0613,0.0613-2.4612,0.6775-0.24625,1.7212-2.0288,1.2912,0.67625,1.9688-1.9688,0.98375-3.6288,0.8-2.7688,0.86125-2.645,3.8138-1.7838,2.9525-4.5512,1.045-3.26,1.4762-2.215,2.3375-0.24375,2.2138-2.0312-0.0613-3.1362,1.6-3.9375,1.23-0.9225,2.2762-0.12375,1.5988-0.86,3.1975-0.985,2.9525-2.0912,2.1538-1.1675,3.1375-1.6612,5.1662-3.69,3.9975-2.0312,4.43-3.4438,1.2912,0.9225,3.9975-0.73875,2.8912-0.9225,5.8438-2.46,1.9075-1.23,3.0125-1.23-0.18375,0.24625,4.1825-0.61625,1.3525,0.30875,3.2612-1.7225,4.1812-0.0625,4.6775-0.30625,3.6275,0.18375m-11.504,20.975,3.2612-0.985,3.1375-0.30625,2.03-0.0625,0.86,0.8,3.1375,1.23,3.6262-0.24625,4.7988,0.3075,3.3238-0.245,3.1362,1.2912,3.5675,1.23,4.9825,0.615,3.6288,1.7838,2.5825,1.9688,3.6912,1.5988,3.1375,0.6775,4.4288,1.415,2.3388,2.09,3.8112,1.7225,3.015,1.0462,4.6138,0.98375,3.6288,1.7225,3.8125,1.4138,0.92375,0.0625,2.645,0.18375,1.9662,1.4775,2.1538,2.215,1.1062,1.7212,3.385,0.9225,4.3662,1.23,1.415,1.23,0.0613,0.86125-1.2912,3.0762,0.37,1.1675,0.06,2.8912,3.5688,0.185,1.5362,3.7525,2.9525,1.66-1.7225,2.3375,1.17,0.67625-0.985,1.23,2.46,2.645,1.4762,1.845,1.8462,3.63-0.79875,2.3362-1.8462,3.0762-1.4762,1.9062-0.98375,2.3375-0.61625,2.83-1.72,0.9225-0.4325,0.49125-0.4325,1.4162-1.2888,2.1525-1.5388,2.3362-2.7675,1.7212-0.92375,1.6-0.92,2.1538-1.11,1.9688-0.18375,2.09-1.4138,1.7212-0.0612,2.6462-2.2762,2.4-2.3988,1.845-1.1088,2.5838-2.4612,2.7662-0.49125,2.2775-4.0588,0.36625-3.32,1.0475-3.815,2.3975-1.415,2.4-1.2912,2.275-2.5225,1.1088-2.3388,2.89-0.5525,1.1075-0.3675,1.4762-2.215,0.8-1.9075,0.9225-1.3525,0.985-1.5388-0.8-2.7062,3.26-4.9825,1.7212-1.9662,3.3838-4.1838,0.79875-2.89,2.275-3.1988,1.2312-2.7688,1.9675-2.83,0.9225-2.89,0.37-0.7375-1.9075-1.7212-0.86-3.3225,0.67625-4.3675,1.9075-4.7988,2.5225-2.8912-0.2475-3.565-0.80125-1.7262-1.29-4.1188-0.18375-3.1362,0.4925-3.0762-0.185-2.5225,1.1662m12.546-134.21,1.785-0.615" stroke="#999" stroke-linecap="butt" stroke-miterlimit="10" stroke-dasharray="none" stroke-width="1.47624993" fill="none"/><path stroke-linejoin="round" d="m187.33,208.82-6.4575,0-2.5838-0.18625-2.215,0.49375-2.03,2.1512-3.0138,0.86375-3.1988,0.2425-2.5212-1.9075-3.445-0.36625-2.9525,0.36625-3.0762-1.2288-2.7675,0.61625-4.7975-1.1062-3.3212,1.0438-3.6912-2.3988-3.075-0.5525-2.1525-1.415-2.7062-1.3525-4.49-0.43125-3.445-1.9075-2.7675,0.615,0.9225-1.66-2.46-0.1225-1.5375-1.7238-2.0925-1.23-1.3525-0.61375-1.9675-0.43125-2.5225-0.86-1.23-3.505-0.12375-1.4162,1.2912-2.3375-0.245-0.4925-1.1075-2.9512-1.23-1.2912,0.9225-1.5388,0.615-0.86125-0.8-3.445-1.4138-3.875-0.985-4.7362,0.4925-1.5988,1.415-2.8938,1.1688-1.965-0.0613-3.1375-1.54-0.98625,1.2938-1.5988,0.43-2.5812,1.845-2.0925-2.46-5.1038,1.2912-3.6912-0.185-3.1988,3.1388,0.0625,2.6438-2.2775,3.63-3.9362,3.9975-4.86,1.3525-3.5662,1.2925-4.1825,1.66-3.5675,1.1688-1.6612,2.7688-3.3212-0.80125-1.23,2.215-3.6912,1.6-0.98375,4.2438-3.4438,2.7075-2.4,2.3362-2.2138,4.5525-1.045,3.075-2.83,3.7525-2.46-1.3538-3.8138,2.2762-1.415,1.045-2.9525,3.445-1.5988,3.3825-1.2312,3.1375-1.7838,2.2138-2.7062,3.1988-2.0912,3.7512-1.3525,3.26-0.615,2.7688-2.83,4.615-2.5225,4.0588-2.03,3.0138-2.6438,0.9225-0.8,4.3662-2.03,3.1362-0.6775,3.63-1.475,2.3388-1.6612,2.0262,0.86125,2.34,0.1225,3.63-0.30625,4.2438-2.5225,2.9512-1.9688,2.5225-2.03,2.1538,0.3075,4.3038-1.7225,3.63,0.6775,4.12-1.9688,3.1988-0.06125,2.83-1.0462,2.9512-0.98375m-55.849,23.742,4.12,0.9225,4.2462-1.1062,3.2588,2.0912,1.9675-2.5225,3.2012,1.0462,2.8875-1.1075,4.3075,1.66,2.275,0.12375,3.0762,0.86125,3.0125-0.4925,3.1375,1.6612,3.6912,0.36875,3.0762,1.1688,3.4438,0.6775,2.5825,1.9062,2.3375,0.185,2.3975,0.06125,4.06,0.18375,3.6925,2.1538,2.5838,1.845,1.7838,1.7225,1.1688-0.06125,5.535,2.2138,1.4775,2.1512,1.5988,2.7075-0.24625-1.2912,4.43,1.6,2.0288,0.7375,1.9075,3.4438-1.0488,0.4325,3.5075,2.1512,1.1075,1.4762,2.645,1.2925-0.8625,1.7825,3.57,1.2312-0.43125,2.03-0.43125,2.0912-3.1362,2.5212-0.61375,3.5675,1.1675,2.3375,2.2738,1.7838,1.8475,1.1688,0.73875,2.7675-0.985,2.83-0.49375,3.9362,0.24625,2.1525-2.2138,0.6775-0.86125,0.24625-0.49125,1.2912,0.79875,3.7525-0.985,1.9675-4.3038,1.1075-1.54,1.23-2.09,1.7838,1.9675,2.03-2.705,2.3362,0.55375,1.3525-4.6738,1.2925-0.86375,0.86125-3.8738,1.2925-0.98375,3.2588-1.4138,2.8912-1.2938,2.83-0.43,0.79875-2.9538,1.7238-2.7662,2.0288-3.3212,1.5988,1.045,2.1538,0.615,2.705,0.1225,3.5062-2.7662,1.23-0.31,1.5375-1.5962,1.2312,0.12125,3.015-3.3212,2.645-3.0762,0.7375-2.5838,0.7375-2.275,1.0462-0.49375,2.4612-2.5188,1.5988-0.74,0.92125-1.9675,2.275-2.705,2.3988-3.015,2.3388-2.5225,0.61625-1.4162,0.42875-2.2725,0.0625-4.3088,0.55375-3.565,0.615-2.83,1.045-1.5988,1.355-3.6912-0.125-3.6275,0.8625-2.0925,0.8-1.8462,1.9062-2.5212,1.6612-1.1075,0.6775-3.1975,0.12125-2.8925-0.79875m5.1675-136.3,2.0912-2.83" stroke="#b3b3b3" stroke-linecap="butt" stroke-miterlimit="10" stroke-dasharray="none" stroke-width="0.73749995" fill="none"/><text y="78.302307" x="182.21941" font-size="15px"><tspan font-size="23.61962509px" font-family="Helvetica" fill-rule="nonzero" style="writing-mode:lr-tb;" font-variant="normal" y="78.302307" x="182.21941" font-weight="bold" fill="#000000">+</tspan></text>
<text y="20.484304" x="52.126156" font-size="15px"><tspan font-size="7.38112497px" font-family="Helvetica" fill-rule="nonzero" style="writing-mode:lr-tb;" font-variant="normal" y="20.484304" x="52.126156 54.178108 58.282013 62.385918 66.489822" font-weight="normal" fill="#000000">Ideal</tspan></text>
<text y="30.44883" x="52.126156" font-size="15px"><tspan font-size="7.38112497px" font-family="Symbol" fill-rule="nonzero" style="writing-mode:lr-tb;" font-variant="normal" y="30.44883" x="52.126156" font-weight="normal" fill="#000000">σ</tspan></text>
<text y="26.757931" x="56.554653" font-size="15px"><tspan font-size="5.9048748px" font-family="Helvetica" fill-rule="nonzero" style="writing-mode:lr-tb;" font-variant="normal" y="26.757931" x="56.554653" font-weight="normal" fill="#000000">2</tspan></text>
<text y="30.448931" x="61.866482" font-size="15px"><tspan font-size="7.38112497px" font-family="Helvetica" fill-rule="nonzero" style="writing-mode:lr-tb;" font-variant="normal" y="30.448931" x="61.866482 66.177055 68.229012 72.332916 74.384865 78.48877 82.592682 84.64463 86.696587 92.025757 98.174232 103.09744 108.02065 110.07261 114.38319 116.43513 120.53904 122.591 126.6949 130.79881" font-weight="normal" fill="#000000">= 0.00, RMSE = 0.040</tspan></text>
<text y="40.905029" x="52.126354" font-size="15px"><tspan font-size="7.38112497px" font-family="Symbol" fill-rule="nonzero" style="writing-mode:lr-tb;" font-variant="normal" y="40.905029" x="52.126354" font-weight="normal" fill="#000000">σ</tspan></text>
<text y="37.213928" x="56.554653" font-size="15px"><tspan font-size="5.9048748px" font-family="Helvetica" fill-rule="nonzero" style="writing-mode:lr-tb;" font-variant="normal" y="37.213928" x="56.554653" font-weight="normal" fill="#000000">2</tspan></text>
<text y="40.904678" x="61.866482" font-size="15px"><tspan font-size="7.38112497px" font-family="Helvetica" fill-rule="nonzero" style="writing-mode:lr-tb;" font-variant="normal" y="40.904678" x="61.866482 66.177055 68.229012 72.332916 74.384865 78.48877 82.592682 84.64463 86.696587 92.025757 98.174232 103.09744 108.02065 110.07261 114.38319 116.43513 120.53904 122.591 126.6949 130.79881" font-weight="normal" fill="#000000">= 0.10, RMSE = 0.043</tspan></text>
<text y="51.361519" x="52.126354" font-size="15px"><tspan font-size="7.38112497px" font-family="Symbol" fill-rule="nonzero" style="writing-mode:lr-tb;" font-variant="normal" y="51.361519" x="52.126354" font-weight="normal" fill="#000000">σ</tspan></text>
<text y="47.670429" x="56.554653" font-size="15px"><tspan font-size="5.9048748px" font-family="Helvetica" fill-rule="nonzero" style="writing-mode:lr-tb;" font-variant="normal" y="47.670429" x="56.554653" font-weight="normal" fill="#000000">2</tspan></text>
<text y="51.361431" x="61.866482" font-size="15px"><tspan font-size="7.38112497px" font-family="Helvetica" fill-rule="nonzero" style="writing-mode:lr-tb;" font-variant="normal" y="51.361431" x="61.866482 66.177055 68.229012 72.332916 74.384865 78.48877 82.592682 84.64463 86.696587 92.025757 98.174232 103.09744 108.02065 110.07261 114.38319 116.43513 120.53904 122.591 126.6949 130.79881" font-weight="normal" fill="#000000">= 0.25, RMSE = 0.057</tspan></text>
<text y="61.818268" x="52.126354" font-size="15px"><tspan font-size="7.38112497px" font-family="Symbol" fill-rule="nonzero" style="writing-mode:lr-tb;" font-variant="normal" y="61.818268" x="52.126354" font-weight="normal" fill="#000000">σ</tspan></text>
<text y="58.127682" x="56.554653" font-size="15px"><tspan font-size="5.9048748px" font-family="Helvetica" fill-rule="nonzero" style="writing-mode:lr-tb;" font-variant="normal" y="58.127682" x="56.554653" font-weight="normal" fill="#000000">2</tspan></text>
<text y="61.817928" x="61.866482" font-size="15px"><tspan font-size="7.38112497px" font-family="Helvetica" fill-rule="nonzero" style="writing-mode:lr-tb;" font-variant="normal" y="61.817928" x="61.866482 66.177055 68.229012 72.332916 74.384865 78.48877 82.592682 84.64463 86.696587 92.025757 98.174232 103.09744 108.02065 110.07261 114.38319 116.43513 120.53904 122.591 126.6949 130.79881" font-weight="normal" fill="#000000">= 0.50, RMSE = 0.092</tspan></text>
<path stroke-linejoin="round" d="m35.705,18.824,12.301,0" stroke-dashoffset="0" stroke="#000" stroke-linecap="butt" stroke-miterlimit="10" stroke-dasharray="4.42875" stroke-width="0.73749995" fill="none"/><path stroke-linejoin="round" d="m35.705,28.912,12.301,0" stroke="#000" stroke-linecap="butt" stroke-miterlimit="10" stroke-dasharray="none" stroke-width="2.95249987" fill="none"/><path stroke-linejoin="round" d="m35.705,38.999,12.301,0" stroke="#808080" stroke-linecap="butt" stroke-miterlimit="10" stroke-dasharray="none" stroke-width="2.21375012" fill="none"/><path stroke-linejoin="round" d="m35.705,49.024,12.301,0" stroke="#999" stroke-linecap="butt" stroke-miterlimit="10" stroke-dasharray="none" stroke-width="1.47624993" fill="none"/><path stroke-linejoin="round" d="m35.705,59.112,12.301,0" stroke="#b3b3b3" stroke-linecap="butt" stroke-miterlimit="10" stroke-dasharray="none" stroke-width="0.73749995" fill="none"/></svg>
