<?xml version="1.0" encoding="UTF-8" standalone="no"?>
<!-- Generated by graphviz version 2.26.3 (20100126.1600)
 -->
<!-- Title: recognition Pages: 1 -->
<svg xmlns:rdf="http://www.w3.org/1999/02/22-rdf-syntax-ns#" xmlns="http://www.w3.org/2000/svg" height="58pt" width="870pt" version="1.1" xmlns:cc="http://creativecommons.org/ns#" xmlns:dc="http://purl.org/dc/elements/1.1/" viewBox="0.00 0.00 870.00 58.00">
 <metadata>
  <rdf:RDF>
   <cc:Work rdf:about="">
    <dc:format>image/svg+xml</dc:format>
    <dc:type rdf:resource="http://purl.org/dc/dcmitype/StillImage"/>
    <dc:title/>
   </cc:Work>
  </rdf:RDF>
 </metadata>
 <g transform="scale(1 1) rotate(0) translate(4 54)" class="graph">
  <title>recognition</title>
<!-- Audio -->
  <g class="node">
   <title>Audio</title>
   <polygon stroke="#decbe4" stroke-width="0" points="42,-36,12,-36,1.4211E-14,-24,7.1054E-15,-12,12,-1.4606E-14,42,-6.7107E-15,54,-12,54,-24,42,-36" fill="#decbe4"/>
   <path stroke="#decbe4" stroke-width="0" d="M12-36c-6,0-12,6-12,12" fill="#decbe4"/>
   <path stroke="#decbe4" stroke-width="0" d="M7.1054E-15-12c-3.5527E-15,6,6,12,12,12" fill="#decbe4"/>
   <path stroke="#decbe4" stroke-width="0" d="M42-6.7107E-15c6,1.579E-15,12-6,12-12" fill="#decbe4"/>
   <path stroke="#decbe4" stroke-width="0" d="M54-24c0-6-6-12-12-12" fill="#decbe4"/>
   <polyline stroke="#decbe4" stroke-width="0" points="42,-36,12,-36" fill="none"/>
   <path stroke="#decbe4" stroke-width="0" d="M12-36c-6,0-12,6-12,12" fill="none"/>
   <polyline stroke="#decbe4" stroke-width="0" points="1.4211E-14,-24,7.1054E-15,-12" fill="none"/>
   <path stroke="#decbe4" stroke-width="0" d="M7.1054E-15-12c-3.5527E-15,6,6,12,12,12" fill="none"/>
   <polyline stroke="#decbe4" stroke-width="0" points="12,-1.4606E-14,42,-6.7107E-15" fill="none"/>
   <path stroke="#decbe4" stroke-width="0" d="M42-6.7107E-15c6,1.579E-15,12-6,12-12" fill="none"/>
   <polyline stroke="#decbe4" stroke-width="0" points="54,-12,54,-24" fill="none"/>
   <path stroke="#decbe4" stroke-width="0" d="M54-24c0-6-6-12-12-12" fill="none"/>
   <text font-size="14.00" text-anchor="middle" y="-13.4" x="27" font-family="Arial">Audio</text>
  </g>
<!-- Frame -->
  <g class="node">
   <title>Frame</title>
   <polygon stroke="#decbe4" stroke-width="0" points="203,-36,169,-36,157,-24,157,-12,169,-1.4823E-14,203,-6.4929E-15,215,-12,215,-24,203,-36" fill="#decbe4"/>
   <path stroke="#decbe4" stroke-width="0" d="M169-36c-6,0-12,6-12,12" fill="#decbe4"/>
   <path stroke="#decbe4" stroke-width="0" d="M157-12c0,6,6,12,12,12" fill="#decbe4"/>
   <path stroke="#decbe4" stroke-width="0" d="M203-6.4929E-15c6,1.4701E-15,12-6,12-12" fill="#decbe4"/>
   <path stroke="#decbe4" stroke-width="0" d="M215-24c0-6-6-12-12-12" fill="#decbe4"/>
   <polyline stroke="#decbe4" stroke-width="0" points="203,-36,169,-36" fill="none"/>
   <path stroke="#decbe4" stroke-width="0" d="M169-36c-6,0-12,6-12,12" fill="none"/>
   <polyline stroke="#decbe4" stroke-width="0" points="157,-24,157,-12" fill="none"/>
   <path stroke="#decbe4" stroke-width="0" d="M157-12c0,6,6,12,12,12" fill="none"/>
   <polyline stroke="#decbe4" stroke-width="0" points="169,-1.4823E-14,203,-6.4929E-15" fill="none"/>
   <path stroke="#decbe4" stroke-width="0" d="M203-6.4929E-15c6,1.4701E-15,12-6,12-12" fill="none"/>
   <polyline stroke="#decbe4" stroke-width="0" points="215,-12,215,-24" fill="none"/>
   <path stroke="#decbe4" stroke-width="0" d="M215-24c0-6-6-12-12-12" fill="none"/>
   <text font-size="14.00" text-anchor="middle" y="-13.4" x="186" font-family="Arial">Frame</text>
  </g>
<!-- Audio&#45;&gt;Frame -->
  <g class="edge">
   <title>Audio-&gt;Frame</title>
   <path stroke="#000" d="M54.333-18h91.897" fill="none"/>
   <polygon stroke="#000" points="146.33,-21.5,156.33,-18,146.33,-14.5,146.33,-21.5" fill="#000"/>
   <text font-size="14.00" text-anchor="middle" y="-37.4" x="105" font-family="Arial">Feature</text>
   <text font-size="14.00" text-anchor="middle" y="-21.4" x="105" font-family="Arial">Extraction</text>
  </g>
<!-- State -->
  <g class="node">
   <title>State</title>
   <polygon stroke="#decbe4" stroke-width="0" points="350,-36,320,-36,308,-24,308,-12,320,-1.4606E-14,350,-6.7107E-15,362,-12,362,-24,350,-36" fill="#decbe4"/>
   <path stroke="#decbe4" stroke-width="0" d="M320-36c-6,0-12,6-12,12" fill="#decbe4"/>
   <path stroke="#decbe4" stroke-width="0" d="M308-12c0,6,6,12,12,12" fill="#decbe4"/>
   <path stroke="#decbe4" stroke-width="0" d="M350-6.7107E-15c6,1.579E-15,12-6,12-12" fill="#decbe4"/>
   <path stroke="#decbe4" stroke-width="0" d="M362-24c0-6-6-12-12-12" fill="#decbe4"/>
   <polyline stroke="#decbe4" stroke-width="0" points="350,-36,320,-36" fill="none"/>
   <path stroke="#decbe4" stroke-width="0" d="M320-36c-6,0-12,6-12,12" fill="none"/>
   <polyline stroke="#decbe4" stroke-width="0" points="308,-24,308,-12" fill="none"/>
   <path stroke="#decbe4" stroke-width="0" d="M308-12c0,6,6,12,12,12" fill="none"/>
   <polyline stroke="#decbe4" stroke-width="0" points="320,-1.4606E-14,350,-6.7107E-15" fill="none"/>
   <path stroke="#decbe4" stroke-width="0" d="M350-6.7107E-15c6,1.579E-15,12-6,12-12" fill="none"/>
   <polyline stroke="#decbe4" stroke-width="0" points="362,-12,362,-24" fill="none"/>
   <path stroke="#decbe4" stroke-width="0" d="M362-24c0-6-6-12-12-12" fill="none"/>
   <text font-size="14.00" text-anchor="middle" y="-13.4" x="335" font-family="Arial">State</text>
  </g>
<!-- Frame&#45;&gt;State -->
  <g class="edge">
   <title>Frame-&gt;State</title>
   <path stroke="#000" d="M215.79-18h81.65" fill="none"/>
   <polygon stroke="#000" points="297.77,-21.5,307.77,-18,297.77,-14.5,297.77,-21.5" fill="#000"/>
   <text font-size="14.00" text-anchor="middle" y="-37.4" x="262" font-family="Arial">Acoustic</text>
   <text font-size="14.00" text-anchor="middle" y="-21.4" x="262" font-family="Arial">Model</text>
  </g>
<!-- Phoneme -->
  <g class="node">
   <title>Phoneme</title>
   <polygon stroke="#decbe4" stroke-width="0" points="524,-36,468,-36,456,-24,456,-12,468,-1.5632E-14,524,-5.6843E-15,536,-12,536,-24,524,-36" fill="#decbe4"/>
   <path stroke="#decbe4" stroke-width="0" d="M468-36c-6,0-12,6-12,12" fill="#decbe4"/>
   <path stroke="#decbe4" stroke-width="0" d="M456-12c0,6,6,12,12,12" fill="#decbe4"/>
   <path stroke="#decbe4" stroke-width="0" d="M524-5.6843E-15c6,1.0658E-15,12-6,12-12" fill="#decbe4"/>
   <path stroke="#decbe4" stroke-width="0" d="M536-24c0-6-6-12-12-12" fill="#decbe4"/>
   <polyline stroke="#decbe4" stroke-width="0" points="524,-36,468,-36" fill="none"/>
   <path stroke="#decbe4" stroke-width="0" d="M468-36c-6,0-12,6-12,12" fill="none"/>
   <polyline stroke="#decbe4" stroke-width="0" points="456,-24,456,-12" fill="none"/>
   <path stroke="#decbe4" stroke-width="0" d="M456-12c0,6,6,12,12,12" fill="none"/>
   <polyline stroke="#decbe4" stroke-width="0" points="468,-1.5632E-14,524,-5.6843E-15" fill="none"/>
   <path stroke="#decbe4" stroke-width="0" d="M524-5.6843E-15c6,1.0658E-15,12-6,12-12" fill="none"/>
   <polyline stroke="#decbe4" stroke-width="0" points="536,-12,536,-24" fill="none"/>
   <path stroke="#decbe4" stroke-width="0" d="M536-24c0-6-6-12-12-12" fill="none"/>
   <text font-size="14.00" text-anchor="middle" y="-13.4" x="496" font-family="Arial">Phoneme</text>
  </g>
<!-- State&#45;&gt;Phoneme -->
  <g class="edge">
   <title>State-&gt;Phoneme</title>
   <path stroke="#000" d="M362.31-18h83.29" fill="none"/>
   <polygon stroke="#000" points="445.85,-21.5,455.85,-18,445.85,-14.5,445.85,-21.5" fill="#000"/>
   <text font-size="14.00" text-anchor="middle" y="-37.4" x="409" font-family="Arial">Decision</text>
   <text font-size="14.00" text-anchor="middle" y="-21.4" x="409" font-family="Arial">Trees</text>
  </g>
<!-- Word -->
  <g class="node">
   <title>Word</title>
   <polygon stroke="#decbe4" stroke-width="0" points="666,-36,636,-36,624,-24,624,-12,636,-1.4606E-14,666,-6.7107E-15,678,-12,678,-24,666,-36" fill="#decbe4"/>
   <path stroke="#decbe4" stroke-width="0" d="M636-36c-6,0-12,6-12,12" fill="#decbe4"/>
   <path stroke="#decbe4" stroke-width="0" d="M624-12c0,6,6,12,12,12" fill="#decbe4"/>
   <path stroke="#decbe4" stroke-width="0" d="M666-6.7107E-15c6,1.579E-15,12-6,12-12" fill="#decbe4"/>
   <path stroke="#decbe4" stroke-width="0" d="M678-24c0-6-6-12-12-12" fill="#decbe4"/>
   <polyline stroke="#decbe4" stroke-width="0" points="666,-36,636,-36" fill="none"/>
   <path stroke="#decbe4" stroke-width="0" d="M636-36c-6,0-12,6-12,12" fill="none"/>
   <polyline stroke="#decbe4" stroke-width="0" points="624,-24,624,-12" fill="none"/>
   <path stroke="#decbe4" stroke-width="0" d="M624-12c0,6,6,12,12,12" fill="none"/>
   <polyline stroke="#decbe4" stroke-width="0" points="636,-1.4606E-14,666,-6.7107E-15" fill="none"/>
   <path stroke="#decbe4" stroke-width="0" d="M666-6.7107E-15c6,1.579E-15,12-6,12-12" fill="none"/>
   <polyline stroke="#decbe4" stroke-width="0" points="678,-12,678,-24" fill="none"/>
   <path stroke="#decbe4" stroke-width="0" d="M678-24c0-6-6-12-12-12" fill="none"/>
   <text font-size="14.00" text-anchor="middle" y="-13.4" x="651" font-family="Arial">Word</text>
  </g>
<!-- Phoneme&#45;&gt;Word -->
  <g class="edge">
   <title>Phoneme-&gt;Word</title>
   <path stroke="#000" d="M536.32-18h77.05" fill="none"/>
   <polygon stroke="#000" points="613.58,-21.5,623.58,-18,613.58,-14.5,613.58,-21.5" fill="#000"/>
   <text font-size="14.00" text-anchor="middle" y="-21.4" x="580" font-family="Arial">Lexicon</text>
  </g>
<!-- Sentence -->
  <g class="node">
   <title>Sentence</title>
   <polygon stroke="#decbe4" stroke-width="0" points="849,-36,795,-36,783,-24,783,-12,795,-1.5577E-14,849,-5.739E-15,861,-12,861,-24,849,-36" fill="#decbe4"/>
   <path stroke="#decbe4" stroke-width="0" d="M795-36c-6,0-12,6-12,12" fill="#decbe4"/>
   <path stroke="#decbe4" stroke-width="0" d="M783-12c0,6,6,12,12,12" fill="#decbe4"/>
   <path stroke="#decbe4" stroke-width="0" d="M849-5.739E-15c6,1.0931E-15,12-6,12-12" fill="#decbe4"/>
   <path stroke="#decbe4" stroke-width="0" d="M861-24c0-6-6-12-12-12" fill="#decbe4"/>
   <polyline stroke="#decbe4" stroke-width="0" points="849,-36,795,-36" fill="none"/>
   <path stroke="#decbe4" stroke-width="0" d="M795-36c-6,0-12,6-12,12" fill="none"/>
   <polyline stroke="#decbe4" stroke-width="0" points="783,-24,783,-12" fill="none"/>
   <path stroke="#decbe4" stroke-width="0" d="M783-12c0,6,6,12,12,12" fill="none"/>
   <polyline stroke="#decbe4" stroke-width="0" points="795,-1.5577E-14,849,-5.739E-15" fill="none"/>
   <path stroke="#decbe4" stroke-width="0" d="M849-5.739E-15c6,1.0931E-15,12-6,12-12" fill="none"/>
   <polyline stroke="#decbe4" stroke-width="0" points="861,-12,861,-24" fill="none"/>
   <path stroke="#decbe4" stroke-width="0" d="M861-24c0-6-6-12-12-12" fill="none"/>
   <text font-size="14.00" text-anchor="middle" y="-13.4" x="822" font-family="Arial">Sentence</text>
  </g>
<!-- Word&#45;&gt;Sentence -->
  <g class="edge">
   <title>Word-&gt;Sentence</title>
   <path stroke="#000" d="M678.1-18h94.11" fill="none"/>
   <polygon stroke="#000" points="772.3,-21.5,782.3,-18,772.3,-14.5,772.3,-21.5" fill="#000"/>
   <text font-size="14.00" text-anchor="middle" y="-37.4" x="730" font-family="Arial">Language</text>
   <text font-size="14.00" text-anchor="middle" y="-21.4" x="730" font-family="Arial">Model</text>
  </g>
 </g>
</svg>
