<?xml version="1.0" encoding="UTF-8" standalone="no"?>
<!-- Created with Inkscape (http://www.inkscape.org/) -->
<svg xmlns:rdf="http://www.w3.org/1999/02/22-rdf-syntax-ns#" xmlns="http://www.w3.org/2000/svg" height="100%" width="100%" version="1.1" xmlns:cc="http://creativecommons.org/ns#" xmlns:dc="http://purl.org/dc/elements/1.1/" viewBox="0 0 1120 425.06">
 <defs></defs>
 <metadata>
  <rdf:RDF>
   <cc:Work rdf:about="">
    <dc:format>image/svg+xml</dc:format>
    <dc:type rdf:resource="http://purl.org/dc/dcmitype/StillImage"/>
    <dc:title/>
   </cc:Work>
  </rdf:RDF>
 </metadata>
 <rect ry="17.173" height="330.58" width="345.57" y="91.48" x="771.41" fill="#decbe4"/>
 <rect ry="17.173" height="332.81" width="624.43" y="87.41" x="3.0025" fill="#decbe4"/>
 <text font-size="40px" line-height="125%" font-family="Arial" style="letter-spacing:0px;word-spacing:0px;" font-style="normal" font-stretch="normal" xml:space="preserve" font-variant="normal" y="23.384766" x="593.64795" font-weight="normal" fill="#000000"><tspan y="23.384766" x="593.64795" font-size="28px">Audio waveform</tspan></text>
 <text font-size="40px" line-height="125%" font-family="Arial" style="letter-spacing:0px;word-spacing:0px;" font-style="normal" font-stretch="normal" xml:space="preserve" font-variant="normal" y="132.89964" x="351.69641" font-weight="normal" fill="#000000"><tspan y="132.89964" x="351.69641"/></text>
 <rect ry="14.142" height="71.309" width="250.86" y="104.17" x="366.26" fill="#FFF"/>
 <text style="letter-spacing:0px;word-spacing:0px;" font-family="Arial" xml:space="preserve" font-size="40px" font-style="normal" font-stretch="normal" font-variant="normal" y="146.90388" x="412.961" font-weight="normal" line-height="125%" fill="#000000"><tspan y="146.90388" x="412.961" font-size="28px">Zilany Model</tspan></text>
 <text font-size="40px" line-height="125%" font-family="Arial" transform="matrix(0,-1,1,0,0,0)" font-style="normal" font-stretch="normal" xml:space="preserve" font-variant="normal" y="37.671383" x="-363.82907" font-weight="normal" style="letter-spacing:0px;word-spacing:0px;" fill="#0000ff"><tspan font-size="28px" y="37.671383" x="-363.82907" fill="#0000ff">Template learning</tspan></text>
 <text font-size="40px" line-height="125%" font-family="Arial" transform="matrix(0,1,-1,0,0,0)" font-style="normal" font-stretch="normal" xml:space="preserve" font-variant="normal" y="-1073.6453" x="167.09885" font-weight="normal" style="letter-spacing:0px;word-spacing:0px;" fill="#000000"><tspan font-size="28px" y="-1073.6453" x="167.09885" fill="#0000ff">Motor learning</tspan></text>
 <rect ry="14.142" height="71.309" width="250.86" y="171.96" x="60.571" fill="#FFF"/>
 <text style="letter-spacing:0px;word-spacing:0px;" font-family="Arial" xml:space="preserve" font-size="40px" font-style="normal" font-stretch="normal" font-variant="normal" y="217.6319" x="127.51442" font-weight="normal" line-height="125%" fill="#000000"><tspan y="217.6319" x="127.51442" font-size="28px">Classifier</tspan></text>
 <rect ry="14.142" height="71.309" width="250.86" y="222.73" x="366.26" fill="#FFF"/>
 <text style="letter-spacing:0px;word-spacing:0px;" font-family="Arial" xml:space="preserve" font-size="40px" font-style="normal" font-stretch="normal" font-variant="normal" y="265.45657" x="398.5235" font-weight="normal" line-height="125%" fill="#000000"><tspan y="265.45657" x="398.5235" font-size="28px">Path integrator</tspan></text>
 <rect ry="14.142" height="71.309" width="250.86" y="341.28" x="366.26" fill="#FFF"/>
 <text style="letter-spacing:0px;word-spacing:0px;" font-family="Arial" xml:space="preserve" font-size="28px" font-style="normal" font-stretch="normal" font-variant="normal" y="370.77106" x="491.94342" font-weight="normal" line-height="110.00000238%" fill="#000000"><tspan y="370.77106" x="491.94342" style="text-anchor:middle;text-align:center;" line-height="110.00000238%">Template utterance</tspan><tspan y="401.57104" x="491.94342" style="text-anchor:middle;text-align:center;" line-height="110.00000238%">memory</tspan></text>
 <rect ry="14.142" height="71.309" width="250.86" y="104.18" x="783.58" fill="#FFF"/>
 <text style="letter-spacing:0px;word-spacing:0px;" font-family="Arial" xml:space="preserve" font-size="28px" font-style="normal" font-stretch="normal" font-variant="normal" y="131.50389" x="908.40271" font-weight="normal" line-height="110.00000238%" fill="#000000"><tspan y="131.50389" x="908.40271" style="text-anchor:middle;text-align:center;" line-height="110.00000238%">Birkholz</tspan><tspan y="162.30388" x="908.40271" style="text-anchor:middle;text-align:center;" line-height="110.00000238%">synthesizer</tspan></text>
 <rect ry="14.142" height="71.309" width="250.86" y="222.72" x="783.59" fill="#FFF"/>
 <text style="letter-spacing:0px;word-spacing:0px;" font-family="Arial" xml:space="preserve" font-size="40px" font-style="normal" font-stretch="normal" font-variant="normal" y="268.40286" x="864.13318" font-weight="normal" line-height="125%" fill="#000000"><tspan y="268.40286" x="864.13318" font-size="28px">Control</tspan></text>
 <rect ry="14.142" height="71.309" width="250.86" y="341.28" x="783.58" fill="#FFF"/>
 <text style="letter-spacing:0px;word-spacing:0px;" font-family="Arial" xml:space="preserve" font-size="40px" font-style="normal" font-stretch="normal" font-variant="normal" y="384.00931" x="837.22693" font-weight="normal" line-height="125%" fill="#000000"><tspan y="384.00931" x="837.22693" font-size="28px">Error signal</tspan></text>
 <path style="baseline-shift:baseline;block-progression:tb;color:#000000;direction:ltr;text-indent:0;text-align:start;enable-background:accumulate;text-transform:none;" fill="#000" d="m595.25,31.031-69.969,72.281,1.8125,1.7188l69.97-72.28-1.81-1.719z"/>
 <path stroke-linejoin="round" d="m539.64,98.981-15.729,7.5845,7.0681-15.967c0.73566,4.356,4.2441,7.7308,8.6605,8.3829z" fill-rule="evenodd" stroke-width="0.625"/>
 <path style="baseline-shift:baseline;block-progression:tb;color:#000000;direction:ltr;text-indent:0;text-align:start;enable-background:accumulate;text-transform:none;" fill="#000" d="m367.31,166.12-57.469,12.75,0.53125,2.4375,57.469-12.75-0.53125-2.4375z"/>
 <path stroke-linejoin="round" d="m324.19,183.17-17.305-2.3357,14.696-9.4316c-1.7859,4.0406-0.71721,8.79,2.6093,11.767z" fill-rule="evenodd" stroke-width="0.625"/>
 <path style="baseline-shift:baseline;block-progression:tb;color:#000000;direction:ltr;text-indent:0;text-align:start;enable-background:accumulate;text-transform:none;" fill="#000" d="m490.44,175.47,0,47.25,2.5,0,0-47.25-2.5,0z"/>
 <path stroke-linejoin="round" d="m497.74,209.65-6.0265,16.389-6.0266-16.389c3.5582,2.6182,8.4262,2.6031,12.053,0z" fill-rule="evenodd" stroke-width="0.625"/>
 <path style="baseline-shift:baseline;block-progression:tb;color:#000000;direction:ltr;text-indent:0;text-align:start;enable-background:accumulate;text-transform:none;" fill="#000" d="m311.62,227.22-0.40625,2.4688,54.844,9.0938,0.40625-2.4688-54.844-9.0938z"/>
 <path stroke-linejoin="round" d="m354.35,229.43,15.18,8.6303-17.155,3.2599c3.1659-3.0811,3.9485-7.8859,1.9749-11.89z" fill-rule="evenodd" stroke-width="0.625"/>
 <path style="baseline-shift:baseline;block-progression:tb;color:#000000;direction:ltr;text-indent:0;text-align:start;enable-background:accumulate;text-transform:none;" fill="#000" d="m490.44,294.03,0,47.25,2.5,0,0-47.25-2.5,0z"/>
 <path stroke-linejoin="round" d="m497.74,328.21-6.0265,16.389-6.0266-16.389c3.5582,2.6182,8.4262,2.6031,12.053,0z" fill-rule="evenodd" stroke-width="0.625"/>
 <path style="baseline-shift:baseline;block-progression:tb;color:#000000;direction:ltr;text-indent:0;text-align:start;enable-background:accumulate;text-transform:none;" fill="#000" d="m617.12,138.59,0,2.5,81.969,0,0,235.84,0,1.25,1.25,0,83.25,0,0-2.5-82,0,0-235.84,0-1.25-1.25,0-83.219,0z"/>
 <path stroke-linejoin="round" d="m770.51,370.89,16.389,6.0265-16.389,6.0266c2.6182-3.5582,2.6031-8.4262,0-12.053z" fill-rule="evenodd" stroke-width="0.625"/>
 <path style="baseline-shift:baseline;block-progression:tb;color:#000000;direction:ltr;text-indent:0;text-align:start;enable-background:accumulate;text-transform:none;" fill="#000" d="m617.12,375.69,0,2.5,166.47,0,0-2.5-166.47,0z"/>
 <path stroke-linejoin="round" d="m770.51,370.88,16.389,6.0265-16.389,6.0266c2.6182-3.5582,2.6031-8.4262,0-12.053z" fill-rule="evenodd" stroke-width="0.625"/>
 <path style="baseline-shift:baseline;block-progression:tb;color:#000000;direction:ltr;text-indent:0;text-align:start;enable-background:accumulate;text-transform:none;" fill="#000" d="m907.75,294.03,0,47.25,2.5,0,0-47.25-2.5,0z"/>
 <path stroke-linejoin="round" d="m902.96,307.11,6.0265-16.389,6.0266,16.389c-3.5582-2.6182-8.4262-2.6031-12.053,0z" fill-rule="evenodd" stroke-width="0.625"/>
 <path style="baseline-shift:baseline;block-progression:tb;color:#000000;direction:ltr;text-indent:0;text-align:start;enable-background:accumulate;text-transform:none;" fill="#000" d="m907.75,175.5,0,47.219,2.5,0,0-47.219-2.5,0z"/>
 <path stroke-linejoin="round" d="m902.96,188.56,6.0265-16.389,6.0266,16.389c-3.5582-2.6182-8.4262-2.6031-12.053,0z" fill-rule="evenodd" stroke-width="0.625"/>
 <path style="baseline-shift:baseline;block-progression:tb;color:#000000;direction:ltr;text-indent:0;text-align:start;enable-background:accumulate;text-transform:none;" fill="#000" d="m798.81,29.969-1.75,1.7812,74.719,73.312,1.75-1.7812-74.719-73.312z"/>
 <path stroke-linejoin="round" d="m803.03,44.347-7.4799-15.779,15.92,7.1739c-4.3608,0.70674-7.7588,4.1927-8.4402,8.6047z" fill-rule="evenodd" stroke-width="0.625"/>
</svg>
