<?xml version="1.0" encoding="UTF-8" standalone="no"?>
<svg xmlns:rdf="http://www.w3.org/1999/02/22-rdf-syntax-ns#" xmlns="http://www.w3.org/2000/svg" version="1.1" xmlns:cc="http://creativecommons.org/ns#" xmlns:dc="http://purl.org/dc/elements/1.1/" viewBox="0 0 361.09 308.31">
 <metadata>
  <rdf:RDF>
   <cc:Work rdf:about="">
    <dc:format>image/svg+xml</dc:format>
    <dc:type rdf:resource="http://purl.org/dc/dcmitype/StillImage"/>
    <dc:title/>
   </cc:Work>
  </rdf:RDF>
 </metadata>
 <g transform="translate(150.52738,3.0000823)">
  <path fill="#FFF" d="M92.445,68.338c1.576,47.442,1.92,94.962,2.888,142.43,0.269,13.185,0.501,26.369,0.718,39.556,0.153,9.333-1.095,21.529,2.684,30.352,8.146,19.02,41.554,24.642,59.28,20.205,10.22-2.558,18.017-11.663,25.688-18.311,7.423-6.434,8.915-6.504,9.52-15.447,1.996-29.466,3.991-58.931,5.987-88.396,2.155-31.811,4.309-63.622,6.463-95.433,1.171-17.283,2.985-35.608-4.77-51.744-12.812-26.653-52.412-40.223-78.809-25.506-14.061,7.839-21.175,19.54-26.402,34.472-1.115,3.184-1.518,6.78-2.096,10.104-0.625,3.59-1.316,1.716-2.867,3.996-3.902,5.737-3.898,8.915,1.716,13.723"/>
  <path d="M106.74,75.2c-0.34,55.58-0.68,111.15-1.02,166.73-0.042,6.868-0.084,13.737-0.126,20.606-0.004,0.77499-1.681,4.118-0.192,4.417,2.717,0.54501,2.521-12.764,2.574-14.104,0.991-25.121,0.876-50.283,0.7-75.418-0.137-19.503-0.062-39.006-0.245-58.51-0.1-10.564-0.386-21.146-0.359-31.709,0.007-2.83,2.06-15.431-1.335-12.01"/>
  <path d="m97.782,68.338c0,48.238,0.539,96.49,0.866,144.73,0.083,12.18,0.227,24.36,0.279,36.54,0.04,9.331-3.002,24.667,3.396,32.487,16.376,20.017,44.803,17.873,67.431,12.815,1.043-0.232,2.086-0.466,3.129-0.69901-19.868,8.396-44.215,10.899-62.684-2.295-19.582-13.99-13.178-41.777-13.178-62.981,0-47.963-0.382-95.926-0.382-143.89,0-5.635,1.417-12.756-2.288-17.469,0.941-0.015,2.391,0.282,3.431,0.764"/>
  <path d="M93.208,53.28c2.943-26.147,17.522-42.643,42.232-50.386,23.093-7.236,48.094,1.822,61.891,20.856,6.577,9.073,10.359,22.005,9.392,33.158-0.69,7.981-19.68,13.292-26.02,14.29-3.99,0.627-12.25,1.849-15.06-1.335-2.693-3.054-1.753-11.562-2.407-15.371-1.449-8.444-2.95-25.723-12.464-29.66-23.48-9.717-52.728,2.901-57.562,28.448"/>
  <path d="m101.21,75.2c-7.951,1.278,2.857,7.671,5.91,6.861,6.863-1.821-4.102-5.699-5.91-6.861"/>
  <path d="m101.21,88.924c-7.953,1.278,2.833,7.693,5.91,6.863,6.814-1.838-4.008-5.67-5.91-6.863"/>
  <path fill="#000" d="m204.9,62.62c1.5788,49.432-0.0956,147.12-0.193,193.91-1.314,24.522-0.44717,19.04-6.8282,27.057-5.0016,3.4877-8.1796,4.8066-12.913,6.6713-5.0127,2.5546-15.633,5.5563-18.866,2.4886-0.11732-2.578,0.58662-12.431,0.58662-18.646v-75.632-123.11c15.971-0.27842,26.522-3.5609,38.214-10.74"/>
  <path d="m101.21,102.65c-8.024,1.183,2.941,7.621,5.91,6.861,6.858-1.754-4.019-5.737-5.91-6.861"/>
  <path d="m101.21,116.37c-7.988,1.201,2.982,7.619,5.91,6.863,6.863-1.771-4.031-5.742-5.91-6.863"/>
  <path d="m101.21,129.9c-7.484,1.279,2.001,7.465,5.528,6.863,7.371-1.256-3.471-5.42-5.528-6.863"/>
  <path d="m101.21,143.63c-7.688,1.219,2.42,7.653,5.91,6.861,6.563-1.489-3.708-5.469-5.91-6.861"/>
  <path d="m101.21,239.7c-8.038,1.049,2.928,7.624,5.91,6.861,6.859-1.754-4.019-5.737-5.91-6.861"/>
  <path d="m101.21,253.42c-7.6,0.688,2.429,7.88,5.91,6.861,6.749-1.974-3.902-5.666-5.91-6.861"/>
  <path d="m101.21,266.38c-7.247,0.871,1.567,7.547,5.338,6.861,7.569-1.375-3.065-5.269-5.338-6.861"/>
  <path d="m101.21,157.35c-7.709,1.073,2.386,7.659,5.91,6.862,6.682-1.511-3.824-5.424-5.91-6.862"/>
  <path d="m101.21,171.08c-7.563,1.096,2.093,7.544,5.528,6.861,7.485-1.487-3.471-5.445-5.528-6.861"/>
  <path d="m101.21,184.8c-7.802,1.135,2.61,7.791,5.91,6.861,6.797-1.916-4.086-5.689-5.91-6.861"/>
  <path d="m101.21,198.52c-7.942,1.277,2.836,7.688,5.91,6.863,6.872-1.843-4.12-5.711-5.91-6.863"/>
  <path d="m101.21,212.25c-7.953,1.274,2.859,7.671,5.91,6.861,6.863-1.822-4.101-5.699-5.91-6.861"/>
  <path d="m101.21,225.97c-7.931,1.277,2.851,7.688,5.91,6.862,6.813-1.838-4.009-5.668-5.91-6.862"/>
  <path d="m91.492,62.43c5.737,7.663,19.596,9.669,28.374,11.159,11.569,1.963,23.488,1.602,34.909,3.327-9.992-3.655-22.484-2.313-33.047-4.539-6.72-1.417-13.344-3.052-19.752-5.565-3.381-1.326-7.737-4.584-10.484-4.382"/>
  <path d="M88.062,59.951c13.308,16.127,45.198,11.655,63.278,14.485-9.8-3.81-22.58-2.337-33.04-4.539-6.72-1.414-13.35-3.048-19.755-5.562-3.223-1.263-7.81-4.891-10.483-4.384"/>
  <path d="m88.251,55.759c5.813,8.379,21.214,9.985,30.45,11.523,10.8,1.799,21.896,2.59,32.833,2.962-11.001-3.236-23.807-2.768-35.191-4.868-6.066-1.119-12.486-2.867-18.173-5.284-3.094-1.315-7.592-4.402-9.919-4.333"/>
  <path d="m203.57,68.91"/>
  <path d="m96.639,68.91c-6.204-0.203-5.194-6.748,0.571-5.147-0.186,1.68-0.182,3.505-0.571,5.147"/>
 </g>
 <g transform="matrix(-1,0,0,1,210.56491,3.0000823)">
  <path fill="#FFF" d="M92.445,68.338c1.576,47.442,1.92,94.962,2.888,142.43,0.269,13.185,0.501,26.369,0.718,39.556,0.153,9.333-1.095,21.529,2.684,30.352,8.146,19.02,41.554,24.642,59.28,20.205,10.22-2.558,18.017-11.663,25.688-18.311,7.423-6.434,8.915-6.504,9.52-15.447,1.996-29.466,3.991-58.931,5.987-88.396,2.155-31.811,4.309-63.622,6.463-95.433,1.171-17.283,2.985-35.608-4.77-51.744-12.812-26.653-52.412-40.223-78.809-25.506-14.061,7.839-21.175,19.54-26.402,34.472-1.115,3.184-1.518,6.78-2.096,10.104-0.625,3.59-1.316,1.716-2.867,3.996-3.902,5.737-3.898,8.915,1.716,13.723"/>
  <path d="M106.74,75.2c-0.34,55.58-0.68,111.15-1.02,166.73-0.042,6.868-0.084,13.737-0.126,20.606-0.004,0.77499-1.681,4.118-0.192,4.417,2.717,0.54501,2.521-12.764,2.574-14.104,0.991-25.121,0.876-50.283,0.7-75.418-0.137-19.503-0.062-39.006-0.245-58.51-0.1-10.564-0.386-21.146-0.359-31.709,0.007-2.83,2.06-15.431-1.335-12.01"/>
  <path d="m97.782,68.338c0,48.238,0.539,96.49,0.866,144.73,0.083,12.18,0.227,24.36,0.279,36.54,0.04,9.331-3.002,24.667,3.396,32.487,16.376,20.017,44.803,17.873,67.431,12.815,1.043-0.232,2.086-0.466,3.129-0.69901-19.868,8.396-44.215,10.899-62.684-2.295-19.582-13.99-13.178-41.777-13.178-62.981,0-47.963-0.382-95.926-0.382-143.89,0-5.635,1.417-12.756-2.288-17.469,0.941-0.015,2.391,0.282,3.431,0.764"/>
  <path d="M93.208,53.28c2.943-26.147,17.522-42.643,42.232-50.386,23.093-7.236,48.094,1.822,61.891,20.856,6.577,9.073,10.359,22.005,9.392,33.158-0.69,7.981-19.68,13.292-26.02,14.29-3.99,0.627-12.25,1.849-15.06-1.335-2.693-3.054-1.753-11.562-2.407-15.371-1.449-8.444-2.95-25.723-12.464-29.66-23.48-9.717-52.728,2.901-57.562,28.448"/>
  <path d="m101.21,75.2c-7.951,1.278,2.857,7.671,5.91,6.861,6.863-1.821-4.102-5.699-5.91-6.861"/>
  <path d="m101.21,88.924c-7.953,1.278,2.833,7.693,5.91,6.863,6.814-1.838-4.008-5.67-5.91-6.863"/>
  <path fill="#000" d="m204.9,62.62c1.5788,49.432-0.0956,147.12-0.193,193.91-1.314,24.522-0.44717,19.04-6.8282,27.057-5.0016,3.4877-8.1796,4.8066-12.913,6.6713-5.0127,2.5546-15.633,5.5563-18.866,2.4886-0.11732-2.578,0.58662-12.431,0.58662-18.646v-75.632-123.11c15.971-0.27842,26.522-3.5609,38.214-10.74"/>
  <path d="m101.21,102.65c-8.024,1.183,2.941,7.621,5.91,6.861,6.858-1.754-4.019-5.737-5.91-6.861"/>
  <path d="m101.21,116.37c-7.988,1.201,2.982,7.619,5.91,6.863,6.863-1.771-4.031-5.742-5.91-6.863"/>
  <path d="m101.21,129.9c-7.484,1.279,2.001,7.465,5.528,6.863,7.371-1.256-3.471-5.42-5.528-6.863"/>
  <path d="m101.21,143.63c-7.688,1.219,2.42,7.653,5.91,6.861,6.563-1.489-3.708-5.469-5.91-6.861"/>
  <path d="m101.21,239.7c-8.038,1.049,2.928,7.624,5.91,6.861,6.859-1.754-4.019-5.737-5.91-6.861"/>
  <path d="m101.21,253.42c-7.6,0.688,2.429,7.88,5.91,6.861,6.749-1.974-3.902-5.666-5.91-6.861"/>
  <path d="m101.21,266.38c-7.247,0.871,1.567,7.547,5.338,6.861,7.569-1.375-3.065-5.269-5.338-6.861"/>
  <path d="m101.21,157.35c-7.709,1.073,2.386,7.659,5.91,6.862,6.682-1.511-3.824-5.424-5.91-6.862"/>
  <path d="m101.21,171.08c-7.563,1.096,2.093,7.544,5.528,6.861,7.485-1.487-3.471-5.445-5.528-6.861"/>
  <path d="m101.21,184.8c-7.802,1.135,2.61,7.791,5.91,6.861,6.797-1.916-4.086-5.689-5.91-6.861"/>
  <path d="m101.21,198.52c-7.942,1.277,2.836,7.688,5.91,6.863,6.872-1.843-4.12-5.711-5.91-6.863"/>
  <path d="m101.21,212.25c-7.953,1.274,2.859,7.671,5.91,6.861,6.863-1.822-4.101-5.699-5.91-6.861"/>
  <path d="m101.21,225.97c-7.931,1.277,2.851,7.688,5.91,6.862,6.813-1.838-4.009-5.668-5.91-6.862"/>
  <path d="m91.492,62.43c5.737,7.663,19.596,9.669,28.374,11.159,11.569,1.963,23.488,1.602,34.909,3.327-9.992-3.655-22.484-2.313-33.047-4.539-6.72-1.417-13.344-3.052-19.752-5.565-3.381-1.326-7.737-4.584-10.484-4.382"/>
  <path d="M88.062,59.951c13.308,16.127,45.198,11.655,63.278,14.485-9.8-3.81-22.58-2.337-33.04-4.539-6.72-1.414-13.35-3.048-19.755-5.562-3.223-1.263-7.81-4.891-10.483-4.384"/>
  <path d="m88.251,55.759c5.813,8.379,21.214,9.985,30.45,11.523,10.8,1.799,21.896,2.59,32.833,2.962-11.001-3.236-23.807-2.768-35.191-4.868-6.066-1.119-12.486-2.867-18.173-5.284-3.094-1.315-7.592-4.402-9.919-4.333"/>
  <path d="m203.57,68.91"/>
  <path d="m96.639,68.91c-6.204-0.203-5.194-6.748,0.571-5.147-0.186,1.68-0.182,3.505-0.571,5.147"/>
 </g>
 <text style="letter-spacing:0px;word-spacing:0px;" font-weight="normal" xml:space="preserve" transform="matrix(0,1,-1,0,0,0)" font-size="40px" font-style="normal" y="-277.79041" x="97.687309" font-family="Sans" line-height="125%" fill="#000000"><tspan font-weight="normal" font-size="36px" font-style="normal" font-stretch="normal" font-variant="normal" y="-277.79041" x="97.687309" font-family="Arial">Synthesis</tspan></text>
 <text style="letter-spacing:0px;word-spacing:0px;" font-weight="normal" xml:space="preserve" transform="matrix(0,-1,1,0,0,0)" font-size="40px" font-style="normal" y="81.157288" x="-271.18341" font-family="Sans" line-height="125%" fill="#000000"><tspan font-weight="normal" font-size="36px" font-style="normal" font-stretch="normal" font-variant="normal" y="81.157288" x="-271.18341" font-family="Arial">Recognition</tspan></text>
</svg>
