<?xml version="1.0" encoding="UTF-8" standalone="no"?>
<!-- Created with Inkscape (http://www.inkscape.org/) -->
<svg xmlns:rdf="http://www.w3.org/1999/02/22-rdf-syntax-ns#" xmlns="http://www.w3.org/2000/svg" height="100%" width="100%" version="1.1" xmlns:cc="http://creativecommons.org/ns#" xmlns:dc="http://purl.org/dc/elements/1.1/" viewBox="0 0 903.95315 235.933">
 <defs>
  <clipPath id="p66716b5c62">
   <rect y="371.25" width="460.8" height="17.55" x="57.6"/>
  </clipPath>
  <clipPath id="p5677a33249">
   <rect y="336.15" width="460.8" height="17.55" x="57.6"/>
  </clipPath>
  <clipPath id="p12bbeb3ff8">
   <rect y="25.92" width="460.8" height="82.08" x="57.6"/>
  </clipPath>
 </defs>
 <metadata>
  <rdf:RDF>
   <cc:Work rdf:about="">
    <dc:format>image/svg+xml</dc:format>
    <dc:type rdf:resource="http://purl.org/dc/dcmitype/StillImage"/>
    <dc:title/>
   </cc:Work>
  </rdf:RDF>
 </metadata>
 <text font-size="40px" font-weight="normal" xml:space="preserve" style="word-spacing:0px;letter-spacing:0px;" line-height="125%" font-stretch="normal" font-variant="normal" y="377.83115" x="551.67035" font-family="Arial" font-style="normal" fill="#000000"><tspan y="377.83115" x="551.67035"/></text>
 <text style="word-spacing:0px;letter-spacing:0px;" font-weight="normal" xml:space="preserve" font-size="40px" font-style="normal" font-stretch="normal" font-variant="normal" y="272.55621" x="865.80475" font-family="Arial" line-height="125%" fill="#000000"><tspan y="272.55621" x="865.80475" font-size="28px"/></text>
 <text style="word-spacing:0px;letter-spacing:0px;" font-weight="normal" xml:space="preserve" font-size="40px" font-style="normal" font-stretch="normal" font-variant="normal" y="271.45197" x="839.2533" font-family="Arial" line-height="125%" fill="#000000"><tspan y="271.45197" x="839.2533" font-size="28px"/></text>
 <text style="word-spacing:0px;letter-spacing:0px;" font-family="Arial" xml:space="preserve" font-size="40.00000381px" font-style="normal" font-stretch="normal" font-variant="normal" y="23.384768" x="144.25781" font-weight="normal" line-height="110.00000238%" fill="#000000"><tspan style="text-anchor:middle;text-align:center;" font-size="28.00000191px" line-height="110.00000238%" y="23.384768" x="144.25783">Speech samples(units)</tspan></text>
 <rect ry="14.142" height="194.27" width="222.69" y="38.663" x="30.498" fill="#decbe4"/>
 <text style="word-spacing:0px;letter-spacing:0px;" font-family="Arial" xml:space="preserve" font-size="40.00000381px" font-style="normal" font-stretch="normal" font-variant="normal" y="64.690926" x="51.366653" font-weight="normal" line-height="110.00000238%" fill="#000000"><tspan style="text-anchor:middle;text-align:center;" font-family="STIXGeneral" font-size="28.00000191px" font-style="italic" font-stretch="normal" font-variant="normal" y="64.690926" x="51.366653" font-weight="normal" line-height="110.00000238%">u<tspan style="baseline-shift:sub;" font-size="65.00091553%">1</tspan></tspan></text>
 <text style="word-spacing:0px;letter-spacing:0px;" font-family="Arial" xml:space="preserve" font-size="40.00000763px" font-style="normal" font-stretch="normal" font-variant="normal" y="114.73606" x="51.366653" font-weight="normal" line-height="110.00000238%" fill="#000000"><tspan style="text-anchor:middle;text-align:center;" font-family="STIXGeneral" font-size="28.00000381px" font-style="italic" font-stretch="normal" font-variant="normal" y="114.73606" x="51.366653" font-weight="normal" line-height="110.00000238%">u<tspan style="baseline-shift:sub;" font-size="65.00091553%">2</tspan></tspan></text>
 <text style="word-spacing:0px;letter-spacing:0px;" font-family="Arial" xml:space="preserve" font-size="40.00000763px" font-style="normal" font-stretch="normal" font-variant="normal" y="164.78119" x="51.366653" font-weight="normal" line-height="110.00000238%" fill="#000000"><tspan style="text-anchor:middle;text-align:center;" font-family="STIXGeneral" font-size="28.00000381px" font-style="italic" font-stretch="normal" font-variant="normal" y="164.78119" x="51.366653" font-weight="normal" line-height="110.00000238%">u<tspan style="baseline-shift:sub;" font-size="65.00091553%">3</tspan></tspan></text>
 <text style="word-spacing:0px;letter-spacing:0px;" font-family="Arial" xml:space="preserve" font-size="40.00000381px" font-style="normal" font-stretch="normal" font-variant="normal" y="218.2225" x="139.85832" font-weight="normal" line-height="110.00000238%" fill="#000000"><tspan style="text-anchor:middle;text-align:center;" font-family="STIXGeneral" font-size="28.00000191px" font-style="italic" font-stretch="normal" font-variant="normal" y="218.2225" x="139.85834" font-weight="normal" line-height="110.00000238%">O(10<tspan style="baseline-shift:super;" font-size="65.00091553%">5</tspan>)</tspan></text>
 <text style="word-spacing:0px;letter-spacing:0px;" font-family="Arial" xml:space="preserve" font-size="40.00000763px" font-style="normal" font-stretch="normal" font-variant="normal" y="218.2225" x="50.098053" font-weight="normal" line-height="110.00000238%" fill="#000000"><tspan style="text-anchor:middle;text-align:center;" font-size="28.00000381px" line-height="110.00000238%" y="218.2225" x="50.098053">...</tspan></text>
 <path d="m30.5,184.33,223.12,0" stroke-dashoffset="0" stroke="#FFF" stroke-miterlimit="4" stroke-dasharray="none" stroke-width="3" fill="none"/>
 <path d="m30.5,134.19,223.12,0" stroke-dashoffset="0" stroke="#FFF" stroke-miterlimit="4" stroke-dasharray="none" stroke-width="3.00000024" fill="none"/>
 <path d="m30.5,83.846,223.12,0" stroke-dashoffset="0" stroke="#FFF" stroke-miterlimit="4" stroke-dasharray="none" stroke-width="3.00000024" fill="none"/>
 <path stroke-linejoin="round" d="m57.6,373.72,1.1253-0.487,0.5626,0.579,0.5626-0.316,0.5627,0.247,0.5626,0.439,0.5627,1.544,0.5626,0.398,0.5626-0.278,0.5627,3.236,0.5626-6.526,0.5626,8.684,0.5627-1.325,0.5626-5.838,0.5627,10.451,0.5626-2.536,0.5626-8.503,0.5627,8.822,0.5626,4.116,0.5626-2.761,0.5627-10.702,0.5626,8.116,0.5627,6,0.5626-3.494,0.5626-8.505,1.1253,11.756,0.5626-1.912,0.5627-6.111,0.5626-1.877,0.5627,6.771,0.5626,0.312,0.5626-5.291,0.5627-3.434,0.5626,5.934,0.5626,0.716,0.5627-2.24,0.5626-7.44,0.5627,8.481,0.5626-0.43,0.5626-7.409,0.5627,6.301,0.5626,2.969,0.5626-0.746,0.5627,0.383,0.5626-6.264,0.5627,0.443,0.5626,4.75,1.1253-6.813,0.5626,0.096,0.5626-0.852,0.5627,0.642,0.5626-0.31,0.5627-0.466,0.5626,0.23,0.5626-0.208,0.5627,0.829,0.5626-0.011,0.5626,2.25,0.5627-0.964,0.5626,0.345,0.5627,2.352,0.5626-4.291,0.5626,7.561,0.5627-3.012,0.5626-1.564,0.5626,7.038,1.1253-9.196,0.5627,8.889,0.5626,0.974,0.5626-5.49,0.5627-1.698,0.5626,5.291,0.5622,4.121,0.563-5.128,0.563-7.511,0.562,8.394,0.563,1.13,0.563-8.146,0.562,3.753,0.563,1.63,0.563-8.424,0.562,6.674,0.563-5.473,0.562,7.392,0.563,0.367,0.563-6.879,0.562,5.656,0.563,2.975,0.563-5.319,0.562-2.245,0.563-1.157,0.563,2.771,0.562,6.611,0.563-2.136,0.562-7.098,0.563,5.363,1.125-6.006,0.563,0.807,0.563,0.571,0.562-0.048,0.563,0.149,0.563-1.994,0.562,1.964,0.563,0.775,1.125-1.949,0.563,2.505,0.562-1.532,0.563-0.776,0.563-0.004,0.562-1.211,0.563,1.419,0.563,0.514,0.562-1.916,0.563,2.196,0.562-0.318,0.563-1.949,0.563,2.886,0.562-2.08,0.563,0.709,0.563-1.022,0.562,1.685,0.563-2.36,0.563,2.527,0.562-2.02,0.563,1.045,0.562-1.74,0.563,1.614,0.563,0.599,0.562,1.205,0.563,0.166,0.563,0.437,0.562,2.572,0.563-5.046,0.563,6.868,0.562-4.617" clip-path="url(#p66716b5c62)" transform="matrix(1.848398,0,0,1.848398,-27.681807,-639.60437)" stroke="#00F" stroke-linecap="square" stroke-width="0.80000001" fill="none"/>
 <path stroke-linejoin="round" d="m57.6,351.32,0.5626,0.355,0.5627-0.25,0.5626-2.437,1.1253-1.956,0.5626-2.084,0.5627-0.496,1.1252-2.553,0.5627-1.936,0.5626,3.467,0.5626-3.412,0.5627-0.808,0.5626,3.892,0.5627-3.05,0.5626-1.505,0.5626,2.778,0.5627-3.137,0.5626-1.118,0.5626,2.636,0.5627,4.007,0.5626-4.766,0.5627-0.38,0.5626,1.215,0.5626,3.728,1.1253-2.615,0.5626,0.354,0.5627,2.325,0.5626,1.586,0.5627-1.846,0.5626,0.291,0.5626,2.516,0.5627,1.342,1.1252-2.111,0.5627-0.251,0.5626,1.533,0.5627-4.15,0.5626,0.434,0.5626,3.083,0.5627-0.593,0.5626,0.905,0.5626,0.021,0.5627,1.335,0.5626-0.138,0.5627-1.526,0.5626-0.73,0.5626,2.485,0.5627,4.425,0.5626,0.554,1.6879,0.569,0.5627-1.241,0.5626-3.319,0.5626-1.106,0.5627-0.59,1.1252-1.777,0.5627-1.793,0.5626-1.052,0.5627-2.424,0.5626,1.041,0.5626-1.837,0.5627,1.188,0.5626,1.592,0.5626-1.993,0.5627-0.57,0.5626,1.163,0.5627-2.062,0.5626,1.161,0.5626,3.343,0.5627-1.106,0.5626-2.847,0.5622,1.933,0.563,0.707,0.563,2.284,0.562-5.742,0.563-0.952,0.563,4.325,0.562-0.862,0.563,0.959,0.563,4.347,0.562-1.606,0.563,2.371,0.562-3.031,0.563-1.75,0.563,1.516,0.562-0.949,0.563,0.33,0.563,2.277,0.562,1.256,0.563-1.45,0.563-1.898,0.562-0.973,0.563,1.485,0.562,1.023,1.126,7.019,0.562,1.044,0.563-0.44,0.563,0.287,0.562,0.073,0.563-0.635,0.563,0.251,0.562-0.224,1.125,0.79,0.563-0.507,0.563-1.56,0.562,0.348,0.563,1.009,1.125,0.546,1.126-1.105,0.562,0.284,1.125,0.057,0.563,0.156,1.125-0.525,0.563-0.769,0.563,0.418,0.562,0.032,0.563-0.082,0.563-0.596,0.562,0.858,0.563-1.102,0.562-0.086,0.563-1.333,0.563-0.583,0.562-1.734,0.563-1.025,0.563-1.291,0.562-0.868,0.563,0.476,0.563-2.913,0.562,2.571,1.126-2.75,0.562,2.752,0.563-2.166,0.562-0.555,0.563,3.177,0.563,5.941,0.562,1.845,0.563,0.55,0.563,0.037,1.125,0.543,0.563-0.825" clip-path="url(#p5677a33249)" transform="matrix(1.9273428,0,0,1.9273428,-32.229027,-555.89359)" stroke="#00F" stroke-linecap="square" stroke-width="0.80000001" fill="none"/>
 <path stroke-linejoin="round" d="m57.6,65.89,0.0352-0.3043,0,0,0,0,0.0351,0.1809,0,0,0,0,0.0704-0.3863,0.0351,0.2761,0.0352,0.3758,0.0703-0.2111,0.0352,0.0896,0,0,0,0,0.1055-0.2937,0.0351,0.1434,0,0,0,0,0.0352-0.1641,0,0,0,0,0.0352,0.2417,0.0351-1.0376,0.0704,0.1277,0.0351,0.3564,0.0704-0.0946,0.0351-0.0507,0,0,0,0,0.0352,0.1277,0,0,0,0,0.0703-0.2724,0.0352,0.0683,0.0352,0.2523,0.0703-0.112,0.0351,0.0187,0.0352-0.3989,0.1407-2.7497,0.211-1.2211,0.0351-0.0032,0.1758,1.0652,0.1407-17.276,0.1055,1.9726,0.1407,7.9411,0.1055-2.2312,0.1406-4.4587,0.0352,0.0231,0.0703-0.5855,0.211-1.3658,0.1758,2.2194,0.0352,3.0609,0.0703-1.1516,0.1055-1.5261,0.0352,0.3626,0.2461,3.7129,0.0352-0.275,0.0703-0.9449,0.0704,0.0758,0.0351,0.0169,0.211-1.7854,0.1055,0.2687,0.0703,0.1302,0.0352-0.077,0.0703-0.3163,0.0352,0.2123,0.4571,3.5714,0.1407-7.5266,0.1758-0.8147,0.0352-0.1071,0.0351,0.0539,0.1759,1.1716,0.1055,1.6526,0.0351-0.0588,0.1759,0.9412,0.1758-0.1322,0.0703,0.027,0.0352,3.6001,0.1055-0.4684,0.1055-0.531,0.0703,0.1139,0.1407,0.471,0.0351-0.0752,0.0703-0.2661,0.0352-3.1562,0.1055,0.2662,0.0703,0.2166,0.0704-0.1158,0.1758-0.1491,0.0703,0.1128,0.0352-0.2054,0.1406,6.2759,0.422,2.0641,0.0352-1.4422,0.1055,0.087,0.211-0.0075,0.1758-0.2749,0.0352,0.1021,0.1406-3.1493,0.2462,0.3037,0.0351-0.0344,0.1055,0.0701,0.1759-0.4609,0.0703,0.1253,0.0351-0.072,0.0352-0.0245,0.0352,0.062,0.2461,0.2355,0.0352,5.3009,0.1055-0.0989,0.1758-0.181,0.1407,0.2186,0.0351-0.0683,0.0704-0.0601,0.0351-2.4391,0.1055,0.0707,0.1055,0.0608,0.0352-0.032,0.1758-0.2185,0.211,0.2448,0.0703-0.1528,0.0704-0.0419,0.0703,0.2242,0.0703-0.0338,0.1407,0.0137,0.0351,0.0238,0.1407,5.2853,0.3517,0.9531,0.0703-0.0795,0.1406-1.3902,0.422-0.8611,0.0703-1.6068,0.0704,0.0338,0.422,0.0977,0.1758,0.4778,0.0703,0.1509,0.0352-0.052,0.1055-0.1334,0.0351,0.0683,0.1055,0.2455,0.0352-0.037,0.1055,0.9506,0.0352-0.0375,0.0351-0.0733,0.0703,0.1096,0.1055,0.0588,0.1055,0.2186,0.1055,0.2599,0.0352,2.9557,0.1055-0.0757,0.2813-0.2449,0.1407-0.0037,0.0351-1.4491,0.1055,0.0927,0.0704,0.035,0.0351-0.0707,0.3165-0.0226,0.2462-0.1002,0.1758-0.0833,0.1055,0.0708,0.0351,0.0564,0.1055,0.6299,0.0352-0.0795,0.1758-0.1904,0.2462,0.2762,0.1055,3.5757,0.0351-0.0313,0.0352-0.0344,0.0352,0.0657,0.211,0.2893,0.1406,0.0877,0.1407-2.4867,0.2461-0.161,0.1407,0.1052,0.0352-0.0306,0.1406-0.6857,0.2462,0.015,0.0703-0.0889,0.0352,0.0519,0.0703,0.0376,0.1407,0.8849,0.0351,0.0513,0.0352-0.0908,0.0351-0.0726,0.0352,0.0914,0.1055,0.1209,0.0352-0.0282,0.1406-0.0307,0.1407,2.2074,0.422,0.2812,0.1406-0.8867,0.1407-0.0495,0.1055,0.0983,0.0351-0.0726,0.0704,0.0181,0.0703,0.047,0.0703,0.4872,0.0704-0.0357,0.211,0.0513,0.2109-0.1659,0.1055-1.4409,0.0352,0.0075,0.2462,0.0194,0.0703-0.0157,0.1055,0.1034,0.0703,0.6544,0.0703-0.037,0.211,0.0413,0.0704,0.0789,0.0351-0.0507,0.1055-0.0282,0.0703-0.6412,0.0704,0.0106,0.1406-0.1759,0.0352,0.0307,0.2462-0.0213,0.0351-1.5512,0.1055,0.072,0.1758-0.0307,0.1407,0.0952,0.0352-0.0425,0.0703-0.0395,0.1407,1.0207,0.4219,0.3564,0.1055,1.5023,0.0352-0.084,0.2461-0.0306,0.1407,0.0858,0.0352-0.0382,0.0703,0.5034,0.0703-0.0225,0.422,0.2261,0.1055-0.3119,0.0352,0.0138,0.1758,0.015,0.1406-0.0282,0.1055,0.0188,0.1407,0.4628,0.1758,0.0088,0.1407,0.0169,0.2461-0.0984,0.844,0.0357,0.1407,0.0069,0.1054-1.1685,0.0352,0.0313,0.1758,0.0031,0.0352-0.0388,0.0703,0.0758,0.1407,0.0094,0.1407,0.2643,0.4219,0.0187,0.0704,0.7972,0.0703-0.0213,0.1406-0.0751,0.2814,0.0538,0.1055-1.5937,0.0351,0.2392,0.1758-1.3301,0.1407,1.9432,0.0352-0.2217,0.0351-1.7471,0.0704,1.2693,0.0351,0.0783,0.0704-0.2743,0.0351,0.1478,0.0352,0.0044,0.0352,1.0263,0,0,0,0,0.0351-1.7271,0.0704,1.3069,0.0703,0.2631,0.0351-0.0764,0.0352-1.8123,0.0352,0.5561,0,0,0.1055,1.8655,0.0351-0.0251,0.1055-0.4145,0.0352,0.3325,0.0352,0.0964,0.0703-0.6381,0.0352,0.3344,0.0703,0.3876,0.1055-0.0601,0.0703-0.2699,0.0352,0.0633,0.0351,0.4797,0.0352-0.1366,0.0352-0.5567,0.0703,0.4791,0.0352,0.1409,0.0351-0.0683,0.0352-0.4452,0,0,0,0,0.1407,0.6331,0.0351-0.2236,0,0,0,0,0.0703,0.5505,0.0352-0.2035,0.1758-0.6732,0.0704,0.6606,0.0351-0.0983,0.1055-0.33,0.0704,0.5166,0.0351-0.965,0.0703,0.4966,0.0352,0.0457,0.0352-0.0851,0.1055-0.1447,0.1055,0.2136,0.1055-0.8229,0.0703,0.2436,0.1406-4.7217,0.0352,0.0739,0.1758-3.3998,0.0352,0.6914,0.1055,1.6538,0.0703-0.0826,0.0704-20.87,0.0703,3.3603,0.0703,2.5337,0.0352-0.2949,0.1406-4.2684,0.0352,0.615,0.1055,5.981,0.0352-4.3272,0.0351-0.231,0.0352,0.1258,0.1407,4.8476,0.1054-1.6513,0.2462-2.756,0.1407,11.626,0.1758,2.4868,0.0703-0.3977,0.0703,0.0388,0.1055-0.9493,0.0352-10.984" clip-path="url(#p12bbeb3ff8)" transform="matrix(1.2500001,0,0,1.2500001,6.785913,92.930753)" stroke="#00F" stroke-linecap="square" stroke-width="0.80000001" fill="none"/>
 <text style="word-spacing:0px;letter-spacing:0px;" font-family="Arial" xml:space="preserve" font-size="40.00000381px" font-style="normal" font-stretch="normal" font-variant="normal" y="23.384768" x="611.83014" font-weight="normal" line-height="110.00000238%" fill="#000000"><tspan style="text-anchor:middle;text-align:center;" font-size="28.00000191px" line-height="110.00000238%" y="23.384768" x="611.83014">Target sequence</tspan></text>
 <g transform="translate(-16,27.280256)">
  <rect ry="14.142" height="48.706" width="114.28" y="83.85" x="322.19" fill="#decbe4"/>
  <text font-size="40.00000763px" font-family="Arial" xml:space="preserve" font-variant="normal" style="letter-spacing:0px;word-spacing:0px;" font-stretch="normal" font-style="normal" y="112.32702" x="343.66672" font-weight="normal" line-height="110.00000238%" fill="#000000"><tspan font-size="28.00000381px" font-family="STIXGeneral" style="text-anchor:middle;text-align:center;" font-style="italic" font-stretch="normal" font-variant="normal" y="112.32702" x="343.66672" font-weight="normal" line-height="110.00000238%">t<tspan font-size="18.20025826px" style="baseline-shift:sub;">1</tspan></tspan></text>
  <text font-size="40.00000763px" line-height="110.00000238%" font-family="Arial" font-variant="normal" style="letter-spacing:0px;word-spacing:0px;" font-stretch="normal" font-style="normal" y="117.42379" x="393.30966" font-weight="normal" xml:space="preserve" fill="#000000"><tspan font-size="28.00000381px" style="text-anchor:middle;text-align:center;" line-height="110.00000238%" y="117.42379" x="393.30966">/h/</tspan></text>
  <rect ry="14.142" height="49.335" width="114.28" y="83.85" x="477.02" fill="#decbe4"/>
  <text font-size="40.00001144px" line-height="110.00000238%" font-family="Arial" font-variant="normal" style="letter-spacing:0px;word-spacing:0px;" font-stretch="normal" font-style="normal" y="112.32702" x="498.49542" font-weight="normal" xml:space="preserve" fill="#000000"><tspan font-size="28.00000572px" font-family="STIXGeneral" style="text-anchor:middle;text-align:center;" font-style="italic" font-stretch="normal" font-variant="normal" y="112.32702" x="498.49542" font-weight="normal" line-height="110.00000238%">t<tspan font-size="18.20026016px" style="baseline-shift:sub;">2</tspan></tspan></text>
  <text font-size="40.00001144px" line-height="110.00000238%" font-family="Arial" font-variant="normal" style="letter-spacing:0px;word-spacing:0px;" font-stretch="normal" font-style="normal" y="117.42379" x="546.13837" font-weight="normal" xml:space="preserve" fill="#000000"><tspan font-size="28.00000572px" style="text-anchor:middle;text-align:center;" line-height="110.00000238%" y="117.42379" x="546.13837">/e/</tspan></text>
  <rect ry="14.142" height="49.335" width="114.28" y="83.85" x="631.85" fill="#decbe4"/>
  <text font-size="40.00001144px" line-height="110.00000238%" font-family="Arial" font-variant="normal" style="letter-spacing:0px;word-spacing:0px;" font-stretch="normal" font-style="normal" y="117.42379" x="700.9671" font-weight="normal" xml:space="preserve" fill="#000000"><tspan font-size="28.00000572px" style="text-anchor:middle;text-align:center;" line-height="110.00000238%" y="117.42379" x="700.9671">/l/</tspan></text>
  <rect ry="14.142" height="48.077" width="114.28" y="83.85" x="786.67" fill="#decbe4"/>
  <text font-size="40.00001144px" font-family="Arial" xml:space="preserve" font-variant="normal" style="letter-spacing:0px;word-spacing:0px;" font-stretch="normal" font-style="normal" y="112.32702" x="808.15283" font-weight="normal" line-height="110.00000238%" fill="#000000"><tspan font-size="28.00000572px" font-family="STIXGeneral" style="text-anchor:middle;text-align:center;" font-style="italic" font-stretch="normal" font-variant="normal" y="112.32702" x="808.15283" font-weight="normal" line-height="110.00000238%">t<tspan font-size="65.00091553%" style="baseline-shift:sub;">4</tspan></tspan></text>
  <text font-size="40.00001144px" line-height="110.00000238%" font-family="Arial" font-variant="normal" style="letter-spacing:0px;word-spacing:0px;" font-stretch="normal" font-style="normal" y="117.42379" x="857.79578" font-weight="normal" xml:space="preserve" fill="#000000"><tspan font-size="28.00000572px" style="text-anchor:middle;text-align:center;" line-height="110.00000238%" y="117.42379" x="857.79578">/o/</tspan></text>
  <path d="m852.06,99.806,12.325,0" stroke-dashoffset="0" stroke="#000" stroke-miterlimit="4" stroke-dasharray="none" stroke-width="2" fill="none"/>
  <text font-size="40.00001144px" font-family="Arial" xml:space="preserve" font-variant="normal" style="letter-spacing:0px;word-spacing:0px;" font-stretch="normal" font-style="normal" y="112.32702" x="655.20795" font-weight="normal" line-height="110.00000238%" fill="#000000"><tspan font-family="STIXGeneral" style="text-anchor:middle;text-align:center;" font-style="italic" font-stretch="normal" font-variant="normal" y="112.32702" x="655.20795" font-weight="normal" line-height="110.00000238%">t<tspan style="baseline-shift:sub;" font-size="18.20026016px">3</tspan><tspan font-size="18.20026016px" style="baseline-shift:sub;"/></tspan></text>
 </g>
</svg>
